<svg width="55" height="55" viewBox="0 0 55 55" fill="none" xmlns="http://www.w3.org/2000/svg">
<path d="M48.125 22.9167C48.7328 22.9167 49.3157 22.6752 49.7454 22.2455C50.1752 21.8157 50.4166 21.2328 50.4166 20.625V13.75C50.4166 13.2691 50.2652 12.8005 49.9838 12.4105C49.7025 12.0206 49.3055 11.7291 48.8491 11.5775L28.2241 4.70251C27.754 4.54627 27.246 4.54627 26.7758 4.70251L6.15081 11.5775C5.69448 11.7291 5.29748 12.0206 5.01612 12.4105C4.73476 12.8005 4.58333 13.2691 4.58331 13.75V20.625C4.58331 21.2328 4.82476 21.8157 5.25453 22.2455C5.6843 22.6752 6.26719 22.9167 6.87498 22.9167H9.16665V39.38C7.82989 39.8508 6.67166 40.7239 5.85101 41.8794C5.03036 43.0349 4.58752 44.4161 4.58331 45.8333V50.4167C4.58331 51.0245 4.82476 51.6074 5.25453 52.0371C5.6843 52.4669 6.26719 52.7083 6.87498 52.7083H48.125C48.7328 52.7083 49.3157 52.4669 49.7454 52.0371C50.1752 51.6074 50.4166 51.0245 50.4166 50.4167V45.8333C50.4124 44.4161 49.9696 43.0349 49.149 41.8794C48.3283 40.7239 47.1701 39.8508 45.8333 39.38V22.9167H48.125ZM45.8333 48.125H9.16665V45.8333C9.16725 45.2257 9.40889 44.6432 9.83853 44.2136C10.2682 43.7839 10.8507 43.5423 11.4583 43.5417H43.5416C44.1493 43.5423 44.7318 43.7839 45.1614 44.2136C45.5911 44.6432 45.8327 45.2257 45.8333 45.8333V48.125ZM13.75 38.9583V22.9167H18.3333V38.9583H13.75ZM22.9166 38.9583V22.9167H32.0833V38.9583H22.9166ZM36.6666 38.9583V22.9167H41.25V38.9583H36.6666ZM9.16665 18.3333V15.4L27.5 9.29042L45.8333 15.4023V18.3333H9.16665Z" fill="#FF7A46"/>
<path d="M48.125 22.9167C48.7328 22.9167 49.3157 22.6752 49.7454 22.2455C50.1752 21.8157 50.4166 21.2328 50.4166 20.625V13.75C50.4166 13.2691 50.2652 12.8005 49.9838 12.4105C49.7025 12.0206 49.3055 11.7291 48.8491 11.5775L28.2241 4.70251C27.754 4.54627 27.246 4.54627 26.7758 4.70251L6.15081 11.5775C5.69448 11.7291 5.29748 12.0206 5.01612 12.4105C4.73476 12.8005 4.58333 13.2691 4.58331 13.75V20.625C4.58331 21.2328 4.82476 21.8157 5.25453 22.2455C5.6843 22.6752 6.26719 22.9167 6.87498 22.9167H9.16665V39.38C7.82989 39.8508 6.67166 40.7239 5.85101 41.8794C5.03036 43.0349 4.58752 44.4161 4.58331 45.8333V50.4167C4.58331 51.0245 4.82476 51.6074 5.25453 52.0371C5.6843 52.4669 6.26719 52.7083 6.87498 52.7083H48.125C48.7328 52.7083 49.3157 52.4669 49.7454 52.0371C50.1752 51.6074 50.4166 51.0245 50.4166 50.4167V45.8333C50.4124 44.4161 49.9696 43.0349 49.149 41.8794C48.3283 40.7239 47.1701 39.8508 45.8333 39.38V22.9167H48.125ZM45.8333 48.125H9.16665V45.8333C9.16725 45.2257 9.40889 44.6432 9.83853 44.2136C10.2682 43.7839 10.8507 43.5423 11.4583 43.5417H43.5416C44.1493 43.5423 44.7318 43.7839 45.1614 44.2136C45.5911 44.6432 45.8327 45.2257 45.8333 45.8333V48.125ZM13.75 38.9583V22.9167H18.3333V38.9583H13.75ZM22.9166 38.9583V22.9167H32.0833V38.9583H22.9166ZM36.6666 38.9583V22.9167H41.25V38.9583H36.6666ZM9.16665 18.3333V15.4L27.5 9.29042L45.8333 15.4023V18.3333H9.16665Z" fill="url(#paint0_linear)"/>
<defs>
<linearGradient id="paint0_linear" x1="41" y1="10" x2="4.99997" y2="53" gradientUnits="userSpaceOnUse">
<stop stop-color="#FD387C"/>
<stop offset="1" stop-color="#FF7A46"/>
</linearGradient>
</defs>
</svg>
