<svg width="68" height="58" viewBox="0 0 68 58" fill="none" xmlns="http://www.w3.org/2000/svg">
<g clip-path="url(#clip0)">
<path d="M27.3333 38L17.2 45.6C15.8815 46.5889 14 45.6481 14 44V37.3352C5.84728 35.1207 0 27.6704 0 19C0 8.50659 8.50659 0 19 0H49C59.4934 0 68 8.50659 68 19C68 29.4934 59.4934 38 49 38H27.3333ZM25.4667 34.4C25.8129 34.1404 26.2339 34 26.6667 34H49C57.2843 34 64 27.2843 64 19C64 10.7157 57.2843 4 49 4H19C10.7157 4 4 10.7157 4 19C4 26.2979 9.24934 32.5027 16.3506 33.7671C17.3049 33.937 18 34.7668 18 35.7361V40L25.4667 34.4ZM42.2432 12.1365L42.5946 12.4879C44.9352 14.8285 44.9337 18.6258 42.5934 20.9662L35.4189 28.1407C34.6378 28.9217 33.3715 28.9217 32.5904 28.1407L25.4159 20.9662C23.0756 18.6258 23.0741 14.8285 25.4147 12.4879L25.7661 12.1365C28.0231 9.87952 31.6521 9.80127 34.0047 11.9107C36.3572 9.80127 39.9862 9.87952 42.2432 12.1365ZM39.7649 18.1377C40.5436 17.359 40.5441 16.0944 39.7661 15.3163L39.4147 14.965C38.6407 14.1909 37.3696 14.19 36.5934 14.9662L35.4189 16.1407C34.6378 16.9217 33.3715 16.9217 32.5904 16.1407L31.4159 14.9662C30.6397 14.19 29.3686 14.1909 28.5946 14.965L28.2432 15.3163C27.4652 16.0944 27.4657 17.359 28.2444 18.1377L34.0047 23.898L39.7649 18.1377Z" fill="url(#paint0_linear)"/>
<path d="M3.10791 59.8159C3.08024 60.1984 2.93864 60.4995 2.68311 60.7192C2.4292 60.939 2.09391 61.0488 1.67725 61.0488C1.22152 61.0488 0.86263 60.8958 0.600586 60.5898C0.340169 60.2822 0.209961 59.8607 0.209961 59.3252V59.1079C0.209961 58.7661 0.270182 58.465 0.390625 58.2046C0.511068 57.9442 0.68278 57.7448 0.905762 57.6064C1.13037 57.4665 1.39079 57.3965 1.68701 57.3965C2.09717 57.3965 2.42757 57.5063 2.67822 57.7261C2.92887 57.9458 3.07373 58.2542 3.11279 58.6514H2.38037C2.36247 58.4219 2.29818 58.2559 2.1875 58.1533C2.07845 58.0492 1.91162 57.9971 1.68701 57.9971C1.44287 57.9971 1.25977 58.085 1.1377 58.2607C1.01725 58.4349 0.955404 58.7059 0.952148 59.0737V59.3423C0.952148 59.7264 1.00993 60.0072 1.12549 60.1846C1.24268 60.362 1.4266 60.4507 1.67725 60.4507C1.90348 60.4507 2.07194 60.3994 2.18262 60.2969C2.29492 60.1927 2.35921 60.0324 2.37549 59.8159H3.10791ZM5.02686 59.02C4.93083 59.007 4.84619 59.0005 4.77295 59.0005C4.50602 59.0005 4.33105 59.0908 4.24805 59.2715V61H3.54248V58.3584H4.20898L4.22852 58.6733C4.37012 58.4308 4.56624 58.3096 4.81689 58.3096C4.89502 58.3096 4.96826 58.3201 5.03662 58.3413L5.02686 59.02ZM6.53564 61.0488C6.14827 61.0488 5.83252 60.93 5.58838 60.6924C5.34587 60.4548 5.22461 60.1382 5.22461 59.7427V59.6743C5.22461 59.409 5.27588 59.1722 5.37842 58.9639C5.48096 58.7539 5.62581 58.5928 5.81299 58.4805C6.00179 58.3665 6.21663 58.3096 6.45752 58.3096C6.81885 58.3096 7.10286 58.4235 7.30957 58.6514C7.5179 58.8792 7.62207 59.2023 7.62207 59.6206V59.9087H5.93994C5.96273 60.0812 6.03109 60.2196 6.14502 60.3237C6.26058 60.4279 6.40625 60.48 6.58203 60.48C6.85384 60.48 7.06624 60.3815 7.21924 60.1846L7.56592 60.5728C7.46012 60.7225 7.31689 60.8397 7.13623 60.9243C6.95557 61.0073 6.75537 61.0488 6.53564 61.0488ZM6.45508 58.8809C6.3151 58.8809 6.20117 58.9281 6.11328 59.0225C6.02702 59.1169 5.97168 59.252 5.94727 59.4277H6.92871V59.3716C6.92546 59.2153 6.88314 59.0949 6.80176 59.0103C6.72038 58.924 6.60482 58.8809 6.45508 58.8809ZM9.55566 61C9.52311 60.9365 9.49951 60.8576 9.48486 60.7632C9.31396 60.9536 9.0918 61.0488 8.81836 61.0488C8.55957 61.0488 8.34473 60.974 8.17383 60.8242C8.00456 60.6745 7.91992 60.4857 7.91992 60.2578C7.91992 59.9779 8.02327 59.763 8.22998 59.6133C8.43831 59.4635 8.73861 59.3879 9.13086 59.3862H9.45557V59.2349C9.45557 59.1128 9.42383 59.0151 9.36035 58.9419C9.2985 58.8687 9.20003 58.832 9.06494 58.832C8.94613 58.832 8.85254 58.8605 8.78418 58.9175C8.71745 58.9744 8.68408 59.0526 8.68408 59.1519H7.97852C7.97852 58.9989 8.02572 58.8573 8.12012 58.7271C8.21452 58.5968 8.34798 58.4951 8.52051 58.4219C8.69303 58.347 8.88672 58.3096 9.10156 58.3096C9.42708 58.3096 9.68506 58.3918 9.87549 58.5562C10.0675 58.7189 10.1636 58.9484 10.1636 59.2446V60.3896C10.1652 60.6403 10.2002 60.8299 10.2686 60.9585V61H9.55566ZM8.97217 60.5093C9.07633 60.5093 9.17236 60.4865 9.26025 60.4409C9.34814 60.3937 9.41325 60.3311 9.45557 60.2529V59.7988H9.19189C8.8387 59.7988 8.65072 59.9209 8.62793 60.165L8.62549 60.2065C8.62549 60.2944 8.65641 60.3669 8.71826 60.4238C8.78011 60.4808 8.86475 60.5093 8.97217 60.5093ZM11.5503 57.709V58.3584H12.002V58.876H11.5503V60.1943C11.5503 60.292 11.569 60.362 11.6064 60.4043C11.6439 60.4466 11.7155 60.4678 11.8213 60.4678C11.8994 60.4678 11.9686 60.4621 12.0288 60.4507V60.9854C11.8905 61.0277 11.748 61.0488 11.6016 61.0488C11.1068 61.0488 10.8545 60.799 10.8447 60.2993V58.876H10.459V58.3584H10.8447V57.709H11.5503ZM13.6108 61.0488C13.2235 61.0488 12.9077 60.93 12.6636 60.6924C12.4211 60.4548 12.2998 60.1382 12.2998 59.7427V59.6743C12.2998 59.409 12.3511 59.1722 12.4536 58.9639C12.5562 58.7539 12.701 58.5928 12.8882 58.4805C13.077 58.3665 13.2918 58.3096 13.5327 58.3096C13.894 58.3096 14.1781 58.4235 14.3848 58.6514C14.5931 58.8792 14.6973 59.2023 14.6973 59.6206V59.9087H13.0151C13.0379 60.0812 13.1063 60.2196 13.2202 60.3237C13.3358 60.4279 13.4814 60.48 13.6572 60.48C13.929 60.48 14.1414 60.3815 14.2944 60.1846L14.6411 60.5728C14.5353 60.7225 14.3921 60.8397 14.2114 60.9243C14.0308 61.0073 13.8306 61.0488 13.6108 61.0488ZM13.5303 58.8809C13.3903 58.8809 13.2764 58.9281 13.1885 59.0225C13.1022 59.1169 13.0469 59.252 13.0225 59.4277H14.0039V59.3716C14.0007 59.2153 13.9583 59.0949 13.877 59.0103C13.7956 58.924 13.68 58.8809 13.5303 58.8809ZM14.9902 59.6597C14.9902 59.2479 15.0822 58.9199 15.2661 58.6758C15.4517 58.4316 15.7048 58.3096 16.0254 58.3096C16.2826 58.3096 16.495 58.4056 16.6626 58.5977V57.25H17.3706V61H16.7334L16.6992 60.7192C16.5234 60.939 16.2972 61.0488 16.0205 61.0488C15.7096 61.0488 15.4598 60.9268 15.271 60.6826C15.0838 60.4368 14.9902 60.0959 14.9902 59.6597ZM15.6958 59.7109C15.6958 59.9583 15.7389 60.1479 15.8252 60.2798C15.9115 60.4116 16.0368 60.4775 16.2012 60.4775C16.4193 60.4775 16.5731 60.3856 16.6626 60.2017V59.1592C16.5747 58.9753 16.4225 58.8833 16.2061 58.8833C15.8659 58.8833 15.6958 59.1592 15.6958 59.7109ZM21.543 59.7036C21.543 60.1268 21.4526 60.4572 21.272 60.6948C21.0913 60.9308 20.839 61.0488 20.5151 61.0488C20.2287 61.0488 20 60.939 19.8291 60.7192L19.7974 61H19.1626V57.25H19.8682V58.5952C20.0309 58.4048 20.245 58.3096 20.5103 58.3096C20.8325 58.3096 21.0848 58.4284 21.2671 58.666C21.451 58.902 21.543 59.2349 21.543 59.6646V59.7036ZM20.8374 59.6523C20.8374 59.3854 20.7951 59.1909 20.7104 59.0688C20.6258 58.9451 20.4997 58.8833 20.332 58.8833C20.1074 58.8833 19.9528 58.9753 19.8682 59.1592V60.2017C19.9544 60.3872 20.1107 60.48 20.3369 60.48C20.5648 60.48 20.7145 60.3677 20.7861 60.1431C20.8203 60.0356 20.8374 59.8721 20.8374 59.6523ZM22.937 60.0015L23.4253 58.3584H24.1821L23.1201 61.4102L23.0615 61.5493C22.9036 61.8944 22.6432 62.0669 22.2803 62.0669C22.1777 62.0669 22.0736 62.0514 21.9678 62.0205V61.4858L22.0752 61.4883C22.2087 61.4883 22.3079 61.4679 22.373 61.4272C22.4398 61.3866 22.4919 61.319 22.5293 61.2246L22.6123 61.0073L21.687 58.3584H22.4463L22.937 60.0015ZM27.7588 60.2676H26.4746L26.2305 61H25.4517L26.7749 57.4453H27.4536L28.7842 61H28.0054L27.7588 60.2676ZM26.6724 59.6743H27.561L27.1143 58.3438L26.6724 59.6743ZM29.6021 58.3584L29.624 58.6636C29.8128 58.4276 30.0659 58.3096 30.3833 58.3096C30.6632 58.3096 30.8716 58.3918 31.0083 58.5562C31.145 58.7205 31.215 58.9663 31.2183 59.2935V61H30.5127V59.3105C30.5127 59.1608 30.4801 59.0526 30.415 58.9858C30.3499 58.9175 30.2417 58.8833 30.0903 58.8833C29.8918 58.8833 29.7428 58.9679 29.6436 59.1372V61H28.938V58.3584H29.6021ZM31.6455 59.6597C31.6455 59.2479 31.7375 58.9199 31.9214 58.6758C32.1069 58.4316 32.36 58.3096 32.6807 58.3096C32.9378 58.3096 33.1502 58.4056 33.3179 58.5977V57.25H34.0259V61H33.3887L33.3545 60.7192C33.1787 60.939 32.9525 61.0488 32.6758 61.0488C32.3649 61.0488 32.1151 60.9268 31.9263 60.6826C31.7391 60.4368 31.6455 60.0959 31.6455 59.6597ZM32.3511 59.7109C32.3511 59.9583 32.3942 60.1479 32.4805 60.2798C32.5667 60.4116 32.6921 60.4775 32.8564 60.4775C33.0745 60.4775 33.2284 60.3856 33.3179 60.2017V59.1592C33.23 58.9753 33.0778 58.8833 32.8613 58.8833C32.5212 58.8833 32.3511 59.1592 32.3511 59.7109ZM36.0571 59.02C35.9611 59.007 35.8765 59.0005 35.8032 59.0005C35.5363 59.0005 35.3613 59.0908 35.2783 59.2715V61H34.5728V58.3584H35.2393L35.2588 58.6733C35.4004 58.4308 35.5965 58.3096 35.8472 58.3096C35.9253 58.3096 35.9985 58.3201 36.0669 58.3413L36.0571 59.02ZM37.5659 61.0488C37.1785 61.0488 36.8628 60.93 36.6187 60.6924C36.3761 60.4548 36.2549 60.1382 36.2549 59.7427V59.6743C36.2549 59.409 36.3062 59.1722 36.4087 58.9639C36.5112 58.7539 36.6561 58.5928 36.8433 58.4805C37.0321 58.3665 37.2469 58.3096 37.4878 58.3096C37.8491 58.3096 38.1331 58.4235 38.3398 58.6514C38.5482 58.8792 38.6523 59.2023 38.6523 59.6206V59.9087H36.9702C36.993 60.0812 37.0614 60.2196 37.1753 60.3237C37.2909 60.4279 37.4365 60.48 37.6123 60.48C37.8841 60.48 38.0965 60.3815 38.2495 60.1846L38.5962 60.5728C38.4904 60.7225 38.3472 60.8397 38.1665 60.9243C37.9858 61.0073 37.7856 61.0488 37.5659 61.0488ZM37.4854 58.8809C37.3454 58.8809 37.2314 58.9281 37.1436 59.0225C37.0573 59.1169 37.002 59.252 36.9775 59.4277H37.959V59.3716C37.9557 59.2153 37.9134 59.0949 37.832 59.0103C37.7507 58.924 37.6351 58.8809 37.4854 58.8809ZM39.8022 58.3584V61.144C39.8022 61.4354 39.7249 61.6616 39.5703 61.8228C39.4157 61.9855 39.1927 62.0669 38.9014 62.0669C38.7793 62.0669 38.6629 62.0531 38.5522 62.0254V61.4663C38.6369 61.481 38.7109 61.4883 38.7744 61.4883C38.9876 61.4883 39.0942 61.3752 39.0942 61.1489V58.3584H39.8022ZM39.0381 57.6748C39.0381 57.569 39.0731 57.4819 39.1431 57.4136C39.2147 57.3452 39.3115 57.311 39.4336 57.311C39.5557 57.311 39.6517 57.3452 39.7217 57.4136C39.7933 57.4819 39.8291 57.569 39.8291 57.6748C39.8291 57.7822 39.7925 57.8701 39.7192 57.9385C39.6476 58.0068 39.5524 58.041 39.4336 58.041C39.3148 58.041 39.2188 58.0068 39.1455 57.9385C39.0739 57.8701 39.0381 57.7822 39.0381 57.6748ZM41.7847 60.27C41.7847 60.1838 41.7415 60.1162 41.6553 60.0674C41.5706 60.0169 41.4339 59.9722 41.2451 59.9331C40.6169 59.8013 40.3027 59.5343 40.3027 59.1323C40.3027 58.8979 40.3996 58.7026 40.5933 58.5464C40.7886 58.3885 41.0433 58.3096 41.3574 58.3096C41.6927 58.3096 41.9604 58.3885 42.1606 58.5464C42.3625 58.7043 42.4634 58.9093 42.4634 59.1616H41.7578C41.7578 59.0607 41.7253 58.9777 41.6602 58.9126C41.5951 58.8459 41.4933 58.8125 41.355 58.8125C41.2362 58.8125 41.1442 58.8394 41.0791 58.8931C41.014 58.9468 40.9814 59.0151 40.9814 59.0981C40.9814 59.1763 41.0181 59.2397 41.0913 59.2886C41.1662 59.3358 41.2915 59.3773 41.4673 59.4131C41.6431 59.4473 41.7912 59.4863 41.9116 59.5303C42.2843 59.667 42.4707 59.9038 42.4707 60.2407C42.4707 60.4816 42.3674 60.6769 42.1606 60.8267C41.9539 60.9748 41.687 61.0488 41.3599 61.0488C41.1385 61.0488 40.9416 61.0098 40.769 60.9316C40.5981 60.8519 40.4639 60.7437 40.3662 60.6069C40.2686 60.4686 40.2197 60.3197 40.2197 60.1602H40.8887C40.8952 60.2855 40.9416 60.3815 41.0278 60.4482C41.1141 60.515 41.2297 60.5483 41.3745 60.5483C41.5096 60.5483 41.6113 60.5231 41.6797 60.4727C41.7497 60.4206 41.7847 60.353 41.7847 60.27ZM45.332 59.5742L44.9512 59.9844V61H44.2188V57.4453H44.9512V59.0566L45.2734 58.6147L46.1792 57.4453H47.0801L45.8179 59.0249L47.1167 61H46.2451L45.332 59.5742ZM48.0908 61H47.3828V58.3584H48.0908V61ZM47.3413 57.6748C47.3413 57.569 47.3763 57.4819 47.4463 57.4136C47.5179 57.3452 47.6147 57.311 47.7368 57.311C47.8573 57.311 47.9533 57.3452 48.0249 57.4136C48.0965 57.4819 48.1323 57.569 48.1323 57.6748C48.1323 57.7822 48.0957 57.8701 48.0225 57.9385C47.9508 58.0068 47.8556 58.041 47.7368 58.041C47.618 58.041 47.522 58.0068 47.4487 57.9385C47.3771 57.8701 47.3413 57.7822 47.3413 57.6748ZM50.1587 59.02C50.0627 59.007 49.978 59.0005 49.9048 59.0005C49.6379 59.0005 49.4629 59.0908 49.3799 59.2715V61H48.6743V58.3584H49.3408L49.3604 58.6733C49.502 58.4308 49.6981 58.3096 49.9487 58.3096C50.0269 58.3096 50.1001 58.3201 50.1685 58.3413L50.1587 59.02ZM51.1621 58.3584L51.1841 58.6538C51.3713 58.4243 51.6243 58.3096 51.9434 58.3096C52.2835 58.3096 52.5171 58.4438 52.644 58.7124C52.8296 58.4438 53.0941 58.3096 53.4375 58.3096C53.724 58.3096 53.9372 58.3934 54.0771 58.561C54.2171 58.7271 54.2871 58.9777 54.2871 59.313V61H53.5791V59.3154C53.5791 59.1657 53.5498 59.0566 53.4912 58.9883C53.4326 58.9183 53.3293 58.8833 53.1812 58.8833C52.9696 58.8833 52.8231 58.9842 52.7417 59.186L52.7441 61H52.0386V59.3179C52.0386 59.1649 52.0085 59.0542 51.9482 58.9858C51.888 58.9175 51.7855 58.8833 51.6406 58.8833C51.4404 58.8833 51.2956 58.9663 51.2061 59.1323V61H50.5005V58.3584H51.1621ZM56.3623 61C56.3298 60.9365 56.3062 60.8576 56.2915 60.7632C56.1206 60.9536 55.8984 61.0488 55.625 61.0488C55.3662 61.0488 55.1514 60.974 54.9805 60.8242C54.8112 60.6745 54.7266 60.4857 54.7266 60.2578C54.7266 59.9779 54.8299 59.763 55.0366 59.6133C55.245 59.4635 55.5452 59.3879 55.9375 59.3862H56.2622V59.2349C56.2622 59.1128 56.2305 59.0151 56.167 58.9419C56.1051 58.8687 56.0067 58.832 55.8716 58.832C55.7528 58.832 55.6592 58.8605 55.5908 58.9175C55.5241 58.9744 55.4907 59.0526 55.4907 59.1519H54.7852C54.7852 58.9989 54.8324 58.8573 54.9268 58.7271C55.0212 58.5968 55.1546 58.4951 55.3271 58.4219C55.4997 58.347 55.6934 58.3096 55.9082 58.3096C56.2337 58.3096 56.4917 58.3918 56.6821 58.5562C56.8742 58.7189 56.9702 58.9484 56.9702 59.2446V60.3896C56.9718 60.6403 57.0068 60.8299 57.0752 60.9585V61H56.3623ZM55.7788 60.5093C55.883 60.5093 55.979 60.4865 56.0669 60.4409C56.1548 60.3937 56.2199 60.3311 56.2622 60.2529V59.7988H55.9985C55.6453 59.7988 55.4574 59.9209 55.4346 60.165L55.4321 60.2065C55.4321 60.2944 55.4631 60.3669 55.5249 60.4238C55.5868 60.4808 55.6714 60.5093 55.7788 60.5093Z" fill="url(#paint1_linear)"/>
</g>
<defs>
<linearGradient id="paint0_linear" x1="34" y1="0" x2="34" y2="46.0036" gradientUnits="userSpaceOnUse">
<stop stop-color="#FF7A46"/>
<stop offset="1" stop-color="#FD387C"/>
</linearGradient>
<linearGradient id="paint1_linear" x1="29" y1="56" x2="29" y2="62" gradientUnits="userSpaceOnUse">
<stop stop-color="#FF7A46"/>
<stop offset="1" stop-color="#FD387C"/>
</linearGradient>
<clipPath id="clip0">
<rect width="68" height="57.5" fill="white"/>
</clipPath>
</defs>
</svg>
