<svg width="37" height="31" viewBox="0 0 37 31" fill="none" xmlns="http://www.w3.org/2000/svg">
<path fill-rule="evenodd" clip-rule="evenodd" d="M11.6842 24.0791L17.5263 18.8301C16.8798 18.7625 16.2297 18.7268 15.5789 18.723C10.3795 18.723 0 21.1154 0 25.8645V29.4352H17.5263L11.6842 24.0791ZM15.5789 15.1523C19.8826 15.1523 23.3684 11.9565 23.3684 8.01084C23.3684 4.06519 19.8826 0.869385 15.5789 0.869385C11.2753 0.869385 7.78947 4.06519 7.78947 8.01084C7.78947 11.9565 11.2753 15.1523 15.5789 15.1523ZM24.2837 30.3279L17.5263 24.0791L20.2526 21.5617L24.2837 25.2753L34.2737 16.045L37 18.5623L24.2837 30.3279Z" fill="black"/>
<path fill-rule="evenodd" clip-rule="evenodd" d="M11.6842 24.0791L17.5263 18.8301C16.8798 18.7625 16.2297 18.7268 15.5789 18.723C10.3795 18.723 0 21.1154 0 25.8645V29.4352H17.5263L11.6842 24.0791ZM15.5789 15.1523C19.8826 15.1523 23.3684 11.9565 23.3684 8.01084C23.3684 4.06519 19.8826 0.869385 15.5789 0.869385C11.2753 0.869385 7.78947 4.06519 7.78947 8.01084C7.78947 11.9565 11.2753 15.1523 15.5789 15.1523ZM24.2837 30.3279L17.5263 24.0791L20.2526 21.5617L24.2837 25.2753L34.2737 16.045L37 18.5623L24.2837 30.3279Z" fill="url(#paint0_linear)"/>
<defs>
<linearGradient id="paint0_linear" x1="18.5" y1="0.869385" x2="18.5" y2="30.3279" gradientUnits="userSpaceOnUse">
<stop stop-color="#FF7A46"/>
<stop offset="1" stop-color="#FD387C"/>
</linearGradient>
</defs>
</svg>
