<svg width="49" height="49" viewBox="0 0 49 49" fill="none" xmlns="http://www.w3.org/2000/svg">
<path d="M8.16659 36.75V42.875H14.2916V36.75H34.7083V42.875H40.8333V30.625H8.16659V36.75ZM38.7916 20.4167H44.9166V26.5417H38.7916V20.4167ZM4.08325 20.4167H10.2083V26.5417H4.08325V20.4167ZM34.7083 26.5417H14.2916V10.2083C14.2916 7.9625 16.1291 6.125 18.3749 6.125H30.6249C32.8708 6.125 34.7083 7.9625 34.7083 10.2083V26.5417Z" fill="black"/>
<path d="M8.16659 36.75V42.875H14.2916V36.75H34.7083V42.875H40.8333V30.625H8.16659V36.75ZM38.7916 20.4167H44.9166V26.5417H38.7916V20.4167ZM4.08325 20.4167H10.2083V26.5417H4.08325V20.4167ZM34.7083 26.5417H14.2916V10.2083C14.2916 7.9625 16.1291 6.125 18.3749 6.125H30.6249C32.8708 6.125 34.7083 7.9625 34.7083 10.2083V26.5417Z" fill="url(#paint0_linear)"/>
<defs>
<linearGradient id="paint0_linear" x1="24.4999" y1="6.125" x2="24.4999" y2="42.875" gradientUnits="userSpaceOnUse">
<stop stop-color="#FF7A46"/>
<stop offset="1" stop-color="#FD387C"/>
</linearGradient>
</defs>
</svg>
