<svg width="52" height="52" viewBox="0 0 52 52" fill="none" xmlns="http://www.w3.org/2000/svg">
<path d="M16.4451 11.7217C14.7551 10.0317 14.7551 7.28001 16.4451 5.59001C18.1351 3.90001 20.8867 3.90001 22.5767 5.59001C24.2667 7.28001 24.2667 10.0317 22.5767 11.7217C20.8651 13.4333 18.1351 13.4333 16.4451 11.7217ZM13.0001 34.6667V15.1667H8.66675V34.6667C8.66675 40.6467 13.5201 45.5 19.5001 45.5H32.5001V41.1667H19.5001C15.9034 41.1667 13.0001 38.2633 13.0001 34.6667ZM43.3334 43.485L32.3484 32.5H24.9167V24.5267C27.9501 27.0183 32.7167 29.2067 36.8334 29.2067V24.5267C33.2367 24.57 29.0117 22.6417 26.7151 20.1067L23.6817 16.7483C23.2701 16.2933 22.7501 15.925 22.1867 15.665C21.5584 15.3617 20.8434 15.1667 20.1067 15.1667H20.0417C17.3551 15.1667 15.1667 17.355 15.1667 20.0417V32.5C15.1667 36.0967 18.0701 39 21.6667 39H32.6517L40.2351 46.5833L43.3334 43.485Z" fill="black"/>
<path d="M16.4451 11.7217C14.7551 10.0317 14.7551 7.28001 16.4451 5.59001C18.1351 3.90001 20.8867 3.90001 22.5767 5.59001C24.2667 7.28001 24.2667 10.0317 22.5767 11.7217C20.8651 13.4333 18.1351 13.4333 16.4451 11.7217ZM13.0001 34.6667V15.1667H8.66675V34.6667C8.66675 40.6467 13.5201 45.5 19.5001 45.5H32.5001V41.1667H19.5001C15.9034 41.1667 13.0001 38.2633 13.0001 34.6667ZM43.3334 43.485L32.3484 32.5H24.9167V24.5267C27.9501 27.0183 32.7167 29.2067 36.8334 29.2067V24.5267C33.2367 24.57 29.0117 22.6417 26.7151 20.1067L23.6817 16.7483C23.2701 16.2933 22.7501 15.925 22.1867 15.665C21.5584 15.3617 20.8434 15.1667 20.1067 15.1667H20.0417C17.3551 15.1667 15.1667 17.355 15.1667 20.0417V32.5C15.1667 36.0967 18.0701 39 21.6667 39H32.6517L40.2351 46.5833L43.3334 43.485Z" fill="url(#paint0_linear)"/>
<defs>
<linearGradient id="paint0_linear" x1="26.0001" y1="4.32251" x2="26.0001" y2="46.5833" gradientUnits="userSpaceOnUse">
<stop stop-color="#FF7A46"/>
<stop offset="1" stop-color="#FD387C"/>
</linearGradient>
</defs>
</svg>
