<svg width="70" height="87" viewBox="0 0 70 87" fill="none" xmlns="http://www.w3.org/2000/svg">
<path d="M48.8469 20.2905C47.5631 19.8012 44.9325 17.968 43.2966 17.0952C41.66 16.2252 39.2884 15.7923 36.6963 16.9817C36.0614 17.2727 35.3859 17.6248 34.6901 18.0174L33.5085 16.8606C33.4441 16.7799 31.8747 14.8923 29.2784 15.5563C28.0947 15.8591 27.0328 16.45 26.0052 17.0193C25.14 17.4995 24.3224 17.954 23.5342 18.1754C23.2332 18.2575 22.9511 18.3431 22.6858 18.4211C21.3348 18.8185 20.5193 19.0551 19.4644 18.8533C18.4382 18.657 17.9909 18.4948 17.9909 18.4948C17.5506 18.3243 17.0501 18.5094 16.8275 18.9222L8.49537 34.4924C8.33157 34.7965 8.35257 35.1696 8.54997 35.4536C8.61367 35.544 10.1201 37.7142 11.4998 38.9489C13.87 41.0696 15.2231 41.8115 15.2791 41.8415L15.34 41.8839C14.9312 42.8868 15.1356 44.0805 15.9532 44.8969C16.922 45.8588 18.42 45.9639 19.5099 45.2226C18.4277 46.3578 18.4396 48.1465 19.5575 49.2566C20.695 50.3897 22.5395 50.3897 23.6763 49.2566L23.8254 49.1084C22.9091 50.2505 22.9693 51.9133 24.0326 52.9719C25.1729 54.1057 27.0237 54.1057 28.1661 52.9719L29.7425 51.4045C28.9277 52.4555 28.9935 53.9595 29.9623 54.9221C31.0123 55.9682 32.7168 55.9682 33.7689 54.9221L35.85 52.8522L38.832 55.1288C38.9237 55.2088 39.7112 55.8937 40.8991 55.8937C40.9621 55.8937 41.0237 55.8902 41.086 55.8839C42.0758 55.8269 42.9977 55.3091 43.8307 54.3514C44.5762 53.4918 44.866 52.5786 44.9052 51.7483C45.314 51.9105 45.8635 52.0831 46.5012 52.0831C47.2978 52.0831 48.2253 51.8151 49.1479 50.9256C49.9123 50.19 50.2189 49.3617 50.2672 48.562C50.802 48.8126 51.4565 49.0012 52.1908 49.0012C52.9552 49.0012 53.8008 48.8015 54.673 48.2621C55.877 47.5215 56.5959 46.6299 56.8094 45.6075C57.1706 44.212 56.2375 42.5841 55.6145 41.6995C56.2816 41.1482 57.0789 40.4432 57.7845 39.6915C59.9559 37.3703 60.8799 35.3325 60.8799 35.3325L52.468 19.4198C52.468 19.4198 50.3652 20.8717 48.8469 20.2905ZM55.0895 45.0229C54.9768 45.5101 54.4182 46.2346 53.6895 46.6835C51.9346 47.7644 50.6221 46.6369 50.494 46.5172L47.6303 43.729L47.6233 43.736L43.8034 39.6929C43.4499 39.3191 42.8563 39.3017 42.4811 39.6518C42.1052 40.0012 42.0884 40.5921 42.4398 40.9638L47.8326 46.6752C48.0167 46.9264 49.0226 48.459 47.8459 49.5935C46.8883 50.5129 46.112 50.2686 45.2657 49.8803C45.0095 49.7626 44.4768 49.3061 43.9602 48.8056L38.9552 43.5056C38.6017 43.1304 38.0088 43.1137 37.6336 43.4638C37.2556 43.8125 37.2395 44.4034 37.5909 44.7807L41.9141 49.3513C41.9344 49.3791 41.9435 49.4132 41.968 49.4397C42.0716 49.5517 42.3488 49.8434 42.6974 50.1795L42.7331 50.2171L42.6904 50.245C42.6988 50.2589 43.6382 51.724 42.4125 53.1375C41.2169 54.5156 40.3223 53.9512 40.078 53.7431L37.0659 51.4212C37.5559 50.4238 37.3956 49.1884 36.5605 48.3588C35.5938 47.3983 34.0818 47.3315 33.0269 48.1361L33.9817 47.1867C35.1213 46.0516 35.1213 44.2127 33.9817 43.0762C32.84 41.9417 30.9885 41.9417 29.8461 43.0762L28.4524 44.4619C29.3575 43.3253 29.2966 41.6744 28.2396 40.6228C27.1021 39.4966 25.2569 39.4966 24.1222 40.6228L22.6193 42.1178C23.0946 41.0898 22.9154 39.8398 22.0642 38.9941C20.9708 37.9063 19.1998 37.9063 18.1071 38.9941L16.5426 40.4237L16.173 40.2072C16.1611 40.201 14.9578 39.5377 12.7472 37.5645C11.8855 36.7927 10.9111 35.5266 10.4162 34.8529L18.1211 20.4638C18.3822 20.5292 18.7098 20.6023 19.113 20.6789C20.6138 20.9649 21.7618 20.6281 23.2143 20.2014C23.474 20.1256 23.747 20.0462 24.0396 19.9655C25.0406 19.6836 25.994 19.1546 26.9173 18.641C27.8399 18.1301 28.7947 17.5998 29.7446 17.3548C31.1572 16.9956 32.0252 17.9937 32.0616 18.0348L33.0059 19.0203C28.4223 21.8774 23.6119 25.8098 23.6119 25.8098C23.6119 25.8098 21.0989 27.5512 22.501 29.5278C23.9591 31.5803 26.0066 30.164 26.0066 30.164L34.7678 25.4019C34.7678 25.4019 36.214 24.8521 36.9875 24.937C38.0396 25.0539 38.6815 25.7499 38.6815 25.7499L53.7392 42.3593C54.5715 43.2348 55.2001 44.5461 55.0895 45.0229Z" fill="black"/>
<path d="M48.8469 20.2905C47.5631 19.8012 44.9325 17.968 43.2966 17.0952C41.66 16.2252 39.2884 15.7923 36.6963 16.9817C36.0614 17.2727 35.3859 17.6248 34.6901 18.0174L33.5085 16.8606C33.4441 16.7799 31.8747 14.8923 29.2784 15.5563C28.0947 15.8591 27.0328 16.45 26.0052 17.0193C25.14 17.4995 24.3224 17.954 23.5342 18.1754C23.2332 18.2575 22.9511 18.3431 22.6858 18.4211C21.3348 18.8185 20.5193 19.0551 19.4644 18.8533C18.4382 18.657 17.9909 18.4948 17.9909 18.4948C17.5506 18.3243 17.0501 18.5094 16.8275 18.9222L8.49537 34.4924C8.33157 34.7965 8.35257 35.1696 8.54997 35.4536C8.61367 35.544 10.1201 37.7142 11.4998 38.9489C13.87 41.0696 15.2231 41.8115 15.2791 41.8415L15.34 41.8839C14.9312 42.8868 15.1356 44.0805 15.9532 44.8969C16.922 45.8588 18.42 45.9639 19.5099 45.2226C18.4277 46.3578 18.4396 48.1465 19.5575 49.2566C20.695 50.3897 22.5395 50.3897 23.6763 49.2566L23.8254 49.1084C22.9091 50.2505 22.9693 51.9133 24.0326 52.9719C25.1729 54.1057 27.0237 54.1057 28.1661 52.9719L29.7425 51.4045C28.9277 52.4555 28.9935 53.9595 29.9623 54.9221C31.0123 55.9682 32.7168 55.9682 33.7689 54.9221L35.85 52.8522L38.832 55.1288C38.9237 55.2088 39.7112 55.8937 40.8991 55.8937C40.9621 55.8937 41.0237 55.8902 41.086 55.8839C42.0758 55.8269 42.9977 55.3091 43.8307 54.3514C44.5762 53.4918 44.866 52.5786 44.9052 51.7483C45.314 51.9105 45.8635 52.0831 46.5012 52.0831C47.2978 52.0831 48.2253 51.8151 49.1479 50.9256C49.9123 50.19 50.2189 49.3617 50.2672 48.562C50.802 48.8126 51.4565 49.0012 52.1908 49.0012C52.9552 49.0012 53.8008 48.8015 54.673 48.2621C55.877 47.5215 56.5959 46.6299 56.8094 45.6075C57.1706 44.212 56.2375 42.5841 55.6145 41.6995C56.2816 41.1482 57.0789 40.4432 57.7845 39.6915C59.9559 37.3703 60.8799 35.3325 60.8799 35.3325L52.468 19.4198C52.468 19.4198 50.3652 20.8717 48.8469 20.2905ZM55.0895 45.0229C54.9768 45.5101 54.4182 46.2346 53.6895 46.6835C51.9346 47.7644 50.6221 46.6369 50.494 46.5172L47.6303 43.729L47.6233 43.736L43.8034 39.6929C43.4499 39.3191 42.8563 39.3017 42.4811 39.6518C42.1052 40.0012 42.0884 40.5921 42.4398 40.9638L47.8326 46.6752C48.0167 46.9264 49.0226 48.459 47.8459 49.5935C46.8883 50.5129 46.112 50.2686 45.2657 49.8803C45.0095 49.7626 44.4768 49.3061 43.9602 48.8056L38.9552 43.5056C38.6017 43.1304 38.0088 43.1137 37.6336 43.4638C37.2556 43.8125 37.2395 44.4034 37.5909 44.7807L41.9141 49.3513C41.9344 49.3791 41.9435 49.4132 41.968 49.4397C42.0716 49.5517 42.3488 49.8434 42.6974 50.1795L42.7331 50.2171L42.6904 50.245C42.6988 50.2589 43.6382 51.724 42.4125 53.1375C41.2169 54.5156 40.3223 53.9512 40.078 53.7431L37.0659 51.4212C37.5559 50.4238 37.3956 49.1884 36.5605 48.3588C35.5938 47.3983 34.0818 47.3315 33.0269 48.1361L33.9817 47.1867C35.1213 46.0516 35.1213 44.2127 33.9817 43.0762C32.84 41.9417 30.9885 41.9417 29.8461 43.0762L28.4524 44.4619C29.3575 43.3253 29.2966 41.6744 28.2396 40.6228C27.1021 39.4966 25.2569 39.4966 24.1222 40.6228L22.6193 42.1178C23.0946 41.0898 22.9154 39.8398 22.0642 38.9941C20.9708 37.9063 19.1998 37.9063 18.1071 38.9941L16.5426 40.4237L16.173 40.2072C16.1611 40.201 14.9578 39.5377 12.7472 37.5645C11.8855 36.7927 10.9111 35.5266 10.4162 34.8529L18.1211 20.4638C18.3822 20.5292 18.7098 20.6023 19.113 20.6789C20.6138 20.9649 21.7618 20.6281 23.2143 20.2014C23.474 20.1256 23.747 20.0462 24.0396 19.9655C25.0406 19.6836 25.994 19.1546 26.9173 18.641C27.8399 18.1301 28.7947 17.5998 29.7446 17.3548C31.1572 16.9956 32.0252 17.9937 32.0616 18.0348L33.0059 19.0203C28.4223 21.8774 23.6119 25.8098 23.6119 25.8098C23.6119 25.8098 21.0989 27.5512 22.501 29.5278C23.9591 31.5803 26.0066 30.164 26.0066 30.164L34.7678 25.4019C34.7678 25.4019 36.214 24.8521 36.9875 24.937C38.0396 25.0539 38.6815 25.7499 38.6815 25.7499L53.7392 42.3593C54.5715 43.2348 55.2001 44.5461 55.0895 45.0229Z" fill="url(#paint0_linear)"/>
<path d="M69.1879 32.3543L59.9115 15.1603C59.6658 14.7065 59.1002 14.5374 58.6452 14.7796L55.0584 16.6623C54.6041 16.9052 54.4326 17.4697 54.6762 17.9214L63.9554 35.1161C64.1997 35.5705 64.766 35.739 65.2217 35.4982L68.8071 33.6148C69.2614 33.3705 69.4329 32.8074 69.1879 32.3543Z" fill="black"/>
<path d="M69.1879 32.3543L59.9115 15.1603C59.6658 14.7065 59.1002 14.5374 58.6452 14.7796L55.0584 16.6623C54.6041 16.9052 54.4326 17.4697 54.6762 17.9214L63.9554 35.1161C64.1997 35.5705 64.766 35.739 65.2217 35.4982L68.8071 33.6148C69.2614 33.3705 69.4329 32.8074 69.1879 32.3543Z" fill="url(#paint1_linear)"/>
<path d="M14.8016 15.7185L11.2267 13.8129C10.7703 13.5749 10.204 13.7489 9.96323 14.2019L0.808631 31.4627C0.567131 31.9172 0.742831 32.4782 1.19853 32.7197L4.77343 34.624C5.23053 34.8627 5.79543 34.688 6.03623 34.2328L15.1915 16.9755C15.433 16.5196 15.258 15.9587 14.8016 15.7185Z" fill="black"/>
<path d="M14.8016 15.7185L11.2267 13.8129C10.7703 13.5749 10.204 13.7489 9.96323 14.2019L0.808631 31.4627C0.567131 31.9172 0.742831 32.4782 1.19853 32.7197L4.77343 34.624C5.23053 34.8627 5.79543 34.688 6.03623 34.2328L15.1915 16.9755C15.433 16.5196 15.258 15.9587 14.8016 15.7185Z" fill="url(#paint2_linear)"/>
<defs>
<linearGradient id="paint0_linear" x1="34.6328" y1="15.415" x2="34.6328" y2="55.8937" gradientUnits="userSpaceOnUse">
<stop stop-color="#FF7A46"/>
<stop offset="1" stop-color="#FD387C"/>
</linearGradient>
<linearGradient id="paint1_linear" x1="61.9326" y1="14.6692" x2="61.9326" y2="35.6078" gradientUnits="userSpaceOnUse">
<stop stop-color="#FF7A46"/>
<stop offset="1" stop-color="#FD387C"/>
</linearGradient>
<linearGradient id="paint2_linear" x1="8.00015" y1="13.7063" x2="8.00015" y2="34.7308" gradientUnits="userSpaceOnUse">
<stop stop-color="#FF7A46"/>
<stop offset="1" stop-color="#FD387C"/>
</linearGradient>
</defs>
</svg>
