<svg xmlns="http://www.w3.org/2000/svg" xmlns:xlink="http://www.w3.org/1999/xlink" viewBox="0 0 4345.2 3051"><defs><style>.cls-1,.cls-15,.cls-24,.cls-25,.cls-26,.cls-30,.cls-31,.cls-32,.cls-33,.cls-35,.cls-36{fill:none;}.cls-2,.cls-5{fill:#3c2b66;}.cls-2{opacity:0.55;}.cls-3{fill:#573499;}.cls-4{clip-path:url(#clip-path);}.cls-20,.cls-6,.cls-7,.cls-9{fill:#fecc90;}.cls-6{opacity:0.2;}.cls-7{opacity:0.25;}.cls-8{fill:#ffe6ca;}.cls-10{fill:#2c224c;}.cls-11{fill:#47357c;}.cls-12{fill:#5d4baa;}.cls-13,.cls-34{fill:#9dbeff;}.cls-14{fill:#fd387c;}.cls-15{stroke:#fd387c;}.cls-15,.cls-21,.cls-24,.cls-25,.cls-26,.cls-30,.cls-31,.cls-32,.cls-33,.cls-34,.cls-35,.cls-36{stroke-miterlimit:10;}.cls-16{fill:#7455ff;}.cls-17{fill:#ff7a46;}.cls-18{opacity:0.85;}.cls-19{fill:#b3d0ff;}.cls-20{opacity:0.5;}.cls-21,.cls-22{fill:#fff;}.cls-21,.cls-24,.cls-25{stroke:#573499;}.cls-21,.cls-24,.cls-34{stroke-width:5px;}.cls-23{fill:#d8423a;}.cls-25{stroke-width:8.5px;}.cls-26{stroke:#fff;stroke-width:3px;}.cls-27{fill:#e2af79;}.cls-28{fill:#2952a7;}.cls-29{fill:#fddcbe;}.cls-30{stroke:#3c2b66;stroke-width:9px;}.cls-31{stroke:#a32659;stroke-width:8px;}.cls-32,.cls-33{stroke:#fecc90;}.cls-32{stroke-width:14px;}.cls-33{stroke-width:60px;}.cls-34{stroke:#9dbeff;}.cls-35{stroke:#7455ff;stroke-width:10px;}.cls-36{stroke:#ff7a46;stroke-width:14.17px;}</style><clipPath id="clip-path"><path class="cls-1" d="M1414.67,792.27s-456.26-154.1-774.41,517.31c0,0-108,248.77-311.23,265q-10.3.83-20.91.84c-179.74,0-361.88,435.08-74.05,793,47.58,59.17,108,116.23,183.4,168.86a1073.52,1073.52,0,0,1,103.35,82.13c127,114.27,511.8,391.28,1003.57,95.82,0,0,235.82-153.88,684.5,188.75,0,0,472,363,1039-125.37A986.51,986.51,0,0,0,3423.14,2580c49-73.17,146.49-190,300.39-254.57,64.7-27.14,123.82-66,175.23-113.74,220.1-204.39,442-771.15,159.91-1010.31-65.54-55.57-114.83-127.9-140.47-209.92-22.1-70.68-38.74-163.59-35.19-279.7q.38-12.37,1.74-25c35-321.09-325.15-244.9-325.15-244.9s-161,6.59-180.15-157.68c-5.7-49-29-94.45-66.6-126.35-91.29-77.37-294.65-151.82-705.6,68.85-118.66,63.72-229.85,140.41-332.32,227.81C2124,583.24,1766.93,845.44,1414.67,792.27Z"/></clipPath></defs><title>Prancheta 1 copy</title><g id="Camada_2" data-name="Camada 2"><path class="cls-2" d="M1538.38,726S1082.12,571.92,764,1243.33c0,0-108,248.76-311.23,265q-10.31.83-20.91.83C222.38,1509.17,9.67,2100,541.18,2471a1071.88,1071.88,0,0,1,103.35,82.12c127,114.27,511.8,391.29,1003.57,95.82,0,0,235.82-153.87,684.5,188.76,0,0,472,363,1039-125.37a986.83,986.83,0,0,0,175.3-198.59c49-73.17,146.5-190,300.39-254.57,64.7-27.13,123.82-66,175.23-113.74,220.1-204.38,442-771.15,159.91-1010.3-65.54-55.58-114.83-127.9-140.47-209.92-22.09-70.68-38.74-163.59-35.19-279.7q.38-12.39,1.74-25c35-321.09-325.15-244.9-325.15-244.9s-161,6.58-180.15-157.69c-5.7-49-29-94.45-66.6-126.35-91.29-77.36-294.65-151.81-705.6,68.86C2612.3,224.2,2501.11,300.9,2398.64,388.3,2247.75,517,1890.64,779.19,1538.38,726Z"/><path class="cls-3" d="M918.16,2791.83a27.11,27.11,0,0,1-2.47-4,41.4,41.4,0,0,1-1.76-4,42,42,0,0,1-2.09-7.78,46,46,0,0,1,.06-15.08,45.19,45.19,0,0,1,4.9-14.25,41.12,41.12,0,0,1,4.54-6.66,39.57,39.57,0,0,1,3-3.15,27.72,27.72,0,0,1,3.68-3,27.88,27.88,0,0,1,2.14,4.21,39.61,39.61,0,0,1,1.48,4,44.23,44.23,0,0,1,1.67,7.74,49,49,0,0,1-.35,14.64,49.84,49.84,0,0,1-4.53,13.92,45.42,45.42,0,0,1-4.13,6.76c-.84,1.11-1.71,2.22-2.72,3.32A28.67,28.67,0,0,1,918.16,2791.83Z"/><g class="cls-4"><path class="cls-5" d="M1414.67,795.8S958.41,641.7,640.26,1313.11c0,0-108,248.77-311.23,265q-10.3.83-20.91.84c-179.74,0-361.88,435.08-74.05,793,47.58,59.17,108,116.23,183.4,168.86A1073.52,1073.52,0,0,1,520.82,2623c127,114.27,511.8,391.28,1003.57,95.82,0,0,235.82-153.88,684.5,188.75,0,0,472,363,1039-125.37a986.51,986.51,0,0,0,175.3-198.58c49-73.17,146.49-190,300.39-254.57,64.7-27.14,123.82-66,175.23-113.74,220.1-204.39,442-771.15,159.91-1010.31-65.54-55.57-114.83-127.9-140.47-209.92-22.1-70.68-38.74-163.59-35.19-279.7q.38-12.37,1.74-25c35-321.09-325.15-244.9-325.15-244.9s-161,6.59-180.15-157.69c-5.7-49-29-94.44-66.6-126.34-91.29-77.37-294.65-151.82-705.6,68.85C2488.59,294,2377.4,370.68,2274.93,458.08,2124,586.77,1766.93,849,1414.67,795.8Z"/><circle class="cls-6" cx="3033.29" cy="897.8" r="584.57"/><circle class="cls-7" cx="3033.29" cy="897.8" r="506.42"/><polygon class="cls-8" points="2439.7 487.86 2437.86 486.7 2447.22 471.89 2432.41 462.53 2433.57 460.69 2448.38 470.05 2457.74 455.24 2459.58 456.4 2450.22 471.21 2465.03 480.57 2463.87 482.41 2449.06 473.05 2439.7 487.86"/><polygon class="cls-8" points="726.8 1313.5 724.97 1312.34 734.33 1297.53 719.52 1288.17 720.68 1286.33 735.49 1295.69 744.85 1280.88 746.68 1282.04 737.33 1296.85 752.13 1306.21 750.98 1308.05 736.16 1298.69 726.8 1313.5"/><polygon class="cls-8" points="4063.36 1439.68 4061.52 1438.52 4070.88 1423.71 4056.07 1414.35 4057.23 1412.52 4072.04 1421.88 4081.4 1407.07 4083.24 1408.22 4073.88 1423.04 4088.69 1432.4 4087.53 1434.23 4072.72 1424.87 4063.36 1439.68"/><polygon class="cls-8" points="176.39 2114.15 174.55 2112.99 183.91 2098.18 169.1 2088.82 170.26 2086.99 185.07 2096.34 194.43 2081.53 196.27 2082.69 186.91 2097.51 201.72 2106.86 200.56 2108.7 185.75 2099.34 176.39 2114.15"/><polygon class="cls-8" points="3771.33 1226.29 3766.56 1225.03 3776.72 1186.51 3738.2 1176.35 3739.46 1171.58 3777.98 1181.74 3788.14 1143.22 3792.91 1144.48 3782.75 1183 3821.27 1193.16 3820.01 1197.93 3781.49 1187.77 3771.33 1226.29"/><polygon class="cls-8" points="3799.84 935.59 3796.7 934.76 3803.39 909.4 3778.03 902.71 3778.86 899.57 3804.22 906.26 3810.9 880.91 3814.05 881.74 3807.36 907.09 3832.71 913.78 3831.88 916.92 3806.53 910.23 3799.84 935.59"/><polygon class="cls-8" points="3637 588.03 3634.52 587.37 3639.81 567.33 3619.76 562.04 3620.42 559.56 3640.46 564.85 3645.75 544.8 3648.23 545.46 3642.95 565.5 3662.99 570.79 3662.33 573.27 3642.29 567.99 3637 588.03"/><polygon class="cls-8" points="2342.13 859.34 2337.91 858.23 2346.88 824.23 2312.88 815.26 2313.99 811.05 2347.99 820.02 2356.96 786.02 2361.18 787.13 2352.21 821.13 2386.21 830.1 2385.09 834.31 2351.09 825.34 2342.13 859.34"/><polygon class="cls-8" points="813.48 1563.76 809.26 1562.65 818.23 1528.65 784.23 1519.68 785.34 1515.46 819.34 1524.43 828.31 1490.43 832.53 1491.54 823.56 1525.54 857.56 1534.51 856.45 1538.73 822.45 1529.76 813.48 1563.76"/><polygon class="cls-8" points="1537.68 1118.21 1532.95 1118.97 1526.83 1080.82 1488.68 1086.94 1487.92 1082.21 1526.07 1076.09 1519.94 1037.94 1524.67 1037.18 1530.8 1075.33 1568.94 1069.21 1569.7 1073.93 1531.56 1080.06 1537.68 1118.21"/><polygon class="cls-8" points="390.36 1802.51 387.34 1803 383.43 1778.62 359.05 1782.54 358.57 1779.52 382.94 1775.6 379.03 1751.23 382.05 1750.74 385.96 1775.12 410.33 1771.2 410.82 1774.22 386.45 1778.14 390.36 1802.51"/><circle class="cls-9" cx="3031.56" cy="901.52" r="442.27"/><path class="cls-8" d="M3105.55,555.15c0,33.26-36.58,60.22-81.7,60.22s-107.55-15.69-107.55-49,62.44-71.5,107.55-71.5S3105.55,521.88,3105.55,555.15Z"/><ellipse class="cls-8" cx="3197.25" cy="588.03" rx="15.19" ry="18.79" transform="translate(1089.38 3062.91) rotate(-60)"/><ellipse class="cls-8" cx="2797.76" cy="1206.29" rx="15.19" ry="18.79" transform="translate(354.2 3026.07) rotate(-60)"/><ellipse class="cls-8" cx="2989.72" cy="1260.67" rx="39.32" ry="25.97"/><path class="cls-8" d="M3379.21,825.29c32.51,42.65,6.2,141.62-32.12,170.83-24.35,18.56-56.41,20.92-84.9,9.23a104.72,104.72,0,0,1-43.34-33.58c-32.5-42.65-27.79-100.9,10.52-130.1S3346.71,782.64,3379.21,825.29Z"/><path class="cls-8" d="M2712.82,1043.38s-34.75,38.49-18.91,62.38,33.9,44.19,58.31,36.74-10-35.42-10.79-51.89S2734.11,1030.46,2712.82,1043.38Z"/><path class="cls-10" d="M83.61,2258.62s424.37-428,714.75-473,928.28,299,1283.31,116.77,272.76-531.91,629.59-420c0,0,751.41,299.15,1282.84-182.77s454.52,97.28,454.52,97.28L3953.37,2528.16s-1081.56,835-2214.33,401.33S841.74,3198.6,83.61,2258.62Z"/><path class="cls-11" d="M139.68,2362.24C85.06,2314.49,8.17,2230.17,8.17,2230.17s225-56.56,348.86-19.28,143.61,153.47,143.61,153.47S337.68,2535.34,139.68,2362.24Z"/><path class="cls-12" d="M159.94,2278.14s125.1,57.77,340.7,86.22"/><path class="cls-11" d="M445.57,1848.27c30.36-51.28,86.92-126,86.92-126s79.47,173.22,68,278.86-102.37,139-102.37,139S335.5,2034.19,445.57,1848.27Z"/><path class="cls-12" d="M526.48,1833.62s36.58,197.19-28.4,306.5"/><path class="cls-11" d="M229.19,2137.73c-29-66.06-62.53-174.45-62.53-174.45s226.39,44.19,322.12,130.1,64.39,198.82,64.39,198.82S334.23,2377.21,229.19,2137.73Z"/><path class="cls-12" d="M279.08,2061.06s129.81,139.55,274.09,231.14"/><path class="cls-13" d="M1004.74,2501.1c37.7-77.4,82.91-205.06,82.91-205.06s-272.11,41.89-390.38,139.78-86.28,234-86.28,234S868,2781.69,1004.74,2501.1Z"/><path class="cls-3" d="M943.81,2418.48S833.65,2539.33,611,2669.85"/><path class="cls-14" d="M432.88,2269.26c-56.85-42.08-153.16-97.76-153.16-97.76s-7,226.05,54.25,336.28S510,2612.62,510,2612.62,639,2421.81,432.88,2269.26Z"/><path class="cls-3" d="M337.65,2290.54S388.57,2523,510,2612.62"/><path class="cls-13" d="M811.75,2346.25c1.23-85.6-12-219.6-12-219.6s-227.19,152.72-292.26,290.8,21.26,247.1,21.26,247.1S807.32,2656.56,811.75,2346.25Z"/><path class="cls-3" d="M713.43,2236s-77.61,212.45-193.15,379.14"/><path class="cls-11" d="M4257.77,1846c30.26-48.7,68.9-130.19,68.9-130.19s-183.11,9.21-268.13,66-73.1,149.16-73.1,149.16S4148.09,2022.53,4257.77,1846Z"/><path class="cls-12" d="M4223,1787.09s-81.21,72.55-237.6,143.84"/><path class="cls-11" d="M3907.89,1528.13c-34.8-31.75-94.8-75.2-94.8-75.2s-20.07,149.27,13,226.47,109.49,81.45,109.49,81.45S4034,1643.24,3907.89,1528.13Z"/><path class="cls-12" d="M3843.35,1535.74s17.88,157.49,92.25,225.11"/><path class="cls-11" d="M4138.27,1697c6.65-56.62,7-146.3,7-146.3s-160.92,85.68-213.44,172.72-2.75,165.15-2.75,165.15S4114.18,1902.21,4138.27,1697Z"/><path class="cls-15" d="M3191.29,1504.29s5.67,121,58.11,152.47,90.54,21,157.15,76.92,94.19,89.61,209.37,90.9S3766.84,1905,3766.84,1905s16.24,58.32,120,8.18l44.56-24.66c87.9-102.55,151.46-238,151.46-238"/><path class="cls-11" d="M2870.38,2845.12c-19.59-53.88-59.78-134.62-59.78-134.62s-105.91,149.66-113.81,251.59,72.1,149.65,72.1,149.65S2941.42,3040.46,2870.38,2845.12Z"/><path class="cls-12" d="M2802.62,2836s6.86,108.69-33.73,275.7"/><path class="cls-11" d="M2404.28,2923.81c-46.46,7.73-117.71,28.07-117.71,28.07s105,108,186.11,129.7,131.69-35.75,131.69-35.75S2572.72,2895.77,2404.28,2923.81Z"/><path class="cls-12" d="M2370.38,2979.25s134.88,83.26,234,66.58"/><path class="cls-11" d="M2679.37,2847c-40.41-40.21-110.71-95.89-110.71-95.89s-32.06,179.46,3.92,274.54,128.14,104.21,128.14,104.21S2825.87,2992.77,2679.37,2847Z"/><path class="cls-12" d="M2608.63,2861.87s65.78,135.5,92.09,268"/><path class="cls-13" d="M3071.58,2544.21c30.26-48.7,68.9-130.19,68.9-130.19s-183.11,9.21-268.13,66-73.11,149.16-73.11,149.16S2961.9,2720.77,3071.58,2544.21Z"/><path class="cls-3" d="M3036.85,2485.33s-81.21,72.55-237.61,143.84"/><path class="cls-13" d="M2721.7,2226.37c-34.8-31.75-94.81-75.2-94.81-75.2s-20.06,149.27,13,226.47,109.49,81.45,109.49,81.45S2847.82,2341.48,2721.7,2226.37Z"/><path class="cls-13" d="M2657.16,2234s17.88,157.49,92.25,225.11"/><path class="cls-13" d="M2952.08,2395.19c6.65-56.62,7-146.3,7-146.3s-160.92,85.68-213.44,172.73-2.75,165.14-2.75,165.14S2928,2600.45,2952.08,2395.19Z"/><path class="cls-3" d="M2896.67,2348.76s-65.89,135.45-153.79,238"/><path class="cls-16" d="M3949.61,1758.52c49.22-40.42,133.33-94.86,133.33-94.86s16.56,203-33.57,304.9-153.6,102.27-153.6,102.27S3771.17,1905.06,3949.61,1758.52Z"/><path class="cls-3" d="M3886.06,2101.94c.35-7.49,1.17-14.94,2.15-22.35s2.16-14.8,3.5-22.16c2.68-14.7,6-29.27,9.84-43.72a668.75,668.75,0,0,1,28.85-84.87c1.44-3.45,3-6.87,4.44-10.31s3-6.85,4.56-10.25q4.71-10.2,9.7-20.25c1.66-3.35,3.43-6.65,5.14-10s3.47-6.63,5.31-9.89l5.47-9.81,5.73-9.66c1-1.61,1.91-3.22,2.89-4.81l3-4.74c2-3.16,4-6.33,6.07-9.45,4.23-6.19,8.36-12.41,12.86-18.41,2.25-3,4.45-6,6.72-9s4.65-5.87,7-8.76c1.19-1.45,2.35-2.91,3.56-4.34l3.69-4.23c2.49-2.8,5-5.6,7.55-8.32-12.92,27-26.16,53.27-38.36,80-6.21,13.3-12.18,26.7-18.11,40.09-1.43,3.38-2.94,6.71-4.42,10.07s-2.87,6.73-4.31,10.1l-2.2,5-2.13,5.06-4.25,10.13q-16.87,40.59-32.68,81.77C3907.05,2046.39,3896.77,2074,3886.06,2101.94Z"/><path class="cls-17" d="M889.4,1941c-4.91-3.59-11.56-3.72-17.54-2.65-22.21,4-39.08,21.59-54.31,38.23-21.94,24-64.42,61.86-68.94,96.12-1.16,8.79,0,14.82,2.65,18.76a366.1,366.1,0,0,0-21.54,45c-11.83-24.71-22.83-49.84-33.45-75.07l-22.47-54.46c6.17-13.63,12.49-26.95,19.23-40,12,2.85,28.87-7.39,38.85-17.48,18.88-19.08,35.21-41.11,49.83-63.56,13.5-20.74,65.73-99.24,25.81-118.34-6.19-3-13.58-1.72-20,.71-23.76,9-38.8,32-52.2,53.63-19.32,31.12-58.5,81.89-56.39,120.77.38,7.14,1.81,12.44,3.95,16.3,0,.15-.12.29-.18.44a240.42,240.42,0,0,0-11.46,41.4l-20-48.49-45.63-108.92-2.07-4.83c8-11.64,15.48-23.55,22.67-35.61,12.7.58,28.48-11.08,37.7-22.06,18.35-21.84,33.76-46.59,47.31-71.64,12.52-23.14,61.08-110.81,17.13-127.61-6.81-2.6-14.53-.65-21.1,2.48-24.4,11.62-38.35,37.28-50.69,61.32-17.78,34.64-54.91,91.81-49.32,132.82,1.41,10.33,4.57,16.88,8.76,20.63-5,11.84-9.73,23.81-14,36-16.9-39.46-33.6-79-50.73-118.41,3.58-18.25,8-36,13.26-53.52.59-2,1.23-4,1.84-6,14.9,6.55,33.12-12.59,41.5-28.49,13.29-25.24,23.09-52.7,31-80C646.18,1523,675,1427.05,628.51,1420c-7.2-1.09-14.33,2.45-20.09,6.9-21.38,16.54-29.56,44.57-36.51,70.68-10,37.63-34.17,101.38-20,140.27a56.77,56.77,0,0,0,3.32,7.47c-1.09,4.86-2.1,9.74-3,14.66-2.86,16.18-4.62,32.74-4.14,49.18-12-27.59-24.31-55.08-37.06-82.39q-6.61-14.28-13.3-28.54c8.16-9.53,9.39-28.57,7-42.39-4.76-28.13-13.65-55.9-23.95-82.44-9.53-24.53-44.89-118.31-86.14-95.7-6.4,3.51-9.91,10.65-11.78,17.68-7,26.12,3.57,53.36,13.9,78.34,14.88,36,34.39,101.29,69.26,123.6,8.9,5.69,16,7.5,21.61,6.66l11.92,27.88,23,54.31,9.63,23.23A254.73,254.73,0,0,0,498.48,1683c-4.17-2.75-8.4-5.39-12.67-8a57.83,57.83,0,0,0-3.11-7.56c-18.37-37.09-81.16-63.62-115.3-82.34-23.7-13-49.63-26.43-76.35-22.38-7.19,1.09-14.68,3.81-18.86,9.78-27,38.54,62.38,83.93,85.72,96.07,25.26,13.15,51.89,25,79.33,32.82,17.28,4.91,43.71,4.94,49.26-10.36,1.87.94,3.75,1.86,5.61,2.81,15,7.61,29.57,15.83,44,24.85l9.1,22,43.13,103c-12.89-5.91-26-11.24-39.12-16.26.18-5.62-2.38-12.42-8.88-20.57-25.82-32.35-92.81-45-130.15-56-25.91-7.67-54.1-15.29-79.35-5.66-6.81,2.59-13.54,6.83-16.36,13.56-18.19,43.39,78.77,68.77,104.16,75.69,27.47,7.48,56,13.42,84.49,15.22,14.3.9,33.63-2.47,42-12.05,14.63,3.34,29.37,6.33,44.31,8.63l1.41,3.37c22.36,52.35,44.56,104.7,67.38,156.86-14-10.39-29.54-18.73-45.58-25.67l-.45-.17c-1.3-4.22-4.16-8.91-9.06-14.12-26.68-28.36-90.45-35.06-126.31-42.57-24.88-5.21-51.89-10.2-74.83.76-6.18,2.95-12.18,7.44-14.31,14-13.74,42.07,79.11,58.47,103.44,63,26.34,4.92,53.55,8.31,80.39,7.82,14.18-.26,33.21-5.37,39.46-16,16.2,4.76,32.25,10.16,48.52,15.93q12.51,28.55,25.3,57c11.38,25,23.3,49.75,36.23,74a366.57,366.57,0,0,0-47.71-15.58c-1-4.64-4.59-9.64-11.75-14.87-27.91-20.37-84.63-15.78-117.13-16.46-22.56-.48-46.93-.41-65.15,12.9-4.91,3.59-9.4,8.48-10.19,14.52-5.1,38.94,78.57,38.06,100.53,38,23.77,0,48.07-1.52,71.4-6.33,10.27-2.12,22.93-7.74,29-15.53l.87.1c16.74,1.87,33.58,3.73,50.74,4.38,5.48,10.24,11.11,20.39,17,30.4,20,34.09,42.72,66.75,69.12,96-30.75-40.61-55.53-84.76-77.42-130.37,11.26-12.77,21.46-26.12,31.57-39.4l.53-.7c9.84,1,22.64-4.31,31.26-10.28,19.59-13.55,37.44-30.09,53.87-47.28C862.7,2024.08,921.1,1964.15,889.4,1941Z"/><path class="cls-17" d="M1606.91,1206.84s112.9-48.89,94.54-219c0,0-37.29-78.51-53-86.52s-127.91-225.22,131.69-275c0,0,191.41-34.09,196.66,78.67,0,0,2.62,220.39-28.84,354.06,0,0-48.37,20.16-106.06,2.18,0,0-4.08,99.43,30,105s132.86-8.16,132.86-8.16-161.7,297.76-321.65,212.1S1606.91,1206.84,1606.91,1206.84Z"/><path class="cls-14" d="M1393.49,1504s-56.32-200.42-15-231.85,210-58.24,247.55-82.13l184.77,180s76.26-150.33,92-212.1c0,0,93.6-32.36,142.57-51.93a54.71,54.71,0,0,1,58.16,11.24c17.79,17.07,36.43,44,36.43,82.11,0,61.69-97.09,507.61-126.71,725.21a301.42,301.42,0,0,0,26.8,170.91c32.55,67.95,86.16,168.61,154.68,257C2311.25,2502.85,1921.4,2807,1921.4,2807l-419-90.56Z"/><g class="cls-18"><polygon class="cls-13" points="2121.54 1281.23 2147.87 1198.83 2161.31 1199.63 2125.05 1297.55 2121.54 1281.23"/><path class="cls-19" d="M2160.82,1017.68s66.93-11.79,99.7,35.55c0,0-37.75,36.87-50.8,21.68S2158.7,1045.38,2160.82,1017.68Z"/><path class="cls-13" d="M2149.28,1215.1,2125,1174.62a40.39,40.39,0,0,1-3.83-33.12l39.64-123.82s3.5,12.58,13.45,20.61c22.41,18.08,59.8,29.11,86.25,14.94l-41.92,122.12a40.43,40.43,0,0,1-25.54,25.26Z"/><path class="cls-20" d="M2120,1142.36s15-11.73,39.25-4.63c10.78,3.16,13.58,8,22.09,3.89,17.33-8.42,17.87,1.53,31.69,4.25s20.22-13.24,20.22-13.24l-15.95,46.65a32.08,32.08,0,0,1-20.24,20l-6.27,2.07a55.79,55.79,0,0,1-64.73-23.23l-2.35-3.73a32.09,32.09,0,0,1-4.36-23.09Z"/><path class="cls-20" d="M2217.25,1179.28a32.08,32.08,0,0,1-20.24,20l-6.27,2.07a55.79,55.79,0,0,1-64.73-23.23l-2.35-3.73a32.09,32.09,0,0,1-4.36-23.09l1.88-9.83s68.42,48.16,103.36,16.56Z"/></g><path class="cls-17" d="M1130.69,899.1,1295,974.27c28,31.47,19.23,89.16,19.23,89.16l80.41,54.19-43.7,29.72,14,61.18c33.21,90.9,0,106.63,0,106.63-10.49,26.23-134.6,66.43-134.6,66.43-26.23,31.47,22.72,143.23,22.72,143.23l69.34,1.87s43.42-15.34,0,42c-39.05,51.53-307.16,16-360.72,8.36-6-.86-9.29-1.37-9.29-1.37s-40.21,42,24.47-26.22,36.71-176.56,36.71-176.56c0-36.71-49-26.22-83.91-40.21s-17.48-54.19-17.48-54.19c-21,0-64.68-31.46-64.68-31.46l35-36.71-35-22.73c22.73,5.25,29.72-64.68,29.72-64.68a261.8,261.8,0,0,1,2.39-55.84c16.44-104.55,97.25-128.88,97.25-128.88,76.92,7.58,153.83-39,153.83-39"/><path class="cls-21" d="M1276.1,1064.4c-13.78-9.7-37.68,35.77-46.13,53.1-1.58,3.23.25,7.25,3.44,7.64,10.95,1.31,34.18,1.45,58-15C1291.4,1110.1,1298.36,1080.07,1276.1,1064.4Z"/><path class="cls-3" d="M1184.74,1074.93l-3.79,22.15,60.89-42.77s40.3-18.93,61-4.66c-.62-12.66-.69-20.66-11.8-24.83l-60.31,9.18Z"/><path class="cls-22" d="M980.36,1159.5s32.63-36.2,57-8.09c27.46,31.75,52.15,79.25,37.73,58.27s37.73-28.84,33.79-59.5c-2.92-22.79-22.72-70.29-22.72-70.29,35.83,1.31,48.94-64.25,48.94-64.25,10.49,38,2.63,39.84,2.63,39.84,53.75-34.9,59-71.3,59-71.3,11.8,2.62,32.78,27.24,32.78,27.24,19.67-3.93,8.52-57.4,8.52-57.4,8.53,0,14.43,11.8,14.43,11.8,66.21,62.94,84.56,35.4,85.87,24.91s-30.63-24.79-15.88-26.22,43.41,2.62,43.41,2.62c1.32-22.28-34.08-36.56-34.08-36.56C1354,943.83,1401.21,916,1401.21,916l-19.66-.92c-19.67-.92-39-23.26-39-23.26-69.17-68.76-188.06-6.84-188.06-6.84-92.83,41.51-167.56,36.27-167.56,36.27-71.39,15.12-102.48,123.26-102.48,123.26-21.19,177-36.93,135-36.93,135s-7.43-23.6-5.42,0,33.43,26.22,33.73,26.41-33.73,34.49-33.73,34.49c30.71,46.48,70.1,38,70.1,38l-4.2,25.78c-6.82,43.41,93.43,46,93.43,46s53.68-56.63,34-88.09C1035.42,1262.13,945,1235.91,980.36,1159.5Z"/><polygon class="cls-23" points="1316.58 1060.14 1402.23 1119.51 1352.12 1157.97 1316.58 1060.14"/><path class="cls-3" d="M1258.77,1069.06s.8,28.75,13.57,51.07c0,0,12-2,19-9.63,0,0,10.51-33.08-16.35-46.09C1275,1064.41,1258.21,1061.91,1258.77,1069.06Z"/><path class="cls-24" d="M1236,1211s15.29,38.31,128.92-2.48"/><circle class="cls-9" cx="1189.18" cy="1166.13" r="33.25"/><path class="cls-24" d="M1026.24,1190s-14.27,11.7,2.77,33.65"/><path class="cls-25" d="M1938.23,822.58s-22.06-20.34-71.12,27.77"/><line class="cls-25" x1="1870.67" y1="831.4" x2="1878.08" y2="841.21"/><line class="cls-25" x1="1886.01" y1="815.86" x2="1892.01" y2="828.74"/><line class="cls-25" x1="1907.25" y1="805.51" x2="1909.15" y2="823.45"/><path class="cls-22" d="M1931.56,861.92c-29.23,9.81-54-.58-63.6-5.69a3.69,3.69,0,0,1-.85-5.88c49.06-48.11,67.75-27.5,67.75-27.5Z"/><path class="cls-3" d="M1938.13,841.85c-.06,12.48-5.52,23-14.08,23.54s-18.19-9.16-17-21.58c2.05-20.36,10.27-21.95,18.84-22.49S1938.23,822.58,1938.13,841.85Z"/><path class="cls-25" d="M1935.57,861.79c-29.23,9.81-58-.45-67.61-5.56a3.69,3.69,0,0,1-.85-5.88c49.06-48.11,71.12-27.77,71.12-27.77"/><path class="cls-3" d="M1862.11,785.57l1.47-3.12,84.21-1-2.52,19s-37.65-6.12-76.33-4.59A7.27,7.27,0,0,1,1862.11,785.57Z"/><path class="cls-22" d="M1931.56,861.92c-29.23,9.81-54-.58-63.6-5.69a3.69,3.69,0,0,1-.85-5.88c49.06-48.11,67.75-27.5,67.75-27.5Z"/><path class="cls-3" d="M1938.13,841.85c-.06,12.48-5.52,23-14.08,23.54s-18.19-9.16-17-21.58c2.05-20.36,10.27-21.95,18.84-22.49S1938.23,822.58,1938.13,841.85Z"/><path class="cls-25" d="M1935.57,861.79c-29.23,9.81-58-.45-67.61-5.56a3.69,3.69,0,0,1-.85-5.88c49.06-48.11,71.12-27.77,71.12-27.77"/><path class="cls-24" d="M1849.17,930.57s21.5,40,109.55,39.77"/><path class="cls-24" d="M1862.47,922.07s-21.46,15.64-29,20.88"/><polygon class="cls-23" points="1966.92 935.38 2027.47 915.08 1974.29 828.74 1966.92 935.38"/><path class="cls-22" d="M1693,910c31.54,5.7,13.29,108.67,13.29,108.67s-10.81-40.3-33.68-76.48c-20.41-32.28-47.55-7-53.15-1.12a14.51,14.51,0,0,1-2.6,2.15c-46.26,29.4-112.07-16.52-112.07-16.52,22.72,11-112.46-39.28-112.46-39.28-69.93-84.78-32.93-119.31-32.93-119.31-2.27-21-15.13-40.07-25.06-52a83.49,83.49,0,0,1-18.19-38.48C1305,616,1321.37,561.75,1333.85,532A59.86,59.86,0,0,1,1363,501.51c21.77-10.65,32.56-28.64,37.89-43.16a186.18,186.18,0,0,1,39-63.93c50-52.94,107-86.75,121.06-94.71a14.64,14.64,0,0,0,4.81-4.28c21.12-30.06,110-24.92,136.24-22.7a15.42,15.42,0,0,0,11.8-4.13c42.12-39.08,150.25,12.92,169.32,22.56a14.89,14.89,0,0,0,6,1.61c59.63,3.22,79.69,60.46,85.57,85a15.28,15.28,0,0,0,13,11.58c82.83,10.29,115,162,115,162,12.71,95.31-54.75,117.53-63.33,121.75a15.23,15.23,0,0,0-2.89,1.84c-12.84,10.42-35,33.06-43.7,42.11a15.3,15.3,0,0,1-9.42,4.6c-24.58,2.59-36-4.13-41.15-11.87a15.27,15.27,0,0,0-21.52-3.78c-31.85,22.56-55.81,20.16-70.48,14a15.09,15.09,0,0,0-20,8.67c-6.1,15.92-19.45,20.53-28.66,21.75a15.26,15.26,0,0,0-12.5,10.73c-4.36,14.24-11,26.29-30.74,41.5-12.44,9.55-17.66,32.91-19.78,53.57a15.3,15.3,0,0,1-26.69,8.58h0a15.34,15.34,0,0,1-3.38-6.46L1700.67,827c-.13-.56-.23-1.14-.31-1.72-3.53-26.64-35.44-24.44-45.45-23.07a14.87,14.87,0,0,0-5.6,1.92c-3.72,2.19-12.08,6.37-12.74,13C1636.57,817.16,1606,894.3,1693,910Z"/><circle class="cls-14" cx="1815.91" cy="875.35" r="33.25"/><path class="cls-24" d="M1673.45,838.19s-14.28,5.87,2.76,27.82"/><path class="cls-16" d="M1627.16,1190l182.41,182.41L1903.94,1158S1788,1279.17,1627.16,1190Z"/><polygon class="cls-9" points="1903.94 1157.97 1809.57 1372.43 1627.16 1190.02 1571.01 1211.04 1825.28 1452.82 1958.71 1138.68 1903.94 1157.97"/><polyline class="cls-26" points="1544.33 1217.92 1836.89 1506.78 1984.23 1132.87"/><line class="cls-5" x1="861.48" y1="583.42" x2="920.92" y2="523.99"/><polygon class="cls-8" points="2724.24 309.96 2719.51 310.72 2713.39 272.57 2675.24 278.69 2674.48 273.97 2712.63 267.84 2706.5 229.7 2711.23 228.94 2717.35 267.08 2755.5 260.96 2756.26 265.69 2718.11 271.81 2724.24 309.96"/><g class="cls-18"><polygon class="cls-13" points="2257.99 1244.42 2271.11 1149.86 2285.88 1148.2 2264.88 1261.5 2257.99 1244.42"/><path class="cls-19" d="M2251.09,950.45s70.55-25.41,115.11,19.89c0,0-34.12,47.2-51.16,33.14S2254,981,2251.09,950.45Z"/><path class="cls-13" d="M2275.71,1167.29l-34-39.45a44.62,44.62,0,0,1-10.4-35.29l19.8-142.1s6.18,13,18.51,19.89c27.77,15.44,70.49,20.39,96.6,0L2343.6,1111a44.61,44.61,0,0,1-23,32.28Z"/><path class="cls-20" d="M2230.13,1093.72s14.11-15.58,41.8-12.42c12.31,1.4,16.28,6.17,24.75.06,17.26-12.41,19.72-1.69,35.26-1.33s19.5-18.21,19.5-18.21l-8.56,53.73a35.42,35.42,0,0,1-18.25,25.59l-6.43,3.43a61.54,61.54,0,0,1-74.75-13.08l-3.26-3.61a35.41,35.41,0,0,1-9.09-24.29Z"/><path class="cls-20" d="M2342.88,1115.55a35.42,35.42,0,0,1-18.25,25.59l-6.43,3.43a61.54,61.54,0,0,1-74.75-13.08l-3.26-3.61a35.41,35.41,0,0,1-9.09-24.29l.19-11s83.47,39.49,115.51-1.44Z"/></g><g class="cls-18"><polygon class="cls-13" points="2690.4 1413.11 2676.63 1333.87 2664.65 1332.98 2685.4 1427.75 2690.4 1413.11"/><path class="cls-19" d="M2686.14,1165.08s-57.85-19-92.33,20.78c0,0,29.14,38.6,42.44,26.15S2684.81,1190.91,2686.14,1165.08Z"/><path class="cls-13" d="M2673.5,1348.72l26.16-34.44a38.84,38.84,0,0,0,7.22-30.11l-20.74-119.09s-4.56,11.2-14.29,17.41c-21.92,14-56.27,19.65-78,3.37l23,117.8a37.45,37.45,0,0,0,19.67,26.4Z"/><path class="cls-20" d="M2707.86,1285.11s-11.92-12.64-34.19-9c-9.89,1.61-12.94,5.77-20,.92-14.35-9.87-16-.74-28.52.11s-16.36-14.67-16.36-14.67l8.71,45a29.68,29.68,0,0,0,15.6,20.93l5.3,2.67c20.61,10.38,45.35,4.75,60-13.64l2.51-3.15a30.78,30.78,0,0,0,6.53-20.79Z"/><path class="cls-20" d="M2617.51,1307.45a29.68,29.68,0,0,0,15.6,20.93l5.3,2.67c20.61,10.38,45.35,4.75,60-13.64l2.51-3.15a30.78,30.78,0,0,0,6.53-20.79l-.53-9.3s-66.1,36.2-93.36,2.81Z"/></g><g class="cls-18"><polygon class="cls-13" points="2516.04 1369.76 2501.33 1283.49 2487.76 1282.39 2510.21 1385.6 2516.04 1369.76"/><path class="cls-19" d="M2514,1100.23s-65.37-21.28-104.9,21.49c0,0,32.6,42.28,47.81,28.91S2512.21,1128.27,2514,1100.23Z"/><path class="cls-13" d="M2497.62,1299.6l30-37.11a40.91,40.91,0,0,0,8.52-32.64L2514,1100.23s-5.3,12.11-16.4,18.74c-25,14.94-64,20.69-88.5,2.75l24.7,128.25a40.91,40.91,0,0,0,22,28.92Z"/><path class="cls-20" d="M2537.28,1230.89s-13.37-13.87-38.65-10.19c-11.24,1.64-14.74,6.11-22.68.77-16.16-10.89-18.11-1-32.33-.23s-18.39-16.12-18.39-16.12l9.37,49a32.41,32.41,0,0,0,17.45,22.92l6,3a56.44,56.44,0,0,0,68.12-14.11l2.88-3.41a32.39,32.39,0,0,0,7.64-22.5Z"/><path class="cls-20" d="M2434.6,1254.1a32.41,32.41,0,0,0,17.45,22.92l6,3a56.44,56.44,0,0,0,68.12-14.11l2.88-3.41a32.39,32.39,0,0,0,7.64-22.5l-.49-10.12s-75.34,38.56-105.87,2Z"/></g><path class="cls-14" d="M2412.31,2205.32s-4.5,34.8-29.06,57.18c-26,23.69-56.48,56.14-32.87,79.26C2372.6,2363.51,2447.82,2322.34,2412.31,2205.32Z"/><path class="cls-14" d="M2267.66,2309.78a49.9,49.9,0,0,0,35,25.62c26,4.77,52,5.17,53.51,26S2285.53,2392.52,2267.66,2309.78Z"/><polygon class="cls-23" points="2821.39 817.67 2813.23 944.17 2886.96 932.58 2821.39 817.67"/><path class="cls-14" d="M3407.94,2182.43s-22.72,29.71,31.47,124.11,8.74,139.84,8.74,139.84,26.22-40.2,68.17-42,57.69-76.92-15.73-122.36S3407.94,2182.43,3407.94,2182.43Z"/><path class="cls-3" d="M3512.82,1988.77s-4.7,44.42,124.11,179.47c99.32,104.12,24.1,241.94,24.1,241.94s117.06-139.07-38.59-281.65a258.66,258.66,0,0,1-18.52-18.8C3578.09,2080.72,3512.82,2005.71,3512.82,1988.77Z"/><path class="cls-9" d="M3465,2290.75s44.52,46.61,24.48,89.73C3489.48,2380.48,3532.6,2345.52,3465,2290.75Z"/><path class="cls-16" d="M3230.76,937.36s102.3,118.94,268,90.89c11.66-2,53.61,430.58,53.61,430.58l-140.55,823-422.14,237.92L3022,1896.77c6.33-122-11.06-315.67-32.26-420.46l-39.32,89.35L2850.1,1637l-120.34-240.07s4.53-38.46,93.1-97.31,6.66-146,107-191,196.09-64.83,211.18-89.89S3230.76,937.36,3230.76,937.36Z"/><path class="cls-17" d="M2592.44,1341.3l47.5,12.59a3,3,0,0,1,.78.34l45.87,29c4.88,3.09-1.41-5.8.46-11.27a2.74,2.74,0,0,0,0-1.81h0a2.78,2.78,0,0,1,3.65-3.55l61.38,24.6a43.65,43.65,0,0,1,24.39,24.59l23.39,59.77a2.74,2.74,0,0,0,.81,1.12l36.65,30.55a2.79,2.79,0,0,1,.13,4.18l-56.67,53.51a2.8,2.8,0,0,1-3.1.51L2632.73,1498a2.79,2.79,0,0,1-1.44-1.54l-52.77-139.79A11.68,11.68,0,0,1,2592.44,1341.3Z"/><path class="cls-16" d="M2844.42,1452.82s65.5,79.25,98.89,90.9S3177.15,1609,3177.15,1609l-55.94,212.11s-100.89-22.78-170.81-69.39S2804.22,1637,2804.22,1637s-65.93-30.3-121.54-90.9C2682.68,1546.05,2761.1,1560,2844.42,1452.82Z"/><polygon class="cls-23" points="3449.06 976.18 3330.7 1030.76 3375.84 1098.49 3449.06 976.18"/><path class="cls-17" d="M3531.57,871.16c-14.9,14.18-183.77,178.2-210.48,354.25a12.69,12.69,0,0,0,7,13.27c11.37,5.59,35.16,16.47,75.15,31.33,59.78,22.22,59.54,37.92,61.78,92.34s-3.44,94.61-61.78,83.26c-58.16-11.31-99.82-40.35-155.59,70.84a12.77,12.77,0,0,0-1.09,3.11c-1.74,8.32-4.06,41.52,56.37,80,69.93,44.51,114.34,44.51,165.56,128.43s222.3,73.43,262.64,97.91,106.78,83.69,155.73,87.3c47.1,3.47,50-190.59,50.15-205.31a12,12,0,0,1,.12-1.58c1-6.94,4.33-64.81-138.83-139.7-152.7-79.88-168.29-140.33-164-236v-86.06a12.75,12.75,0,0,1,20.75-10c26.38,21.4,73.77,50.9,117.61,32,65.15-28.11,70.6-582.42-238.82-397.16A13.09,13.09,0,0,0,3531.57,871.16Z"/><path class="cls-14" d="M3107.28,1007.64s-28,56.85-36.7,80.05,7,49.17,45.44,64.16,39.53,22.69,129.89-45,90.36-112.7,58.9-132.11-69.92-9.9-85.65-24.27S3107.28,1007.64,3107.28,1007.64Z"/><path class="cls-17" d="M3207.92,721.17s-43.33,61.57-20.36,101.84c9.57,16.78-6.35,40.25-5.07,60.56,2,32.14,20,57.5,43.31,79.73,17.57,16.75,42.4,34.57,33.95,55.74-15.54,38.93-54.14,87.66-129.62,91.46,0,0-3.9,1.55-8.79-1.3-7.44-4.35-2.2-13.75,3.07-20.57,5.76-7.44,3.53-23-14-49.79-27.9-42.66-47.54-65.84-75.43-47.8-20.2,13.08-43.13,25.2-56.17,30.26-5.29,2.05-20.52-6.52-25.47-9.29-27.16-15.17-108.54-85.52-153.09-245.19C2733.22,526.46,3118,453.46,3191.36,620.64,3191.36,620.64,3215.16,684.05,3207.92,721.17Z"/><path class="cls-22" d="M2779.25,800.15c8.83-5.32,46-35.07,41.12-85.25-.36-3.66,4.06-5.95,7.12-3.71,19.56,14.36,71.71,42.81,154.12,17.64l.35-.13c2.57-1,33.62-12.64,45,6.85,11.89,20.34,42.75,49.72,32.07,78s-48,90.86-9.48,131.19c18.44,19.3,34,29.89,56.3,35.29,4,1,7.09-3.34,4.69-6.54-14.37-19.14-36.91-61,.84-101.59,50.93-54.75-37.36-112.15-1.61-147.22a4.37,4.37,0,0,1,1-.72c5-2.73,42.27-21.58,58.91,19.52,17.83,44.07-23.76,59.86-27.78,79s-8.66,36.87,4,49.41c26.06,25.79,4.76,34.31,7.14,49s-5.55,83.85,78.47,39.73c73.42-38.55-5.15-88.74-5.15-88.74s25.37,45.62,80.07,8.32,55.89-55.37,84.42-63.28-3.56-37.3-21.4-49.73-26.8-42.39-45.6-47.94c-37.28-11-50.71,5-73.31-39.07s-105.14-215-269.25-186.89c-159.61,27.35-223.33,123.27-227.11,129-17.54,26.52-37.44,58.29-37.14,82.4.27,21.77,9.05,35.8,27.76,51.28,6.4,5.3,10.89,10.12,25.95,20.86,10,7.12-1.45,7.18-3.27,14.12C2766.07,796.2,2775.69,802.3,2779.25,800.15Z"/><path class="cls-27" d="M2754.3,1536.43a79.59,79.59,0,0,0-58.11,1c-62.41,25.72-199.37,85.42-150.69,94.93,62.35,12.17,206.09-46,212-94.73Z"/><path class="cls-17" d="M2658.33,1646.28l-58.69-69.7-14.48-13.36c-7.91-6.1-30-13-39.85-25.74l-9.19-4.83-13.59-6.5c-13.38-4.1-36.69-17.15-44.83-28.54l-38.28-69.86L2421.68,1405l-1.63-9.8a11.76,11.76,0,0,1,12.56-13.64l48.65,4s-33.73-42.37-8.32-48.44c0,0,49.34,27.86,87.76,21.94a28.32,28.32,0,0,1,24.46,7.92l48.7,48.85,30.79,95.66,70,84.51Z"/><path class="cls-13" d="M3613.42,2447.32s66.75-68.17,112.91-234.23,238.44-159.07,334.59-246.48,103.13-132.84,103.13-132.84,26.22,36.7,0,104.88-38.46,85.65-40.21,120.61-15.73,198.62-89.14,252.26S3861.64,2443.83,3613.42,2447.32Z"/><path class="cls-3" d="M4097.36,1986.37s-47.78,126.65-191.13,205.5-194.62,201.23-194.62,201.23,87.13-120.77,198.12-185.3C4015,2146.62,4072.89,2079.61,4097.36,1986.37Z"/><path class="cls-21" d="M2870.24,835.21s-.79-67.2,76.06-44C2946.3,791.22,2937.07,840.07,2870.24,835.21Z"/><path class="cls-24" d="M2932.91,771.09s-2.27,15-12.43,15.34"/><path class="cls-24" d="M2919.2,773.93s-1.71,11.32-9.35,11.53"/><path class="cls-24" d="M2944.47,772.59s-2.27,15-12.43,15.34"/><path class="cls-3" d="M2895,800.28c4.76,5.25,11.22,13.27,14.22,21,2,5.25-1.81,11-7.63,11.42l-24.71,2a4.84,4.84,0,0,1-5.26-5.85c1.79-7.42,5.32-19.66,10.59-27.62A8.22,8.22,0,0,1,2895,800.28Z"/><polygon class="cls-3" points="2840.78 786.47 2840.78 765.52 2912.18 743.33 2941.07 744.32 2937.68 755.03 2907.29 756.34 2840.78 786.47"/><path class="cls-24" d="M2893.24,954.75s37.13,3,66-38.51"/><path class="cls-24" d="M3127.69,746.71s18.43,9.32,15.81,22"/><path class="cls-21" d="M3455.68,1032.69s17.63,11.8,80.56,10.13c0,0-43.41-44.95-52.59-44.95C3483.65,997.87,3450.44,1010.4,3455.68,1032.69Z"/><path class="cls-3" d="M3487.29,1016.37s-11.94,25.5-31.61,16.32c0,0-4.37-30.3,28-34.82C3483.65,997.87,3500.68,1001.42,3487.29,1016.37Z"/><polygon class="cls-3" points="3537.38 977.33 3552.41 988.11 3552.41 1012.5 3530.41 990.73 3449.06 976.18 3473.84 966.45 3537.38 977.33"/><path class="cls-24" d="M3360,1116.39s32.64,27.33,89.09,22.29"/><path class="cls-24" d="M3669.51,1111.13s5.85,28.17-17,26.88"/><circle class="cls-16" cx="3646.98" cy="1160.54" r="12.49"/><circle class="cls-9" cx="2988.11" cy="838.7" r="33.25"/><circle class="cls-14" cx="3503.03" cy="1100.23" r="33.25"/><path class="cls-17" d="M2780,1618.87s118.17,184.56,189,159.07C2969,1777.94,2935,1644.2,2780,1618.87Z"/><path class="cls-17" d="M3088.39,1559s-54.34,212.3-129.6,210.3C2958.79,1769.28,2949.15,1631.63,3088.39,1559Z"/><path class="cls-17" d="M2931.16,1360.11s87.13,256.62,7.83,305.39C2939,1665.5,2836,1529.43,2931.16,1360.11Z"/><path class="cls-17" d="M2785.54,1814.24s123.43,163.9,211.62,132.17C2997.16,1946.41,2970.06,1822.24,2785.54,1814.24Z"/><path class="cls-17" d="M3164.15,1724.85s-87.79,208.4-178.45,214.36C2985.7,1939.21,2988.43,1808.76,3164.15,1724.85Z"/><path class="cls-17" d="M2830.85,2008.54s161.15,144,234.21,96.45C3065.06,2105,3004.74,1984.2,2830.85,2008.54Z"/><path class="cls-17" d="M3157.73,1851.6s-22.72,226.16-105.36,248.12C3052.37,2099.72,3018,1967.33,3157.73,1851.6Z"/><path class="cls-17" d="M2900.28,2152s161.16,144,234.22,96.44C3134.5,2248.39,3074.18,2127.61,2900.28,2152Z"/><path class="cls-17" d="M3227.16,1995s-22.71,226.16-105.36,248.12C3121.8,2243.13,3087.45,2110.74,3227.16,1995Z"/><path class="cls-17" d="M2959.68,2297s161.15,144,234.21,96.45C3193.89,2393.42,3133.57,2272.63,2959.68,2297Z"/><path class="cls-17" d="M3286.55,2140s-22.71,226.17-105.35,248.12C3181.2,2388.15,3146.84,2255.77,3286.55,2140Z"/><path class="cls-17" d="M2939.52,1526.62c1.32,40.73,5.26,81.38,10.26,121.81s11.48,80.69,19.21,120.66a1866.11,1866.11,0,0,0,60.81,236.19c25.49,77.22,57.63,151.87,92.23,225.16,34.37,73.51,74.89,143.92,118.5,213l-1.61,1.19c-26-31.57-51.15-64.12-73.13-98.79-11.64-16.94-21.6-34.9-32.37-52.41-5.1-8.91-9.92-18-14.89-27s-9.86-18-14.43-27.23c-19.09-36.42-34.93-74.42-50-112.61-14.56-38.41-27.53-77.36-39.56-116.56a1880.86,1880.86,0,0,1-55.41-239.28q-9.67-60.63-15.33-121.75c-3.68-40.73-6.3-81.55-6.29-122.46Z"/><path class="cls-5" d="M3113.26,1854.77c-18.69-94.45-62.4-238.21-62.4-238.21s-180.68,228.81-210.55,398.08,77.55,266,77.55,266S3181,2197.13,3113.26,1854.77Z"/><path class="cls-12" d="M3016.61,1825.39s-9.69,183.67-98.75,455.23"/><path class="cls-5" d="M2422.9,1889.37c-68.8,3.26-175.82,22.48-175.82,22.48s132.75,203,246.54,256.34,197.5-32.45,197.5-32.45S2672.31,1877.53,2422.9,1889.37Z"/><path class="cls-12" d="M2363.71,1975.25s180.61,167.77,327.41,160.49"/><path class="cls-5" d="M2835.84,1818c-51.36-75.86-143.27-183.9-143.27-183.9s-78.94,294.2-43.93,461.14,167.06,201.49,167.06,201.49S3022,2093,2835.84,1818Z"/><path class="cls-5" d="M2730.52,1828.18s70.95,240.94,85.18,468.56"/><path class="cls-11" d="M2669,2334.76c-.52-68.53-13.49-175.53-13.49-175.53s-179.15,126.19-228.8,237.84,21.34,197.38,21.34,197.38S2670.9,2583.18,2669,2334.76Z"/><path class="cls-12" d="M2596.34,2297.43s-35.75,125.15-148.27,297"/><path class="cls-11" d="M2112.59,2237c-55.43-9.87-143.8-15.47-143.8-15.47s75,163.64,157.73,220.52,162.62,12.41,162.62,12.41S2313.51,2272.75,2112.59,2237Z"/><path class="cls-12" d="M2052.23,2285.85s118.61,147.71,236.91,168.57"/><path class="cls-11" d="M2453.14,2260.47c-29.43-61.46-86.33-152.28-86.33-152.28s-107.9,189.29-105.4,310.77,102.64,168.62,102.64,168.62S2559.84,2483.25,2453.14,2260.47Z"/><path class="cls-12" d="M2367.51,2248.93s19.89,178.92-3.46,338.65"/><path class="cls-14" d="M3254.06,2497.85s-184.72,108.9-317.65-15.31-41.43-107.2-141.56-170.16-150.19-131-76-178.66,79.41-56.15,32.8-119.11-25.89-114-22.44-137.82,41.43-124.21,129.48-86.78,91.49,183.77,126,207.59,38,17,112.21-1.7,132.93,69.76,131.2,158.24,0,132.72,84.6,180.36S3286.89,2482,3254.06,2497.85Z"/><path class="cls-9" d="M2818.45,1855.69c-1,14.87,1.36,29.58,4.86,43.83,1.78,7.13,3.91,14.17,6.37,21.07s5.16,13.72,8.22,20.34a172.61,172.61,0,0,0,10.15,19.14l1.44,2.23,1.5,2.16c.52.7,1,1.39,1.56,2.1l1.69,2.12c2.27,2.84,4.64,5.66,7,8.53a166.74,166.74,0,0,1,13.85,18.51,73.77,73.77,0,0,1,9.52,22.53c1,3.91,1.68,7.79,2.29,11.59s1.08,7.5,1.61,11.11a104.92,104.92,0,0,0,4.43,20,69,69,0,0,0,9.29,17.25,154.57,154.57,0,0,0,13.43,16c4.93,5.22,10.19,10.41,15.41,15.91a213.51,213.51,0,0,1,15.38,17.65,113.9,113.9,0,0,1,6.85,10c2.1,3.43,4,6.89,5.81,10.33,3.59,6.9,6.78,13.71,9.92,20.27a170.77,170.77,0,0,0,10,18.45,72,72,0,0,0,12.3,14.91c9.3,8.52,23.15,14.6,36.06,25.28a95.17,95.17,0,0,1,9,8.53,100.3,100.3,0,0,1,7.73,9.61,94.92,94.92,0,0,1,11.49,21.68c.68,1.93,1.36,3.86,1.93,5.84l1.58,5.38q1.56,5.2,3.26,10.4c2.29,6.9,4.7,13.79,7.33,20.59a373.13,373.13,0,0,0,18,39.81c1.71,3.25,3.41,6.42,5.18,9.37a53.41,53.41,0,0,0,5.9,8.1c4.39,4.92,10.16,9.08,16.18,13.08a154.42,154.42,0,0,0,19,10.34c6.65,3.13,13.48,6.08,20.25,9.29a134,134,0,0,1,19.79,11,54,54,0,0,1,8.61,7.43,34,34,0,0,1,3.48,4.48,28.76,28.76,0,0,1,2.54,5,31.26,31.26,0,0,0-7.1-8.36,51.37,51.37,0,0,0-9.12-6,146.37,146.37,0,0,0-20.32-8.34c-7-2.4-14.07-4.64-21.15-7.19a146.2,146.2,0,0,1-21.07-9.11c-3.34-1.85-6.67-3.79-9.94-6a68.83,68.83,0,0,1-9.44-7.57,64.91,64.91,0,0,1-7.89-9.36c-2.31-3.25-4.3-6.53-6.25-9.74-3.89-6.43-7.66-13.09-11.14-19.8s-6.74-13.58-9.81-20.49-6-13.91-8.63-21q-2-5.33-3.86-10.71l-.91-2.71-.46-1.35L3041,2278c-.55-1.58-1.2-3.11-1.85-4.65a80.37,80.37,0,0,0-24.16-31.12c-5.12-4-11.16-7.51-17.62-11.3s-13.33-8-19.84-13.6a81.66,81.66,0,0,1-9-9.08,101,101,0,0,1-7.34-10,196,196,0,0,1-11.37-20.64c-3.34-6.8-6.33-13.5-9.58-19.79-1.62-3.15-3.29-6.2-5-9.12s-3.61-5.65-5.62-8.41a194.86,194.86,0,0,0-13.58-16.19c-4.92-5.34-10.07-10.75-15.15-16.51a165.38,165.38,0,0,1-14.56-18.64,87.54,87.54,0,0,1-10.7-22.41c-2.45-8.12-3.33-16.17-4-23.68s-1.09-14.7-2.23-21.42a62.34,62.34,0,0,0-2.41-9.64,69.21,69.21,0,0,0-4-9.26,178.09,178.09,0,0,0-11.32-18.21c-2.09-3.06-4.22-6.15-6.3-9.32l-1.55-2.41-1.58-2.5-1.5-2.54-1.4-2.55a171.55,171.55,0,0,1-9.26-20.94,227.72,227.72,0,0,1-11.41-43.69,165.3,165.3,0,0,1-2-22.42c-.07-3.75,0-7.5.27-11.23A100.07,100.07,0,0,1,2818.45,1855.69Z"/><path class="cls-9" d="M3151,2341.46s10,17.4-10.75,27.23C3140.21,2368.69,3131.77,2352.81,3151,2341.46Z"/><path class="cls-9" d="M3114.3,2283.23s10,17.39-10.74,27.22C3103.56,2310.45,3095.12,2294.57,3114.3,2283.23Z"/><path class="cls-9" d="M3092.05,2212.89s10,17.4-10.74,27.23C3081.31,2240.12,3072.87,2224.24,3092.05,2212.89Z"/><path class="cls-9" d="M3044.51,2170.7s10,17.4-10.75,27.23C3033.76,2197.93,3025.32,2182.05,3044.51,2170.7Z"/><path class="cls-9" d="M3000.69,2120s10,17.4-10.74,27.23C2990,2147.26,2981.51,2131.38,3000.69,2120Z"/><path class="cls-9" d="M2966.93,2054.24s10,17.39-10.74,27.22C2956.19,2081.46,2947.75,2065.58,2966.93,2054.24Z"/><path class="cls-9" d="M2920.89,2012.64s10,17.4-10.74,27.23C2910.15,2039.87,2901.71,2024,2920.89,2012.64Z"/><path class="cls-9" d="M2893.27,1941.75s10,17.39-10.75,27.22C2882.52,1969,2874.08,1953.09,2893.27,1941.75Z"/><path class="cls-9" d="M2858.24,1893.11s8.26,14.41-8.9,22.55C2849.34,1915.66,2842.34,1902.5,2858.24,1893.11Z"/><path class="cls-9" d="M2817.63,2003.42s.14,20,23.07,18.34C2840.7,2021.76,2840,2003.85,2817.63,2003.42Z"/><path class="cls-9" d="M2827.56,2074.42s4.13,19.56,26.28,13.5C2853.84,2087.92,2849.57,2070.49,2827.56,2074.42Z"/><path class="cls-9" d="M2866.3,2135.59s7.36,18.61,28.19,9C2894.49,2144.61,2887.35,2128.12,2866.3,2135.59Z"/><path class="cls-9" d="M2893.5,2190.26s12,16.12,29.6,1.57C2923.1,2191.83,2911.89,2177.71,2893.5,2190.26Z"/><path class="cls-9" d="M3090.54,2433.38s20,3.18,22.17-19.39C3112.71,2414,3094.67,2411.71,3090.54,2433.38Z"/><path class="cls-9" d="M3034.55,2397.18s15,13.43,29.31-4.32C3063.86,2392.86,3050,2381.24,3034.55,2397.18Z"/><path class="cls-9" d="M3002.67,2347s11.73,16.29,29.57,2C3032.24,2349,3021.24,2334.68,3002.67,2347Z"/><path class="cls-9" d="M2974.81,2285s11,16.8,29.45,3.31C3004.26,2288.35,2993.93,2273.59,2974.81,2285Z"/><path class="cls-9" d="M2929.08,2243.09s9.08,17.86,28.92,6.4C2958,2249.49,2949.34,2233.73,2929.08,2243.09Z"/><path class="cls-9" d="M2783.31,1929.17s.14,20,23.08,18.33C2806.39,1947.5,2805.68,1929.59,2783.31,1929.17Z"/><path class="cls-9" d="M2775.73,1866.61s.12,16.78,19.38,15.4C2795.11,1882,2794.51,1867,2775.73,1866.61Z"/><path class="cls-9" d="M3214.79,1473.76s-15.59,30.66-52.29,53.38-68.18,80.41-61.19,127.61,33.22,56.73,7,100.91-64.68,69.17-62.93,124c0,0-24.47-59.14-124.11-117.54s-77.63-67.37-90.23-113.87c-15-55.37-73.53-110.59-73.53-110.59s-79.22,92.65-219.06,82.16c0,0,10.49,26.22,43.7,48.94s15.73,84.33,35,114.71,123.44,73.08,129,130.39,45.78,85.69,122.7,123.94,82.15,45.59,113.62,92.61c15.37,23,36.18,59.62,53.46,91.11,16.15,29.43,57.14,32.72,77.76,6.24,32.57-41.85,75.65-103.91,104.76-171.52,0,0,24.35,160.84-21.18,279.4-56.16,146.26-82.34,571.24-31.76,667.2L3931.63,2316s-49.89-100.08-28.45-180.49,44.18-139.85,28.45-187S3960.57,1844,3952.35,1819c-8.9-27.08-74.91,20.45-122.11,8.52s-71.67-34.66-108.38-53.89S3561,1733.41,3505.11,1695s-93.39-68.17-168.18-110.12-74.41-112.44-84.9-122S3217.17,1462.51,3214.79,1473.76Z"/><path class="cls-14" d="M3499,2559.67c18.87-99.37,30.72-258,30.72-258s-295.52,131.45-399.38,278.89-25.6,291.91-25.6,291.91S3430.62,2919.91,3499,2559.67Z"/><path class="cls-28" d="M3404.45,2484.81c-4,9.47-8.55,18.69-13.19,27.86l-1.73,3.45-1.8,3.41-3.63,6.8-3.65,6.79-3.77,6.72-7.63,13.4-7.92,13.23c-5.23,8.85-10.81,17.48-16.33,26.15-22.28,34.56-46.38,67.92-71.66,100.33l-19.34,24c-6.44,8-13.14,15.8-19.84,23.6l-10.06,11.66c-3.37,3.88-6.67,7.82-10.17,11.58l-10.38,11.38-10.45,11.32q-5.21,5.67-10.49,11.27l-10.78,11q-10.8,11-21.71,21.84c-3.62,3.64-7.35,7.16-11.1,10.67s-7.49,7-11.28,10.49l-11.33,10.42c-3.83,3.43-7.61,6.89-11.47,10.27,12.89-16,26.35-31.44,39.54-47.09q9.82-11.8,19.72-23.5l9.94-11.67,9.73-11.84,9.76-11.8,9.83-11.75,2.45-2.93,2.4-3,4.81-5.95,9.64-11.89c6.42-7.93,13-15.73,19.22-23.81l19.06-23.94c25.09-32.15,49.83-64.58,73.84-97.59l9-12.38c3-4.1,5.91-8.32,8.89-12.46l8.89-12.48,8.74-12.59,4.4-6.28,4.3-6.34c2.87-4.23,5.82-8.42,8.65-12.67s5.74-8.48,8.51-12.79c1.41-2.14,2.85-4.26,4.24-6.41Z"/><path class="cls-16" d="M2721.31,2258.77c-77.42-30.16-203.78-63.56-203.78-63.56s61.77,258.42,165.25,364.45,231.92,64.52,231.92,64.52S3002,2368.11,2721.31,2258.77Z"/><path class="cls-3" d="M2619.93,2312.28s129.45,247.84,294.77,311.9"/><path class="cls-29" d="M3207.69,2390.3c-25-97.41-81.41-245.21-81.41-245.21s-210.42,243.2-241.58,419.81S2985,2838.44,2985,2838.44,3298.4,2743.42,3207.69,2390.3Z"/><path class="cls-28" d="M3087,2349.08c0,2.61-.05,5.23-.12,7.85s-.13,5.23-.22,7.85c-.21,5.23-.41,10.46-.7,15.68s-.56,10.46-.9,15.68l-1.14,15.65c-.79,10.44-1.83,20.85-2.82,31.27-.49,5.21-1.12,10.4-1.7,15.6l-1.79,15.6q-7.67,62.32-20.1,124c-8.09,41.1-18.3,81.79-30,122l-4.59,15-4.64,15-1.17,3.74-1.27,3.72-2.57,7.43-5.19,14.83-5.28,14.79c-.85,2.48-1.89,4.89-2.83,7.33l-2.94,7.29-5.92,14.55c-2,4.82-4,9.67-6.1,14.46,1.23-5.1,2.58-10.15,3.86-15.22l4-15.14c1.3-5.06,2.8-10,4-15.11l3.76-15.19,3.85-15.15,2-7.56,1-3.78.88-3.8,3.59-15.21,3.64-15.17c9.38-40.56,18.47-81.14,26.53-122s16-81.69,23.31-122.71l5.48-30.77,5.36-30.82Z"/><path class="cls-9" d="M2235.4,2375.84s61.18,226.87,10.49,370.21-169.56,143.33-237.73,166.06c0,0-75.17-143.34-64.68-211.51S1971.45,2531.78,2235.4,2375.84Z"/><path class="cls-5" d="M2036.6,2854.72s-68.89-158.68,170.66-403.78C2207.26,2450.94,2045.92,2673.84,2036.6,2854.72Z"/><path class="cls-16" d="M1539.25,2797.12c27.15-34.2,77-57.62,86.85-97.64,4.45-18-.29-36.5-1.56-54.8-3.18-45.45,16.2-92,52.6-126.5,21.51-20.35,49.36-37.58,60.59-63,15-34-4.35-72.05,5.19-107.31,15.2-56.2,95.67-84.78,121-138.48,17.81-37.72,5.13-81.14,21.19-119.38,19.14-45.58,76.88-68.54,98.95-111,10.49-20.17,9.08-37.57,27.11-57.19,16.93-18.42,39.18-33.38,59.18-49.35,63.22-50.48,108.64-116.36,129-187.08,8.17-28.39,22.14-65.06,56.94-65.71,34.14,53.25,46.49,116.29,34.6,176.5-11.67,59-45.76,115.19-46.56,174.85-.59,43.69,16.79,85.71,26,128.58s8.83,90.86-22.54,126.25c-34.18,38.58-98.8,54.85-124.81,97.58-33.21,54.55,12.93,124.68-20.27,179.25-28.7,47.18-109,68.14-119.26,120.14-5,25.39,9.21,50.06,14.46,75.26,5.72,27.56,14.38,45.11.39,72.18-12.36,23.93-37,43.81-37.7,71.27-.45,18.82,12,35.78,17.91,53.87,17.86,54.93-26.4,111-74.62,152.25-36,30.83-79.28,60-130.23,64.27-44.81,3.74-87.79-12.4-128.16-28.36-69.77-27.59-108.17-58.77-126.88-123.63C1503.82,2908.69,1502.51,2843.4,1539.25,2797.12Z"/><path class="cls-3" d="M1715.12,3035.11a325.25,325.25,0,0,1-1.46-45.68,345.29,345.29,0,0,1,4.89-45.62,358,358,0,0,1,27.52-87.79c6.43-14,13.61-27.46,20.19-41,3.3-6.78,6.49-13.55,9.34-20.4a192.85,192.85,0,0,0,7.53-20.72,138.92,138.92,0,0,0,4.58-21.11,145.65,145.65,0,0,0,.87-21.55c-.31-7.27-1-14.59-1.91-22s-2.07-14.83-3.18-22.4c-2.18-15.09-4.3-30.67-4-46.81a141.26,141.26,0,0,1,2.53-24.15,169.89,169.89,0,0,1,6.38-23.28,203.17,203.17,0,0,1,9.21-22c3.43-7.11,7.16-14,11.12-20.75,7.9-13.46,16.5-26.29,25.13-38.88s17.36-25,25.55-37.48c4.11-6.25,8.08-12.54,11.81-18.92s7.32-12.79,10.5-19.34a272,272,0,0,0,15.87-40.88c4.37-14.17,8.05-28.79,12-43.56s8.17-29.72,13.62-44.51,12.15-29.41,21-43a171.21,171.21,0,0,1,14.57-19.38,221.8,221.8,0,0,1,16.69-17.13c11.56-10.66,23.58-20.28,35.17-29.85s22.72-19.23,32.3-30l3.6-4.07,3.43-4.21,1.71-2.1,1.63-2.17,3.26-4.35c2-3,4.18-5.91,6-9,.94-1.54,2-3,2.86-4.61l2.7-4.7c.93-1.55,1.69-3.19,2.54-4.78s1.7-3.2,2.43-4.85l2.29-4.91,2.09-5c.34-.84.7-1.67,1-2.51l.92-2.54c.6-1.7,1.28-3.38,1.82-5.1l1.63-5.15c.56-1.72,1-3.48,1.45-5.21s1-3.48,1.31-5.24l1.17-5.28c.59-3.55,1.3-7.09,1.67-10.67.53-3.55.73-7.18,1-10.8.12-1.81.16-3.65.24-5.48l.11-2.74,0-2.77c.18-14.76-.71-29.9-.92-45.35,0-7.76,0-15.56.62-23.45.09-2,.38-3.94.56-5.91s.39-4,.75-5.92l1-5.92,1.31-5.88c.23-1,.4-2,.69-2.93l.85-2.9.86-2.9a29.33,29.33,0,0,1,.94-2.88l2.15-5.68.54-1.41.62-1.38,1.25-2.76a140.43,140.43,0,0,1,12.07-20.54c9-12.88,19.2-24.39,29-35.89a446.59,446.59,0,0,0,52.07-73.71,416.47,416.47,0,0,0,35.53-83.46,373.75,373.75,0,0,1-12.51,44,408.33,408.33,0,0,1-40.27,82.36,452.21,452.21,0,0,1-26.71,37.5c-9.4,12-18.94,23.7-26.86,36.11a133.23,133.23,0,0,0-10.32,19.12l-1,2.47-.51,1.24-.42,1.27-1.71,5.05a24.46,24.46,0,0,0-.74,2.57l-.66,2.59-.67,2.59c-.23.86-.34,1.76-.52,2.63l-1,5.29-.67,5.37c-.26,1.78-.36,3.6-.5,5.41s-.32,3.61-.35,5.44c-.33,7.29-.17,14.7.09,22.14.64,14.94,2.05,30.13,2.22,45.79l0,2.93,0,2.95c0,2,0,3.94-.11,5.91-.23,4-.36,7.94-.84,11.92-.32,4-1,7.94-1.57,11.9l-1.14,5.88c-.35,2-.83,3.91-1.31,5.85a176.45,176.45,0,0,1-7.13,22.86l-2.2,5.57-2.42,5.47c-.78,1.84-1.69,3.61-2.57,5.4s-1.72,3.6-2.71,5.33l-2.88,5.24c-.95,1.75-2,3.42-3.05,5.14-2,3.45-4.29,6.71-6.47,10l-3.49,4.85-1.76,2.41-1.85,2.35-3.71,4.67-3.89,4.53c-.65.75-1.28,1.52-2,2.25l-2,2.19c-1.36,1.44-2.7,2.92-4.08,4.35l-4.2,4.2L2041,2197c-5.73,5.36-11.57,10.47-17.42,15.45-11.68,10-23.37,19.42-34.06,29.48a200.22,200.22,0,0,0-15,15.64,151.75,151.75,0,0,0-12.66,17.13,196.93,196.93,0,0,0-18.77,38.92c-5,13.76-9,28.11-12.93,42.7s-7.71,29.46-12.33,44.33a287.24,287.24,0,0,1-17.28,44c-3.53,7.1-7.42,13.92-11.42,20.63s-8.21,13.24-12.5,19.66c-8.56,12.85-17.47,25.26-26.21,37.61s-17.23,24.69-24.89,37.35q-5.76,9.49-10.72,19.26a183.88,183.88,0,0,0-8.78,19.87,150.87,150.87,0,0,0-6.07,20.55,128.58,128.58,0,0,0-2.66,21.09c-.66,14.29.91,29,2.72,44,.92,7.5,1.86,15.12,2.61,22.83S1803.9,2723,1804,2731a159.64,159.64,0,0,1-1.7,23.93,149.3,149.3,0,0,1-5.85,23.23,208.38,208.38,0,0,1-8.8,21.82c-1.61,3.55-3.35,7-5.07,10.47s-3.53,6.85-5.36,10.22c-7.27,13.51-14.89,26.61-21.76,40a368.87,368.87,0,0,0-31.14,84.41,348.08,348.08,0,0,0-7.46,44.67A353.28,353.28,0,0,0,1715.12,3035.11Z"/><path class="cls-3" d="M2026.88,1976.84a27.85,27.85,0,0,1,3.28,2.77,35.42,35.42,0,0,1,2.64,2.75,40.13,40.13,0,0,1,4,5.48,39.36,39.36,0,0,1,4.69,11.17,39.07,39.07,0,0,1,0,18.8,37.13,37.13,0,0,1-1.07,3.67,29.42,29.42,0,0,1-1.66,4,26.52,26.52,0,0,1-7.14-4.11,30.46,30.46,0,0,1-5.07-5.16,32.79,32.79,0,0,1-6.23-25.47,30.8,30.8,0,0,1,2.11-6.92A26.32,26.32,0,0,1,2026.88,1976.84Z"/><path class="cls-3" d="M1931.33,2095.17a33,33,0,0,1,4.34,3c1.33,1.06,2.53,2.17,3.69,3.29a57.22,57.22,0,0,1,6.11,7.08,68.92,68.92,0,0,1,12.71,32.84,57.75,57.75,0,0,1,.23,9.34c-.11,1.62-.25,3.25-.53,4.93a31.87,31.87,0,0,1-1.19,5.17,32.5,32.5,0,0,1-4.36-3c-1.33-1.06-2.53-2.17-3.7-3.29a56.5,56.5,0,0,1-6.11-7.08,66.67,66.67,0,0,1-8.46-15.6,68.1,68.1,0,0,1-4.2-17.26,57.75,57.75,0,0,1-.23-9.34c.11-1.62.25-3.24.52-4.92A33.78,33.78,0,0,1,1931.33,2095.17Z"/><path class="cls-3" d="M2161.69,1972.81a29.45,29.45,0,0,1-.19-11.88,18,18,0,0,1,3.5-7.66,17.71,17.71,0,0,1,6.66-5.11,29.39,29.39,0,0,1,11.62-2.46,21,21,0,0,1,2.14,12.09,17.78,17.78,0,0,1-11.51,14.37A21.29,21.29,0,0,1,2161.69,1972.81Z"/><path class="cls-3" d="M2153.06,2121.64a46.31,46.31,0,0,1,4.9-4.15c1.66-1.26,3.36-2.38,5.06-3.47a89,89,0,0,1,10.41-5.6,115.05,115.05,0,0,1,44.45-10.17,90.89,90.89,0,0,1,11.82.54c2,.25,4,.53,6.06.95a46.14,46.14,0,0,1,6.22,1.63,45.39,45.39,0,0,1-4.9,4.17c-1.66,1.26-3.35,2.38-5,3.48a90.78,90.78,0,0,1-10.42,5.61,115.21,115.21,0,0,1-44.46,10.1,90.89,90.89,0,0,1-11.82-.54c-2-.24-4-.52-6-.93A47.61,47.61,0,0,1,2153.06,2121.64Z"/><path class="cls-3" d="M2032.74,2245.45A46.84,46.84,0,0,1,2042,2239a66.46,66.46,0,0,1,9.67-4.28,79.45,79.45,0,0,1,40.34-3,66.06,66.06,0,0,1,10.18,2.83,46.66,46.66,0,0,1,10.1,5.08,37.15,37.15,0,0,1-4.94,3c-1.64.9-3.27,1.65-4.91,2.37s-3.26,1.35-4.88,1.92-3.25,1.1-4.87,1.55a96.41,96.41,0,0,1-19.48,3.38,97.9,97.9,0,0,1-19.77-.52c-1.67-.22-3.35-.49-5-.83s-3.4-.7-5.12-1.18-3.44-1-5.2-1.61A39.78,39.78,0,0,1,2032.74,2245.45Z"/><path class="cls-3" d="M1851,2271.46a28.32,28.32,0,0,1,8.26.9,33.11,33.11,0,0,1,6.82,2.58,34.63,34.63,0,0,1,10.53,8.38,34.26,34.26,0,0,1,6.6,11.75,32.13,32.13,0,0,1,1.44,7.15,27.69,27.69,0,0,1-.48,8.32,28.1,28.1,0,0,1-4.27-.89,38,38,0,0,1-3.69-1.22,40,40,0,0,1-6.29-3.1,39.14,39.14,0,0,1-9.56-8.19,39.52,39.52,0,0,1-8.57-17.5,38.59,38.59,0,0,1-.61-3.84A27.32,27.32,0,0,1,1851,2271.46Z"/><path class="cls-3" d="M1979.85,2423.15a37.08,37.08,0,0,1,3.72-4.46c1.28-1.36,2.61-2.6,4-3.79a71.86,71.86,0,0,1,8.36-6.31,88.78,88.78,0,0,1,37.64-13.37,71,71,0,0,1,10.47-.36c1.8.09,3.61.22,5.46.47a38.33,38.33,0,0,1,5.7,1.14,38,38,0,0,1-3.71,4.47c-1.28,1.37-2.61,2.6-4,3.8a69.15,69.15,0,0,1-8.36,6.31,85.29,85.29,0,0,1-18.07,8.81,86.56,86.56,0,0,1-19.59,4.5,71,71,0,0,1-10.47.37c-1.79-.09-3.6-.21-5.46-.47A38.27,38.27,0,0,1,1979.85,2423.15Z"/><path class="cls-3" d="M1760.94,2441.54a25.09,25.09,0,0,1,4,.76,33.86,33.86,0,0,1,3.36,1.14,28.86,28.86,0,0,1,5.58,3,27.59,27.59,0,0,1,11.63,18.63,29.16,29.16,0,0,1,.22,6.33,31,31,0,0,1-.48,3.53,24.5,24.5,0,0,1-1.07,3.9,24.92,24.92,0,0,1-4-.76,31.67,31.67,0,0,1-3.37-1.13,28.86,28.86,0,0,1-5.58-3,27.31,27.31,0,0,1-7.73-8.12,27.64,27.64,0,0,1-3.85-10.54,29.55,29.55,0,0,1,.25-9.85A22.8,22.8,0,0,1,1760.94,2441.54Z"/><path class="cls-3" d="M1886.65,2580.31a36.25,36.25,0,0,1,4.27-3.5c1.44-1,2.9-1.95,4.36-2.81a63.21,63.21,0,0,1,8.88-4.27,75.38,75.38,0,0,1,18.24-4.56,74.46,74.46,0,0,1,18.81,0,63.2,63.2,0,0,1,9.65,2c1.62.49,3.25,1,4.9,1.68a35.3,35.3,0,0,1,5,2.38,35.5,35.5,0,0,1-4.27,3.52c-1.44,1.05-2.89,1.95-4.35,2.82a63.21,63.21,0,0,1-8.88,4.27,74.47,74.47,0,0,1-18.25,4.53,75.89,75.89,0,0,1-18.81,0,64.17,64.17,0,0,1-9.65-2c-1.62-.49-3.26-1-4.9-1.67A35.21,35.21,0,0,1,1886.65,2580.31Z"/><path class="cls-3" d="M1697,2594.76a33.31,33.31,0,0,1,5.25.95c1.66.4,3.22.91,4.76,1.44a59,59,0,0,1,8.59,3.88,70.39,70.39,0,0,1,25.64,24.58,58.69,58.69,0,0,1,4.22,8.43c.59,1.52,1.16,3.07,1.63,4.71a34.52,34.52,0,0,1,1.14,5.22,33.06,33.06,0,0,1-5.26-.93c-1.67-.4-3.23-.91-4.78-1.44a58.38,58.38,0,0,1-8.59-3.87,70.17,70.17,0,0,1-25.59-24.63,57.68,57.68,0,0,1-4.22-8.43c-.6-1.51-1.17-3.06-1.64-4.7A33,33,0,0,1,1697,2594.76Z"/><path class="cls-3" d="M1652.29,2743.45a40.89,40.89,0,0,1,6.07.44c2,.25,3.83.62,5.68,1a79.47,79.47,0,0,1,10.63,3.19,100.27,100.27,0,0,1,35.6,23.3,78,78,0,0,1,7.16,8.47c1.11,1.54,2.2,3.12,3.21,4.81a42.11,42.11,0,0,1,2.81,5.4,40.82,40.82,0,0,1-6.07-.43c-2-.25-3.84-.62-5.69-1a79.49,79.49,0,0,1-10.63-3.2,100.06,100.06,0,0,1-35.56-23.35,77.81,77.81,0,0,1-7.17-8.46c-1.11-1.54-2.2-3.12-3.21-4.81A40.67,40.67,0,0,1,1652.29,2743.45Z"/><path class="cls-3" d="M1865.43,2729a31.83,31.83,0,0,1,2.58-4.52c.93-1.39,1.92-2.66,2.92-3.89a53,53,0,0,1,6.49-6.49,61.32,61.32,0,0,1,14.87-9.16,60.16,60.16,0,0,1,16.82-4.65,52.43,52.43,0,0,1,9.17-.31,45.8,45.8,0,0,1,4.84.52,30.93,30.93,0,0,1,5.07,1.21,33.45,33.45,0,0,1-2.89,4.32c-1,1.33-2.06,2.52-3.13,3.68a55.85,55.85,0,0,1-6.68,6.11,66.45,66.45,0,0,1-14.7,8.68,67.75,67.75,0,0,1-16.39,4.81,58.43,58.43,0,0,1-9,.72c-1.57,0-3.16-.05-4.82-.22A33.15,33.15,0,0,1,1865.43,2729Z"/><path class="cls-3" d="M1803.46,2887a27.47,27.47,0,0,1,3.12-3.6,39.63,39.63,0,0,1,3.25-2.92,44.19,44.19,0,0,1,6.75-4.49,49.11,49.11,0,0,1,14.25-5.06,48.53,48.53,0,0,1,15.11-.57,44.17,44.17,0,0,1,7.93,1.7,42.92,42.92,0,0,1,4.1,1.53,28.35,28.35,0,0,1,4.23,2.22,28.38,28.38,0,0,1-3.12,3.62,43.52,43.52,0,0,1-3.24,2.93,45.61,45.61,0,0,1-6.76,4.5,50.13,50.13,0,0,1-29.37,5.56,45,45,0,0,1-7.93-1.69c-1.35-.44-2.71-.91-4.1-1.52A28.62,28.62,0,0,1,1803.46,2887Z"/><path class="cls-3" d="M1547.12,2869.14A34.29,34.29,0,0,1,1552,2871c1.52.65,2.91,1.37,4.27,2.1s2.64,1.49,3.89,2.29,2.44,1.6,3.59,2.44a76.81,76.81,0,0,1,12.23,11.14,75.37,75.37,0,0,1,9.63,13.47c.7,1.24,1.36,2.53,2,3.87s1.24,2.71,1.79,4.15,1.1,2.92,1.56,4.51a34.41,34.41,0,0,1,1.18,5,36,36,0,0,1-9.88-1.87,46.67,46.67,0,0,1-8.47-3.77,53.79,53.79,0,0,1-13.75-11.24,54.34,54.34,0,0,1-9.5-15,47.24,47.24,0,0,1-2.72-8.88A36,36,0,0,1,1547.12,2869.14Z"/><path class="cls-22" d="M2761.82,2529.51s-51.8,193.2-8.48,315.15,144.51,121.8,202.57,141.06c0,0,63.81-122.1,54.8-180.12S2986.69,2661.94,2761.82,2529.51Z"/><path class="cls-3" d="M2931.63,2936.91s58.45-135.15-145.77-343.5C2785.86,2593.41,2923.47,2783,2931.63,2936.91Z"/><path class="cls-9" d="M3084.53,2727.51s-99.45,57.4-131.37,124.49,9.22,108.1,25,139.48c0,0,75.46-23.66,95.35-50.87S3122.05,2872.55,3084.53,2727.51Z"/><path class="cls-3" d="M2988.08,2961.81s78.59-31.13,80.27-198.6C3068.35,2763.21,3047.27,2896,2988.08,2961.81Z"/><path class="cls-17" d="M2322.38,1914.14s21.6,38.67,57.86,54.52c62,27.1,75.72,61.86,45,86.69S2329.35,2027.55,2322.38,1914.14Z"/><path class="cls-17" d="M2267.71,2104.32s9.23,35,54.53,51c52.7,18.63,68.53,46.59,49.78,69.84S2247.5,2206.5,2267.71,2104.32Z"/><path class="cls-17" d="M2219.51,2296.58s23.25,34.72,53.93,39.39c51.38,7.83,73.32,15.5,73.72,37.15C2347.61,2397.61,2229.32,2425.83,2219.51,2296.58Z"/><path class="cls-17" d="M2555,1857.34s-10,17.31-36.72,26.61c-20.24,7-61.47,22.28-43.71,48.52S2561.46,1907.07,2555,1857.34Z"/><path class="cls-17" d="M2558.42,2104.84s-21.93,31.61-56,34.6c-56.09,4.93-107.94,22.54-100,60.47S2552.23,2213.94,2558.42,2104.84Z"/><path class="cls-17" d="M2444.58,2257s-6,26.26-33.71,36.64c-44.39,16.64-66.2,40.07-54.32,56.34S2458.18,2350.93,2444.58,2257Z"/><path class="cls-17" d="M2547,1952.81s-11.61,30.68-39.44,43.22-79.61,32.12-51.41,64.51S2581.34,2007.67,2547,1952.81Z"/><path class="cls-17" d="M2393.05,1797.54s.56,32.17,31.39,55.93c31.34,24.14,61.17,59.42,27.13,78S2358.48,1872.07,2393.05,1797.54Z"/><path class="cls-9" d="M2416.54,1782.33a155.84,155.84,0,0,1,9.79,12.22c3.05,4.24,5.89,8.64,8.62,13.11s5.23,9.08,7.61,13.75,4.6,9.43,6.69,14.24a287.18,287.18,0,0,1,18.75,60.17,169.41,169.41,0,0,1,3.35,31.85,91.3,91.3,0,0,1-1.59,16.33c-.94,5.33-2.21,10.55-3.62,15.69-2.86,10.27-6.4,20.22-9.91,30l-2.63,7.34-1.29,3.64-.63,1.8-.53,1.66a66.36,66.36,0,0,0-2.58,13.92c-.76,9.62,0,19.61,1.28,29.69s3.09,20.32,4.25,31.11c.29,2.7.5,5.45.61,8.27a80.58,80.58,0,0,1-.09,8.64,74.44,74.44,0,0,1-3.15,17.17,84.55,84.55,0,0,1-6.79,15.88,123.72,123.72,0,0,1-9.18,14c-6.59,8.8-13.76,16.61-20.24,24.38s-12.32,15.5-15.65,23.66a41.64,41.64,0,0,0-3.05,12.4c0,.53-.1,1.06-.11,1.58l-.07,1.77-.17,4.08c-.06,2.72-.34,5.45-.53,8.17a162.47,162.47,0,0,1-6.1,32.47,157.54,157.54,0,0,1-5.67,15.59c-1,2.57-2.25,5-3.4,7.54-.6,1.24-1.24,2.45-1.85,3.67s-1.24,2.45-1.91,3.64c-2.58,4.83-5.41,9.46-8.33,14-.72,1.15-1.49,2.25-2.23,3.37l-2.18,3.27c-.65,1-1.33,2-1.93,3l-.93,1.52-.87,1.52a62.85,62.85,0,0,0-5.46,12.5,53.55,53.55,0,0,0-1.46,6.39,45.4,45.4,0,0,0-.51,6.48,54.48,54.48,0,0,0,1.67,13.28,109.18,109.18,0,0,0,4.52,13.71c.91,2.32,1.89,4.65,2.89,7l1.52,3.53c.52,1.17,1,2.2,1.5,3.31,2.05,4.38,4.47,8.77,7,13.15,5.06,8.79,10.63,17.52,16.15,26.42s11.07,17.92,15.9,27.76c1.21,2.46,2.36,5,3.42,7.62.56,1.35,1,2.54,1.44,3.81s.95,2.49,1.38,3.78a121.47,121.47,0,0,1,4.63,15.91,95.39,95.39,0,0,1,1.79,16.67c.16,5.4.13,10.61.16,15.79s0,10.34.16,15.51l.09,3.87a22.87,22.87,0,0,0,.21,3.2,15.43,15.43,0,0,0,1.88,5.42c2,3.48,5.37,6.66,9.28,9.76l6.18,4.8A56.67,56.67,0,0,1,2441,2554a23.32,23.32,0,0,1,5.11,8.29,18.34,18.34,0,0,1,.93,5.11,20.77,20.77,0,0,1-.44,5,27.24,27.24,0,0,1-1.37,4.46c-.27.71-.59,1.38-.9,2l-.93,1.86A28.15,28.15,0,0,0,2441,2587a25.64,25.64,0,0,0,.37,13.45,44.49,44.49,0,0,0,6.46,12.9c5.73,8.13,13.21,15.3,21,22,15.73,13.38,33.23,24.92,49.44,38-8.63-5.84-17.47-11.31-26.29-16.88s-17.55-11.32-26-17.59-16.63-13.13-23.37-21.72a50.88,50.88,0,0,1-8.21-14.53,35.16,35.16,0,0,1-1.84-8.52,32.06,32.06,0,0,1,.46-8.85,36.55,36.55,0,0,1,2.7-8.37l.73-1.67c.21-.52.42-1,.59-1.56a18,18,0,0,0,.76-3,10,10,0,0,0-.51-5.33,13.79,13.79,0,0,0-3.31-4.71c-3.1-3.08-7.43-5.81-11.79-9a70.41,70.41,0,0,1-6.58-5.3,34.36,34.36,0,0,1-5.92-7.06,26.6,26.6,0,0,1-3.59-9.12,38.39,38.39,0,0,1-.53-4.56l-.31-3.92c-.41-5.24-.73-10.49-1-15.71s-.49-10.43-.88-15.44a81.31,81.31,0,0,0-2.18-14.27,112.85,112.85,0,0,0-4.67-13.89c-.44-1.16-.95-2.33-1.43-3.5s-1-2.4-1.45-3.45c-.95-2.17-2-4.35-3.18-6.53-4.63-8.72-10.2-17.35-15.85-26s-11.52-17.36-17.07-26.5c-2.75-4.59-5.45-9.28-7.91-14.29-.62-1.22-1.23-2.57-1.79-3.77l-1.61-3.62c-1.08-2.42-2.15-4.88-3.18-7.39a124.83,124.83,0,0,1-5.46-15.87,70.25,70.25,0,0,1-2.41-17.6,62.94,62.94,0,0,1,.64-9.09,69.21,69.21,0,0,1,1.93-8.84,81.24,81.24,0,0,1,6.85-16.15l1-1.87,1.1-1.83c.72-1.23,1.5-2.4,2.26-3.59l2.11-3.25c.68-1.06,1.39-2.1,2-3.17,1.3-2.14,2.65-4.25,3.86-6.42.63-1.08,1.27-2.15,1.88-3.23l1.77-3.26c.61-1.08,1.16-2.19,1.71-3.29s1.12-2.2,1.64-3.31c1-2.23,2.1-4.44,3-6.71a137,137,0,0,0,4.94-13.77,148.14,148.14,0,0,0,5.5-28.81c.18-2.47.46-4.92.52-7.41l.17-3.72.1-2.14c0-.77.09-1.54.16-2.31a59.49,59.49,0,0,1,4.57-17.76,83.65,83.65,0,0,1,8.61-15.2c3.25-4.63,6.74-8.88,10.23-12.94,7-8.09,14.1-15.5,20.15-23.28s11.07-15.84,14-24.54a57.28,57.28,0,0,0,2.86-13.4,59.41,59.41,0,0,0,.26-7c-.05-2.39-.17-4.84-.36-7.32-.76-10-2.31-20.32-3.3-30.91s-1.54-21.52-.25-32.65a79.74,79.74,0,0,1,3.72-16.61l.74-2,.73-1.86,1.47-3.66,3-7.24c4-9.6,7.83-19.13,11.07-28.78,1.62-4.82,3.08-9.66,4.22-14.53a84.94,84.94,0,0,0,2.25-14.63,162.68,162.68,0,0,0-1.72-30.33,278.08,278.08,0,0,0-6.08-30.24,304.63,304.63,0,0,0-9.13-29.6c-1.78-4.85-3.72-9.65-5.76-14.41s-4.27-9.43-6.63-14-4.89-9.15-7.62-13.56S2419.69,1786.49,2416.54,1782.33Z"/><path class="cls-5" d="M3888.27,1352s27.79,11.8,53.95,5.19c44.69-11.3,66.62,1.67,60.44,27.89S3939.41,1410.18,3888.27,1352Z"/><path class="cls-5" d="M3938.29,1477.28s19.61,15,50.69,4.7c36.17-12,56.38-3.54,56,16.81S3970.1,1540.76,3938.29,1477.28Z"/><path class="cls-5" d="M3992.66,1601s27,9,45.5-1.31c30.94-17.25,46-22.29,55.23-10.8C4103.86,1601.85,4052,1666.47,3992.66,1601Z"/><path class="cls-5" d="M3989.8,1224.24s1.85,13.5-8.66,29.67c-8,12.25-23.79,37.69-3.27,44.4S4014.08,1248.31,3989.8,1224.24Z"/><path class="cls-5" d="M4095.07,1356.09s1.4,26.19-15.68,42c-28.15,26.09-48.71,57.24-28.57,74.33S4137.32,1417.44,4095.07,1356.09Z"/><path class="cls-5" d="M4097.34,1485.61a37.85,37.85,0,0,1-2.85,33.81c-16.95,27.52-18.91,49.24-5.71,53S4143.91,1530.51,4097.34,1485.61Z"/><path class="cls-5" d="M4025.37,1279s6.57,21.37-3.18,39.75-29.46,50.56-.73,56.23S4066.82,1294.19,4025.37,1279Z"/><path class="cls-5" d="M3877.61,1259.68s13.74,17.1,40.28,17c27-.09,57.77,6.45,47.2,30.67S3890.13,1314.27,3877.61,1259.68Z"/><path class="cls-30" d="M3883.91,1241.68c34.89,7.76,74.3,38.11,88.25,57.87,8.8,12.47,13.87,32.67,18.44,47.23,6.32,20.12,29,35.31,38.87,48.78,20.83,28.29-1.88,62.68,15.54,86.34,15.15,20.56,20.25,39.06,21.75,61.73,1.69,25.53,14.85,33.45,32.26,42.81,15.32,8.24,42.42,14.82,56.92,23.26,18.43,10.73,17.46,13.48,36.15,35,11.21,12.89,33-4,36.93,16,5.45,27.69,51.63,18.94,82,18.39"/><path class="cls-17" d="M1990,3206.23s259.41,155.16,446.1-21.82,58.18-152.74,198.8-242.44,210.93-186.69,106.68-254.57-111.53-80-46.07-169.71,36.37-162.44,31.52-196.38-58.19-177-181.83-123.65-128.5,261.84-177,295.78-53.34,24.25-157.59-2.42-186.68,99.4-184.25,225.47,0,189.11-118.8,257S1943.93,3183.61,1990,3206.23Z"/><path class="cls-9" d="M2601.78,2291.24a145.45,145.45,0,0,1,1.77,15.74c.25,5.29.33,10.59.15,15.88a238.56,238.56,0,0,1-3.24,31.65,329.82,329.82,0,0,1-16.5,61.56c-1.85,5-3.89,10-6.05,14.86s-4.47,9.77-7,14.55l-2,3.57c-.67,1.18-1.38,2.36-2.07,3.54l-2.21,3.5-2.2,3.37c-3,4.46-6,8.81-9,13.13-6,8.65-11.84,17.15-16.49,26a103.39,103.39,0,0,0-6,13.47,89,89,0,0,0-3.76,14.11c-1.82,9.73-2.51,20-3.49,30.59s-2.19,21.68-5.46,32.78a121.38,121.38,0,0,1-14.45,30.91,221.56,221.56,0,0,1-20.13,26.14c-14.18,16.24-29.19,30.78-40.94,46.86-2.93,4-5.66,8-8.22,12.29s-5,8.66-7.27,13.19c-4.65,9.05-8.89,18.58-13.51,28.2a284,284,0,0,1-15.51,28.91,124.22,124.22,0,0,1-21.85,26.49c-8.75,7.83-18.28,13.77-27.33,19.29s-17.81,10.6-25.33,16.62a117.54,117.54,0,0,0-35,46c-1.94,4.54-3.42,8.95-5.12,14.24-1.69,5.08-3.43,10.13-5.26,15.15-3.62,10.05-7.6,20-11.78,29.78s-8.64,19.52-13.42,29.08-9.89,19-15.25,28.17c-2.68,4.57-5.39,9.21-8.48,13.79a86.83,86.83,0,0,1-23.35,24c-4.49,3.18-9.11,6-13.76,8.7a200.17,200.17,0,0,1-29.33,13.46c-9.94,3.8-19.92,7.17-29.77,10.76s-19.57,7.46-28.63,12.54a72.22,72.22,0,0,0-12.77,8.86,44.2,44.2,0,0,0-9.78,12.15,41,41,0,0,1,3.7-7,48.17,48.17,0,0,1,5-6.26,75.09,75.09,0,0,1,12.25-10.32c8.86-6,18.5-10.69,28.11-15.14s19.34-8.52,28.82-12.9,18.72-9,27.19-14.65c8.63-5.67,16.9-11.66,23.3-18.94A80.44,80.44,0,0,0,2219,3008c2.58-4.3,5-8.85,7.46-13.48a530.06,530.06,0,0,0,25.71-56.75q5.61-14.54,10.48-29.35c1.64-4.93,3.18-9.89,4.68-14.85,1.4-4.76,3-10.44,5-15.67a122.75,122.75,0,0,1,7-15.4,130.44,130.44,0,0,1,8.94-14.41,140.63,140.63,0,0,1,10.68-13.2,134.31,134.31,0,0,1,12.37-11.72c8.8-7.35,18.22-13.09,27-18.7s17.17-11,24-17.36a109.39,109.39,0,0,0,18-22.33,263.36,263.36,0,0,0,14.2-26.83c4.44-9.39,8.89-19.06,13.87-28.74,2.5-4.84,5.16-9.67,8.06-14.43a166.28,166.28,0,0,1,9.43-13.9,306.09,306.09,0,0,1,21.31-24.79c7.29-7.81,14.66-15.26,21.61-22.83a213.81,213.81,0,0,0,19-23.41,102.73,102.73,0,0,0,13.1-25.72c3-9,4.63-18.95,6-29.27s2.57-21.09,5.18-32a104,104,0,0,1,5.19-16.16,112.29,112.29,0,0,1,7.68-15c5.74-9.5,12.4-18,19-26.25,3.29-4.13,6.56-8.21,9.72-12.33l2.34-3.09,2.17-3.08c.69-1.06,1.4-2.1,2.08-3.17l2-3.26a250.25,250.25,0,0,0,14-27.64c4.17-9.52,7.9-19.28,11.19-29.18s6.21-20,8.56-30.13c1.17-5.1,2.23-10.22,3.09-15.38s1.63-10.34,2.2-15.55.87-10.45,1-15.69S2602.22,2296.5,2601.78,2291.24Z"/><path class="cls-9" d="M2134.82,2983.4s-14,24.78,15.09,38.79C2149.91,3022.19,2161.76,2999.56,2134.82,2983.4Z"/><path class="cls-9" d="M2186.3,2900.42s-14,24.79,15.09,38.8C2201.39,2939.22,2213.24,2916.59,2186.3,2900.42Z"/><path class="cls-9" d="M2217.55,2800.21s-14,24.78,15.09,38.79C2232.64,2839,2244.49,2816.37,2217.55,2800.21Z"/><path class="cls-9" d="M2284.32,2740.09s-14,24.79,15.09,38.79C2299.41,2778.88,2311.26,2756.26,2284.32,2740.09Z"/><path class="cls-9" d="M2345.86,2667.89s-14,24.79,15.08,38.8C2360.94,2706.69,2372.8,2684.06,2345.86,2667.89Z"/><path class="cls-9" d="M2393.27,2574.14s-14,24.79,15.09,38.8C2408.36,2612.94,2420.21,2590.31,2393.27,2574.14Z"/><path class="cls-9" d="M2457.92,2514.88s-14,24.78,15.09,38.79C2473,2553.67,2484.86,2531,2457.92,2514.88Z"/><path class="cls-9" d="M2496.72,2413.86s-14,24.79,15.08,38.8C2511.8,2452.66,2523.66,2430,2496.72,2413.86Z"/><path class="cls-9" d="M2545.91,2344.56s-11.6,20.53,12.5,32.14C2558.41,2376.7,2568.23,2358,2545.91,2344.56Z"/><path class="cls-9" d="M2603,2501.75s-.2,28.46-32.41,26.12C2570.54,2527.87,2571.53,2502.34,2603,2501.75Z"/><path class="cls-9" d="M2589,2602.9s-5.8,27.87-36.91,19.23C2552.09,2622.13,2558.09,2597.3,2589,2602.9Z"/><path class="cls-9" d="M2534.59,2690.06s-10.33,26.52-39.59,12.85C2495,2702.91,2505,2679.41,2534.59,2690.06Z"/><path class="cls-9" d="M2496.39,2768s-16.81,23-41.56,2.23C2454.83,2770.19,2470.56,2750.07,2496.39,2768Z"/><path class="cls-9" d="M2298.3,3062.78s-21.08,19.14-41.17-6.15C2257.13,3056.63,2276.59,3040.08,2298.3,3062.78Z"/><path class="cls-9" d="M2343.08,2991.25s-16.48,23.21-41.53,2.83C2301.55,2994.08,2317,2973.73,2343.08,2991.25Z"/><path class="cls-9" d="M2382.2,2903s-15.41,23.94-41.35,4.72C2340.85,2907.72,2355.35,2886.69,2382.2,2903Z"/><path class="cls-9" d="M2446.42,2843.23s-12.75,25.45-40.61,9.13C2405.81,2852.36,2418,2829.89,2446.42,2843.23Z"/><path class="cls-9" d="M2651.13,2395.94s-.19,28.47-32.4,26.13C2618.73,2422.07,2619.72,2396.54,2651.13,2395.94Z"/><path class="cls-9" d="M2661.78,2306.81s-.16,23.91-27.21,21.94C2634.57,2328.75,2635.4,2307.31,2661.78,2306.81Z"/><path class="cls-31" d="M1572.16,1464.05l219.71,217.3a27.1,27.1,0,0,0,40-2.22l274-336.16"/><path class="cls-17" d="M1997.2,1481.08l65.24-119.16,23-58.13,21.13-66.57s11.8-6.7,32.77-9.91S2216,1208,2216,1208l44.58,15.66s28,10,49.23,3.64c34-10.12,18,33.51-2.33,38.75,0,0-38.75,19.25-65,3.66,0,0-32,51.41-46.61,55.34l3.49,72.15-67.88,97.92Z"/><polygon class="cls-17" points="2162.08 1421.93 2258.81 1397.21 2287.65 1361.88 2317.88 1332.78 2340.09 1296.07 2317.88 1259.23 2205.97 1277.71 2177.23 1348.83 2162.08 1421.93"/><path class="cls-17" d="M1906.4,2446.93c33.39-75.64,72.15-199.77,72.15-199.77s-259.6,50-369.55,148.23-74.34,227.7-74.34,227.7S1785.36,2721.12,1906.4,2446.93Z"/><path class="cls-3" d="M1845,2369.85s-101.35,120-310.29,253.24"/><path class="cls-13" d="M1349.27,2245.12c-56.07-38.33-150.51-88.29-150.51-88.29s1.42,217.18,64.22,320.74,172.73,94.24,172.73,94.24S1552.54,2384.06,1349.27,2245.12Z"/><path class="cls-3" d="M1258.65,2269s57.27,221.26,177.06,302.83"/><path class="cls-9" d="M1705.75,2258.22c-1.92-82.18-19.5-210.29-19.5-210.29s-212.49,154.75-270,289.61,29.34,236.35,29.34,236.35S1712.71,2556.16,1705.75,2258.22Z"/><path class="cls-3" d="M1617.28,2203.09s-66.79,206.67-171.64,370.8"/><path class="cls-3" d="M455.92,2328,625.49,1810.6s39.15-142.49,105.58-157.76A121.94,121.94,0,0,0,760,1642.52L956.36,1540.8l29.24-15.14s80.41,132.85,298.93,19.22v-19.22s141.59-35,174.81-22.73c0,0,114.79,35,305.34,286.69,0,0,178.27-213.77,212.1-313.79L2017,1370.07s90.31,5.25,171.89,159.08c0,0-84.65,157.39-110.71,229,0,0-35.29,74.62-111.25,163.48,0,0-44.35,76-93.28,126.71,0,0-55.94,101.39-169.57,15.73S1514,1871.78,1514,1871.78s-70.36,433.53-31.91,585.62,15.74,340.88,15.74,340.88-477.24,122.37-702.74,8.74S455.92,2328,455.92,2328Z"/><path class="cls-9" d="M841.74,2023.87s236.51,132.86,654.89-16.17L1476,2195.37s-542.22,123.35-675.08-9.51Z"/><path class="cls-32" d="M861.48,1961.26s355.56,111.37,646.46-33.64"/><path class="cls-11" d="M1915,2561.33c-.55-72.55-14.28-185.83-14.28-185.83S1711,2509.1,1658.47,2627.3s22.6,209,22.6,209S1917,2824.32,1915,2561.33Z"/><path class="cls-12" d="M1838,2521.81s-37.84,132.5-157,314.45"/><path class="cls-11" d="M1325.9,2457.79c-58.68-10.45-152.24-16.37-152.24-16.37s79.42,173.24,167,233.45S1512.81,2688,1512.81,2688,1538.6,2495.68,1325.9,2457.79Z"/><path class="cls-12" d="M1262,2509.55s125.57,156.38,250.81,178.46"/><path class="cls-11" d="M1686.43,2482.68c-31.16-65.06-91.4-161.22-91.4-161.22s-114.22,200.41-111.58,329S1592.11,2829,1592.11,2829,1799.38,2718.53,1686.43,2482.68Z"/><path class="cls-12" d="M1595.78,2470.46s21.06,189.42-3.67,358.52"/><path class="cls-13" d="M1510.88,2787.31c25.12-51.54,55.22-136.56,55.22-136.56s-181.21,27.9-260,93.09-57.46,155.86-57.46,155.86S1419.85,2974.17,1510.88,2787.31Z"/><path class="cls-3" d="M1470.31,2732.29s-73.36,80.49-221.64,167.41"/><path class="cls-13" d="M1130.06,2632.92c-37.86-28-102-65.11-102-65.11s-4.69,150.55,36.13,224,117.25,69.82,117.25,69.82S1267.3,2734.51,1130.06,2632.92Z"/><path class="cls-3" d="M1066.64,2647.09s33.91,154.83,114.8,214.49"/><path class="cls-13" d="M1376.76,2651.3c.81-57-8-146.24-8-146.24s-151.29,101.7-194.63,193.66,14.16,164.56,14.16,164.56S1373.8,2858,1376.76,2651.3Z"/><path class="cls-3" d="M1316.89,2610.79s-51.68,141.48-128.63,252.49"/><path class="cls-33" d="M968.91,1525.66s66.51,89.44,233,55.35c0,0,70.83-21,82.6-55.35"/><path class="cls-9" d="M758.69,2987.82c-13.78-38.31-7.38-85.3-34.61-115.57-12.26-13.64-29.54-21.43-44.92-31.42a175.22,175.22,0,0,1-75.2-109.9c-5.49-26.34-5.24-55.06-20-77.57-19.74-30.11-60.22-39.78-83.78-67-37.54-43.39-19.77-113.8-50.16-162.47-21.34-34.18-62.74-51.47-85.39-84.79-27-39.73-16.23-91.71-39.21-131.51-10.93-18.92-25.65-28.29-32.32-51.9-6.25-22.16-7-45.81-9.74-68.56a376.89,376.89,0,0,0-85.26-196.55c-18.72-22.25-41.16-53.25-24-76.77a282.14,282.14,0,0,1,159.66,81.56c41.61,42.71,69.56,98.64,117.2,134.52,34.88,26.27,77.53,39.61,116.71,58.9s77.63,47.95,90.24,89.76c13.73,45.57-5.92,98.15,15.3,140.75,27.1,54.39,107,65.27,134.07,119.65,23.44,47-.37,112.81,36.3,150.44,17.9,18.36,45,23.52,67.93,35,25.09,12.51,43.61,17.16,58.32,42.49,13,22.39,16.5,50.57,38.28,67.27,14.93,11.46,34.91,13.21,52.45,20,53.29,20.67,76,83.3,84.79,139.79,6.55,42.21,8.13,88.23-14.26,124.61-19.7,32-54.48,51-87.8,68.39-57.57,30-102.15,37.07-163.85,11.09C830.57,3077.45,777.33,3039.65,758.69,2987.82Z"/><path class="cls-3" d="M1096.52,3066.61a386.35,386.35,0,0,1-36.53-24.92,408.68,408.68,0,0,1-33.55-29,398.25,398.25,0,0,1-56.7-68.57c-8.18-12.47-15.52-25.31-23.11-37.8-3.8-6.23-7.63-12.4-11.62-18.41s-8.2-11.8-12.63-17.35a158.78,158.78,0,0,0-14.21-15.6c-1.28-1.19-2.48-2.45-3.83-3.57l-4-3.41c-1.32-1.14-2.76-2.17-4.13-3.26l-2.07-1.62c-.7-.53-1.44-1-2.15-1.55-11.43-8.29-24-15.33-36.81-22.51s-25.94-14.41-38.53-23.19a171.7,171.7,0,0,1-18.15-14.46,179.71,179.71,0,0,1-16.08-16.82,237.09,237.09,0,0,1-25.58-38.09c-7.32-13.27-13.63-26.88-19.65-40.43s-11.68-27.11-17.65-40.34-12.24-26.18-19.31-38.48c-3.58-6.12-7.29-12.08-11.32-17.89s-8.3-11.51-12.76-17.13C667.28,2561,657.65,2550,648,2539s-19.45-22.37-28.7-34.33a258.75,258.75,0,0,1-25.1-38.46,179.93,179.93,0,0,1-9.42-21.44,183.34,183.34,0,0,1-6.44-22.47c-3.31-15-5.11-29.92-7.07-44.37-1-7.22-2-14.34-3.31-21.32l-1-5.2-1.14-5.14c-.38-1.71-.86-3.38-1.29-5.08l-.66-2.53c-.22-.84-.5-1.67-.74-2.51a195.68,195.68,0,0,0-7-19.76,191.19,191.19,0,0,0-20.28-36.77c-1-1.46-2.07-2.83-3.1-4.25s-2.08-2.83-3.2-4.18l-3.29-4.11-3.45-4A180.35,180.35,0,0,0,508,2248c-2.54-2.42-5.31-4.64-8-6.94l-4.18-3.33-2.1-1.66-2.15-1.62c-11.44-8.65-23.63-16.81-35.72-25.51-6-4.39-12.08-8.84-17.91-13.71-3-2.35-5.78-4.95-8.63-7.47-1.4-1.3-2.76-2.66-4.14-4l-2.06-2-2-2.11-3.92-4.25-3.7-4.48c-.6-.75-1.26-1.46-1.82-2.26l-1.71-2.36c-1.12-1.59-2.31-3.13-3.37-4.76a142.9,142.9,0,0,1-11-20.28c-6.21-13.93-10.52-28.21-15-42.18A453.4,453.4,0,0,0,347,2018.49q-10.33-19.32-22.61-37.62c-8.1-12.22-16.89-24-26.15-35.45A417.16,417.16,0,0,1,327,1979a438.7,438.7,0,0,1,25.11,36.56,423.34,423.34,0,0,1,21.29,39c1.62,3.34,3.12,6.74,4.68,10.11s2.94,6.83,4.41,10.24l4.15,10.36q2,5.19,3.91,10.4c5.09,13.83,9.89,27.6,16.24,40.3a134.36,134.36,0,0,0,10.7,18.08c1,1.42,2.12,2.75,3.16,4.13l1.6,2.05c.52.69,1.14,1.31,1.71,2l3.47,3.91,3.7,3.71,1.86,1.86,2,1.76c1.32,1.18,2.6,2.38,3.94,3.53,2.74,2.24,5.4,4.55,8.27,6.69,5.61,4.39,11.54,8.49,17.53,12.57,12,8.11,24.58,15.9,36.82,24.71l2.3,1.64,2.27,1.7,4.54,3.43c3,2.41,6,4.72,8.86,7.3a198.58,198.58,0,0,1,16.55,16l3.87,4.27,3.69,4.42c1.25,1.46,2.42,3,3.59,4.51s2.39,3,3.49,4.59a208.42,208.42,0,0,1,23.06,39.9c.82,1.74,1.49,3.55,2.24,5.33s1.47,3.56,2.1,5.39l2,5.44,1.76,5.51c.29.92.6,1.84.87,2.76l.77,2.8c.5,1.86,1,3.72,1.5,5.59l1.33,5.61,1.19,5.6c1.49,7.47,2.68,14.89,3.79,22.22,2.23,14.66,4,29,7.21,42.69a163.79,163.79,0,0,0,5.88,19.86,157.12,157.12,0,0,0,8.48,18.85,241.12,241.12,0,0,0,23.2,35.24c8.78,11.29,18.32,22.22,28,33.28s19.46,22.27,28.79,34.11c4.66,5.91,9.21,12,13.53,18.29s8.41,12.82,12.17,19.44a449.29,449.29,0,0,1,19.93,40.52c6,13.63,11.58,27.26,17.29,40.68s11.62,26.6,18.33,39.18a226.8,226.8,0,0,0,22.88,35.5,155.61,155.61,0,0,0,30.13,28.68c11.34,8.36,23.82,15.7,36.48,23.21s25.57,15.29,37.71,24.65c.75.58,1.53,1.14,2.27,1.75l2.22,1.84c1.47,1.24,3,2.41,4.41,3.72l4.28,3.9c1.44,1.29,2.74,2.73,4.12,4.08A167.51,167.51,0,0,1,933.43,2862c4.52,6.11,8.73,12.4,12.66,18.79s7.62,12.85,11.19,19.34c7.15,13,13.91,26,21.32,38.45a415.58,415.58,0,0,0,52.05,70,409.11,409.11,0,0,0,31.38,30.66A426.73,426.73,0,0,0,1096.52,3066.61Z"/><path class="cls-3" d="M402.37,2232.53a30.24,30.24,0,0,1,4.18-.94,37.53,37.53,0,0,1,3.78-.41,39.05,39.05,0,0,1,6.81.16,37.78,37.78,0,0,1,11.69,3.25,37.21,37.21,0,0,1,10.07,6.77,37.84,37.84,0,0,1,4.54,5.08c.72,1,1.44,2,2.13,3.16a29.13,29.13,0,0,1,2,3.8,26.68,26.68,0,0,1-7.68,2.9,30.46,30.46,0,0,1-7.13.68,32.87,32.87,0,0,1-23.49-10.88,30.68,30.68,0,0,1-4.11-5.87A26.89,26.89,0,0,1,402.37,2232.53Z"/><path class="cls-3" d="M449.22,2366.13a33.07,33.07,0,0,1,5-1.43c1.64-.35,3.24-.57,4.83-.76a56.16,56.16,0,0,1,9.22-.23,65.75,65.75,0,0,1,17.17,3.34,64.77,64.77,0,0,1,15.72,7.66,56.33,56.33,0,0,1,7.22,5.75c1.15,1.11,2.29,2.25,3.38,3.53a32.23,32.23,0,0,1,3.17,4.2,33.25,33.25,0,0,1-5.06,1.44c-1.64.36-3.24.58-4.83.77a56.16,56.16,0,0,1-9.22.23,64.8,64.8,0,0,1-17.16-3.36,65.78,65.78,0,0,1-15.71-7.7,55.38,55.38,0,0,1-7.22-5.74c-1.15-1.11-2.29-2.25-3.39-3.52A32.67,32.67,0,0,1,449.22,2366.13Z"/><path class="cls-3" d="M467.45,2140.54a28.36,28.36,0,0,1-10.06-5.49,15.69,15.69,0,0,1-4.51-6.44,15.4,15.4,0,0,1-.63-7.83,28,28,0,0,1,4.32-10.64,20.32,20.32,0,0,1,11.12,4,15.68,15.68,0,0,1,5.27,7.24,15.86,15.86,0,0,1,.49,8.95A20.28,20.28,0,0,1,467.45,2140.54Z"/><path class="cls-3" d="M582.92,2234.44a35.78,35.78,0,0,1-.94-5.55c-.2-1.8-.26-3.55-.3-5.29a67.69,67.69,0,0,1,.67-10.07,80.23,80.23,0,0,1,5.06-18.63A78.67,78.67,0,0,1,596.7,2178a66.6,66.6,0,0,1,6.52-7.71c1.23-1.22,2.5-2.43,3.9-3.59a37.11,37.11,0,0,1,4.55-3.33,36.22,36.22,0,0,1,1,5.56c.2,1.8.27,3.56.31,5.29a67.6,67.6,0,0,1-.67,10.07,81.81,81.81,0,0,1-14.4,35.54,66.6,66.6,0,0,1-6.52,7.71c-1.23,1.23-2.49,2.44-3.89,3.6A36,36,0,0,1,582.92,2234.44Z"/><path class="cls-3" d="M621.63,2387.75a37,37,0,0,1-.6-9.86,48.4,48.4,0,0,1,1.42-8.93,56.63,56.63,0,0,1,18.14-28.77,48.32,48.32,0,0,1,7.46-5.11,36.82,36.82,0,0,1,9.19-3.66,31.69,31.69,0,0,1-.09,5.1c-.11,1.63-.34,3.17-.59,4.68s-.56,3-.93,4.38-.75,2.8-1.21,4.14a67,67,0,0,1-7.08,14.85,68.39,68.39,0,0,1-10.4,12.76c-1,1-2.09,2-3.23,2.87s-2.3,1.85-3.55,2.73-2.55,1.73-4,2.54A33,33,0,0,1,621.63,2387.75Z"/><path class="cls-3" d="M550.47,2523.93a26.7,26.7,0,0,1,5.82-5.53,30.29,30.29,0,0,1,6.09-3.35,31.65,31.65,0,0,1,24.89.54,29.83,29.83,0,0,1,5.93,3.63,26.57,26.57,0,0,1,5.55,5.82,26.47,26.47,0,0,1-3.3,2.64,36.18,36.18,0,0,1-9.29,4.67,34.54,34.54,0,0,1-11.77,1.74,34.93,34.93,0,0,1-11.67-2.31,36.1,36.1,0,0,1-6-3c-1-.64-2-1.31-3.08-2.11A27.7,27.7,0,0,1,550.47,2523.93Z"/><path class="cls-3" d="M737.92,2528.16a31.86,31.86,0,0,1-1.83-4.84c-.48-1.58-.83-3.13-1.14-4.67a54.49,54.49,0,0,1-1-9,64.28,64.28,0,0,1,8.31-32.93,53.11,53.11,0,0,1,5.15-7.45,46.34,46.34,0,0,1,3.24-3.56,31.56,31.56,0,0,1,3.92-3.39,31.39,31.39,0,0,1,1.84,4.85c.49,1.58.84,3.13,1.16,4.67a54.49,54.49,0,0,1,1,9,62.48,62.48,0,0,1-2,17,63.17,63.17,0,0,1-6.4,15.89,54.58,54.58,0,0,1-5.14,7.46c-1,1.21-2.06,2.4-3.24,3.56A31.32,31.32,0,0,1,737.92,2528.16Z"/><path class="cls-3" d="M641.77,2684.55a23.33,23.33,0,0,1,3.08-2.5,31.18,31.18,0,0,1,3-1.82,28.16,28.16,0,0,1,5.72-2.28,25.76,25.76,0,0,1,10.81-.6,25.43,25.43,0,0,1,10.1,3.91,27.64,27.64,0,0,1,4.72,3.95,29.37,29.37,0,0,1,2.26,2.66,24,24,0,0,1,2.14,3.35,24.43,24.43,0,0,1-3.08,2.52,31.29,31.29,0,0,1-3,1.82,27,27,0,0,1-5.72,2.28,25.69,25.69,0,0,1-20.89-3.36,27.31,27.31,0,0,1-4.73-3.95,30.63,30.63,0,0,1-2.26-2.65A24.27,24.27,0,0,1,641.77,2684.55Z"/><path class="cls-3" d="M817.24,2683.2a29.23,29.23,0,0,1-.7-4.85c-.12-1.55-.12-3-.09-4.5a48.52,48.52,0,0,1,1-8.36,53.56,53.56,0,0,1,5.54-14.78,53,53,0,0,1,9.54-12.56,47,47,0,0,1,6.54-5.31,44,44,0,0,1,3.87-2.32,29,29,0,0,1,4.49-2,29.35,29.35,0,0,1,.72,4.85c.12,1.56.12,3,.09,4.51a47.45,47.45,0,0,1-1,8.36,54.48,54.48,0,0,1-15.14,27.31,47.47,47.47,0,0,1-6.53,5.31,44,44,0,0,1-3.87,2.32A29.23,29.23,0,0,1,817.24,2683.2Z"/></g><polygon class="cls-17" points="1731.98 780.41 1879.56 738.45 1785.16 654.54 1731.98 780.41"/><path class="cls-22" d="M1686.57,914.18c31.54,5.7,13.3,108.67,13.3,108.67s-10.82-40.3-33.69-76.48c-20.41-32.28-47.55-7-53.15-1.12a14,14,0,0,1-2.6,2.14c-46.26,29.41-112.07-16.51-112.07-16.51,22.73,11-112.46-39.28-112.46-39.28C1316,806.82,1353,772.29,1353,772.29c-2.28-21-15.14-40.07-25.07-52a83.58,83.58,0,0,1-18.19-38.48c-11.2-61.69,5.22-115.93,17.71-145.73a59.75,59.75,0,0,1,29.12-30.44c21.76-10.65,32.55-28.64,37.88-43.17a186.14,186.14,0,0,1,39-63.92c50-52.94,107-86.76,121.07-94.71a14.6,14.6,0,0,0,4.8-4.28c21.12-30.07,110-24.93,136.24-22.7a15.41,15.41,0,0,0,11.8-4.13c42.12-39.09,150.26,12.91,169.32,22.56a15.09,15.09,0,0,0,6,1.61c59.63,3.22,79.69,60.46,85.57,85a15.28,15.28,0,0,0,13,11.58c82.83,10.29,115,162,115,162,12.7,95.32-54.76,117.54-63.34,121.76a14.3,14.3,0,0,0-2.89,1.84c-12.84,10.42-35,33.06-43.7,42.11a15.35,15.35,0,0,1-9.42,4.6c-24.58,2.59-36-4.13-41.14-11.87a15.27,15.27,0,0,0-21.52-3.78c-31.86,22.56-55.82,20.16-70.49,14a15.08,15.08,0,0,0-20,8.66c-6.11,15.92-19.46,20.54-28.66,21.75a15.29,15.29,0,0,0-12.51,10.74c-4.36,14.23-10.94,26.29-30.74,41.5-12.44,9.55-17.65,32.91-19.77,53.57a15.3,15.3,0,0,1-26.7,8.57h0a15.24,15.24,0,0,1-3.38-6.45l-7.74-31.39a16.11,16.11,0,0,1-.32-1.71c-3.53-26.64-35.44-24.44-45.45-23.08a14.88,14.88,0,0,0-5.6,1.93c-3.72,2.19-12.08,6.37-12.73,13C1630.15,821.31,1599.61,898.45,1686.57,914.18Z"/><path class="cls-34" d="M1638.58,947.39a4.41,4.41,0,0,0,3.09,1.52c4.34.57,8.5-1.69,12.3-3.87,5.46-3.15,15.55-7.66,18.4-13.73a5.22,5.22,0,0,0,.61-3.62,70.16,70.16,0,0,0,6.63-7.05c.74,5.26,1.29,10.56,1.77,15.85l1,11.39c-1.95,2.16-3.9,4.25-5.92,6.28-2.05-1.24-5.77-.33-8.21.94a78.1,78.1,0,0,0-13,8.83c-3.72,3-18,14.49-11.74,20.37a5,5,0,0,0,3.74,1c4.93-.27,9.06-3.64,12.81-6.85,5.4-4.62,15.64-11.7,17.53-19a7.26,7.26,0,0,0,.23-3.24l.06-.08a45.68,45.68,0,0,0,4.55-7l.85,10.15,2,22.83c0,.33.06.67.1,1-2.17,1.68-4.25,3.45-6.29,5.25-2.32-.85-5.92.38-8.27,1.87a82,82,0,0,0-13,10.47c-3.68,3.54-17.82,16.9-10.68,22.59a5.29,5.29,0,0,0,4,.78c5.2-.71,9.28-4.64,13-8.36,5.33-5.36,15.56-13.75,16.94-21.66a6.41,6.41,0,0,0-.41-4.33c1.62-1.9,3.2-3.83,4.71-5.83.81,8.29,1.57,16.59,2.42,24.88-1.74,3.16-3.59,6.18-5.6,9.12l-.69,1c-2.37-2.09-6.87.38-9.35,2.83a83.1,83.1,0,0,0-10.45,13c-2.84,4.24-13.82,20.3-5.63,24.35a5.32,5.32,0,0,0,4.12-.1c4.92-1.8,8.09-6.5,10.91-10.92,4.07-6.37,12.28-16.74,12-24.77a11.5,11.5,0,0,0-.18-1.58c.49-.83,1-1.68,1.42-2.53a47.53,47.53,0,0,0,3.66-8.86c.6,5.81,1.25,11.62,2,17.42q.38,3,.78,6.06c-2.07,1.29-3.42,4.74-3.8,7.43a83.56,83.56,0,0,0-.42,16.66c.32,5.09,1.35,24.52,10.31,22.76a5.28,5.28,0,0,0,3.22-2.58c2.82-4.42,2.47-10.07,2-15.3-.64-7.53-.4-20.76-5.54-26.94a6.29,6.29,0,0,0-3.61-2.5c-.18-1.95-.37-3.91-.56-5.86l-1.06-11.39-.42-4.87a49.57,49.57,0,0,0,4.69,6.87c.61.76,1.24,1.49,1.88,2.22a10.27,10.27,0,0,0,.13,1.58c1.22,7.94,11.27,16.54,16.48,22,3.62,3.8,7.63,7.81,12.81,8.63a5.3,5.3,0,0,0,4.06-.7c7.26-5.54-6.6-19.19-10.2-22.81a82.18,82.18,0,0,0-12.75-10.73c-2.9-1.93-7.79-3.49-9.72-1l-.87-.85c-2.32-2.28-4.54-4.66-6.67-7.18l-.39-4.59-1.92-21.59c2,1.85,4.14,3.61,6.28,5.31a6.31,6.31,0,0,0,.43,4.32c2.87,7.51,14.52,13.78,20.78,18,4.34,2.94,9.11,6,14.34,5.71a5.33,5.33,0,0,0,3.83-1.55c5.91-6.95-10.53-17.35-14.82-20.12a83,83,0,0,0-14.73-7.79c-2.59-1-6.37-1.52-8.47-.24-2.51-1.47-5.06-2.89-7.69-4.2l-.06-.7c-1.06-11-2.09-22-3.24-33a44.27,44.27,0,0,0,6.92,7.43l.07.06a7.41,7.41,0,0,0,.85,3.14c3.26,6.81,14.67,11.8,20.86,15.3,4.29,2.43,9,4.94,13.88,4.26a5,5,0,0,0,3.47-1.74c5-7-11.19-15.47-15.43-17.74a77.88,77.88,0,0,0-14.4-6.17c-2.64-.79-6.46-1-8.25.64-2.71-1.83-5.36-3.77-8-5.8q-.65-6-1.33-12c-.64-5.28-1.39-10.57-2.35-15.82a70.63,70.63,0,0,0,7.91,5.69,5.19,5.19,0,0,0,1.3,3.44c4,5.41,14.72,7.9,20.69,9.93,4.15,1.42,8.66,2.84,12.81,1.45a4.42,4.42,0,0,0,2.74-2.09c3.24-6.9-12.29-11.66-16.36-12.94a68.47,68.47,0,0,0-13.57-3,10.32,10.32,0,0,0-6.28,1.16l-.16-.07c-3-1.33-6-2.66-9.13-3.79-.41-2.22-.85-4.43-1.35-6.62a114.46,114.46,0,0,0-7.13-21.83,147.46,147.46,0,0,1,6.65,28.67c-2.84,1.69-5.51,3.56-8.16,5.43l-.14.09a10.35,10.35,0,0,0-6.39.07,69,69,0,0,0-12.74,5.57C1648.41,933.59,1634.09,941.24,1638.58,947.39Z"/><circle class="cls-14" cx="1676.2" cy="901.03" r="17.48"/><path class="cls-22" d="M3809,810.28s-18.18-37.5,29-65.46,192.37,70.95,110.17,168.32S3827.21,874,3809,810.28Z"/><path class="cls-22" d="M3443.9,973.18s9.27-8.63-30.62-70.49,10.5-97.9,38.46-93.8,21-78.06,85.65-72.81,57.68,61.18,101.38,21,59.44-52.92,117.12-21.22,90.19,159.09,134.25,204.65,87.75,106.74,70.27,140-62.93,61.18-71.67,92.64,12.24,86.56-10.49,118.45-60.61,79.08-112.46,63.35-136.66-14.52-142.75-153.83c0,0,2.38-32.73,30.27-28.67,19.2,2.8,52.44-54,28.11-74.58-33.81-28.55-54.88,24.59-61.87,42.07,0,0-24.21,14-33.08-8.74s36.57-3.5,31.33-55.94L3605.62,1038s-5.3-22.46,13.93-52.07-14-20.1-24.48-45-26.22-29.06-45.45-27.83-51.31-10.45-61.08,7.05C3468.65,955.84,3459.09,954.29,3443.9,973.18Z"/><polygon class="cls-14" points="3645.73 1165.97 3673.12 1282.51 3542.59 1249.3 3645.73 1165.97"/><polygon class="cls-16" points="3547.99 1272.94 3641.39 1173.71 3673.12 1293.14 3547.99 1272.94"/><path class="cls-35" d="M3154.43,1522.48s.83,41.23,9.79,74.35a115.88,115.88,0,0,0,86.73,83c26.19,5.79,60.1,16.57,81.29,35.83,0,0,40.89,42.35,79.25,74.19a160.76,160.76,0,0,0,91,36.6c53.9,3.92,152.06,12.79,199.2,28,9.92,3.2,17.58,6.67,22.1,10.43,24.76,20.64,58.74,53,95.4,71.94a121.15,121.15,0,0,0,80.23,10.94c16.24-3.38,30.3-9.56,20.92-20.73"/><path class="cls-35" d="M3125.09,1551.21s8.89,33.78,17.85,66.9a115.89,115.89,0,0,0,86.73,83c26.19,5.79,60.1,16.57,81.29,35.82,0,0,40.89,42.35,79.25,74.2a160.76,160.76,0,0,0,91,36.6c53.9,3.92,152.06,12.79,199.2,28,9.92,3.19,17.58,6.67,22.1,10.43,24.76,20.63,58.74,53,95.4,71.93a121.1,121.1,0,0,0,80.23,11c16.24-3.38,54.6-11.41,45.22-22.58"/><path class="cls-17" d="M173.33,2624.75c5.61,0,8.31,2.84,12.59,7.86s9.74,11.4,20.3,11.4,16-6.32,20.3-11.4,7-7.86,12.6-7.86,8.3,2.84,12.58,7.86S261.43,2644,272,2644s16-6.32,20.3-11.4,7-7.86,12.59-7.86,8.32,2.84,12.6,7.86,9.74,11.4,20.29,11.4,16-6.32,20.3-11.4,7-7.86,12.6-7.86,8.32,2.84,12.6,7.86,9.74,11.4,20.3,11.4,16-6.32,20.3-11.4,7-7.86,12.6-7.86,8.32,2.84,12.6,7.86,9.74,11.4,20.29,11.4,16-6.32,20.31-11.4,7-7.86,12.61-7.86,8.33,2.84,12.63,7.86,9.74,11.4,20.31,11.4,16-6.32,20.31-11.4,7-7.86,12.63-7.86a5.06,5.06,0,1,0,0-10.12c-10.57,0-16,6.32-20.32,11.4s-7,7.86-12.62,7.86-8.33-2.84-12.62-7.86-9.75-11.4-20.32-11.4S486.3,2621,482,2626s-7,7.86-12.61,7.86-8.31-2.84-12.59-7.86-9.74-11.4-20.3-11.4-16,6.32-20.29,11.4-7,7.86-12.61,7.86-8.32-2.84-12.6-7.86-9.74-11.4-20.3-11.4-16,6.32-20.3,11.4-7,7.86-12.6,7.86-8.31-2.84-12.59-7.86-9.75-11.4-20.3-11.4-16,6.33-20.3,11.4-7,7.86-12.59,7.86-8.3-2.84-12.58-7.86-9.73-11.4-20.28-11.4-16,6.33-20.3,11.4-7,7.86-12.6,7.86-8.31-2.84-12.59-7.86-9.74-11.4-20.3-11.4a5.06,5.06,0,0,0,0,10.12Z"/><polygon class="cls-17" points="2286.05 405.45 2277.45 409.31 2240.61 340.06 2171.3 371.18 2166.73 362.59 2236.05 331.48 2199.21 262.24 2207.8 258.38 2244.64 327.63 2313.95 296.52 2318.52 305.1 2249.2 336.21 2286.05 405.45"/><polygon class="cls-17" points="3507.13 2741.74 3506.14 2747.77 3455.45 2742.89 3447.45 2791.56 3441.16 2790.95 3449.17 2742.28 3398.49 2737.4 3399.48 2731.37 3450.16 2736.25 3458.17 2687.58 3464.46 2688.18 3456.45 2736.85 3507.13 2741.74"/><path class="cls-17" d="M3403.21,2471.64c5.61,0,8.31,2.84,12.59,7.85s9.74,11.41,20.3,11.41,16-6.32,20.3-11.4,7-7.86,12.6-7.86,8.3,2.84,12.58,7.85,9.73,11.41,20.28,11.41,16-6.33,20.3-11.41,7-7.85,12.59-7.85,8.32,2.84,12.6,7.86,9.74,11.4,20.29,11.4,16-6.33,20.3-11.41,7-7.85,12.6-7.85,8.32,2.84,12.6,7.86,9.74,11.4,20.3,11.4,16-6.32,20.3-11.41,7-7.85,12.6-7.85,8.32,2.84,12.6,7.85,9.74,11.41,20.29,11.41,16-6.32,20.31-11.4,7-7.86,12.61-7.86,8.34,2.84,12.63,7.86,9.74,11.4,20.31,11.4,16-6.32,20.31-11.4,7-7.86,12.63-7.86a5.06,5.06,0,1,0,0-10.12c-10.57,0-16,6.32-20.32,11.4s-7,7.85-12.62,7.85-8.33-2.84-12.62-7.85-9.75-11.4-20.32-11.4-16,6.32-20.31,11.4-7,7.85-12.61,7.85-8.31-2.83-12.59-7.85-9.74-11.4-20.3-11.4-16,6.32-20.29,11.4-7,7.85-12.61,7.85-8.32-2.83-12.6-7.85-9.74-11.4-20.3-11.4-16,6.32-20.3,11.4-7,7.85-12.6,7.85-8.31-2.83-12.59-7.85-9.75-11.4-20.3-11.4-16,6.32-20.3,11.4-7,7.85-12.59,7.85-8.3-2.83-12.58-7.85-9.73-11.4-20.28-11.4-16,6.32-20.3,11.4-7,7.85-12.6,7.85-8.31-2.83-12.59-7.85-9.74-11.4-20.3-11.4a5.06,5.06,0,0,0,0,10.12Z"/><path class="cls-17" d="M3548.21,2553.12c5.62,0,8.32,2.84,12.6,7.86s9.74,11.4,20.29,11.4,16-6.32,20.3-11.4,7-7.86,12.6-7.86,8.3,2.84,12.58,7.86,9.74,11.4,20.29,11.4,16-6.32,20.29-11.4,7-7.86,12.59-7.86,8.32,2.84,12.6,7.86,9.74,11.4,20.3,11.4,16-6.32,20.3-11.4,7-7.86,12.59-7.86,8.32,2.84,12.6,7.86,9.75,11.4,20.3,11.4,16-6.32,20.31-11.4,7-7.86,12.6-7.86,8.31,2.84,12.59,7.86,9.74,11.4,20.3,11.4,16-6.32,20.3-11.4,7-7.86,12.62-7.86,8.33,2.84,12.62,7.86,9.75,11.4,20.31,11.4,16-6.32,20.32-11.4,7-7.86,12.62-7.86a5.06,5.06,0,1,0,0-10.12c-10.56,0-16,6.32-20.31,11.4s-7,7.86-12.63,7.86-8.33-2.84-12.62-7.86-9.75-11.4-20.31-11.4-16,6.32-20.32,11.4-7,7.86-12.6,7.86-8.32-2.84-12.6-7.86-9.73-11.4-20.29-11.4-16,6.32-20.3,11.4-7,7.86-12.61,7.86-8.31-2.84-12.59-7.86-9.75-11.4-20.31-11.4-15.95,6.32-20.29,11.4-7,7.86-12.6,7.86-8.32-2.84-12.6-7.86-9.74-11.4-20.3-11.4-15.95,6.32-20.29,11.4-7,7.86-12.59,7.86-8.31-2.84-12.59-7.86-9.73-11.4-20.28-11.4-16,6.32-20.3,11.4-7,7.86-12.6,7.86-8.31-2.84-12.59-7.86-9.74-11.4-20.3-11.4a5.06,5.06,0,0,0,0,10.12Z"/><circle class="cls-36" cx="518.67" cy="1190.24" r="73.97"/><circle class="cls-36" cx="1092.7" cy="2410.11" r="57.96"/><circle class="cls-36" cx="4102.93" cy="1099.82" r="49.48"/><path class="cls-17" d="M499.19,1591.12c8.16-9.53,9.38-28.57,7-42.39-4.76-28.13-13.64-55.9-24-82.44-9.53-24.53-44.88-118.31-86.14-95.7-6.39,3.51-9.91,10.65-11.78,17.69-6.94,26.11,3.57,53.35,13.9,78.33,14.89,36,34.4,101.29,69.27,123.6,8.89,5.69,16,7.5,21.61,6.66"/></g></svg>