<?xml version="1.0" encoding="utf-8"?>
<!-- Generator: Adobe Illustrator 23.0.0, SVG Export Plug-In . SVG Version: 6.00 Build 0)  -->
<svg version="1.1" xmlns="http://www.w3.org/2000/svg" xmlns:xlink="http://www.w3.org/1999/xlink" x="0px" y="0px"
	 viewBox="0 0 4345.2 3051" style="enable-background:new 0 0 4345.2 3051;" xml:space="preserve">
<style type="text/css">
	.st0{fill:#573499;}
	.st1{fill:#7455FF;}
	.st2{fill:#FF7A46;}
	.st3{fill:#FD387C;}
	.st4{fill:#FECC90;}
	.st5{fill:#9DBEFF;}
	.st6{opacity:0.5;fill:#FECC90;}
	.st7{fill:#FFFFFF;}
	.st8{fill:#2952A7;}
	.st9{fill:#FDDCBE;}
	.st10{opacity:0.5;fill:#8B80D8;}
	.st11{fill:none;stroke:#FF7A46;stroke-width:14.1732;stroke-miterlimit:10;}
	.st12{fill:#463277;}
	.st13{fill:#D8423A;}
	.st14{fill:none;stroke:#573499;stroke-width:21.6216;stroke-miterlimit:10;}
	.st15{fill:none;stroke:#573499;stroke-width:17.0079;stroke-miterlimit:10;}
	.st16{fill:none;stroke:#573499;stroke-width:14.6091;stroke-miterlimit:10;}
	.st17{fill:none;stroke:#463277;stroke-width:17.0079;stroke-miterlimit:10;}
	.st18{fill:none;stroke:#573499;stroke-width:8.5039;stroke-miterlimit:10;}
	.st19{fill:none;stroke:#FD387C;stroke-width:4;stroke-miterlimit:10;}
</style>
<g id="Camada_1">
	<rect x="-1397.9" y="112.6" class="st0" width="403.5" height="403.5"/>
	<rect x="-1397.9" y="594" class="st1" width="403.5" height="403.5"/>
	<rect x="-1397.9" y="1115.7" class="st2" width="403.5" height="403.5"/>
	<rect x="-864.1" y="1255" class="st3" width="403.5" height="403.5"/>
	<rect x="-1397.9" y="1617.2" class="st4" width="403.5" height="403.5"/>
	<rect x="-1397.9" y="2118.7" class="st5" width="403.5" height="403.5"/>
</g>
<g id="Camada_2">
	<path class="st4" d="M3625.2,2180.6c164.2-218.9,589.5-897.1-280.8-1084.2c0,0-139.8-11.2-229.2-296.3c0,0-126.8-398-511.2-308.9
		c0,0-492.4,176.5-954.6-97.2c0,0-1150.2-685.6-1063.2,329.9c18.4,215.2-347.8,473.3-332.2,1002
		c27.7,941.4,479.4,1077.6,858.2,1191.7c724.4,218.1,850.2-246.7,1182.6-102.3c371,161.1,1211.7,113.9,1272.4-486.6
		C3572.5,2275,3592.8,2223.8,3625.2,2180.6z"/>
	<path class="st6" d="M3828.8,2210.6c164.2-218.9,589.5-897.1-280.8-1084.2c0,0-139.8-11.2-229.2-296.3c0,0-126.8-398-511.2-308.9
		c0,0-492.4,176.5-954.6-97.2c0,0-1150.2-685.6-1063.2,329.9c18.4,215.2-347.8,473.3-332.2,1002
		c27.7,941.4,479.4,1077.6,858.2,1191.7c724.4,218.1,850.2-246.7,1182.6-102.3c371,161.1,1211.7,113.9,1272.4-486.6
		C3776,2305,3796.3,2253.8,3828.8,2210.6z"/>
	<path class="st7" d="M3062.7,2190c1.2-6.7-1.9-13.5-5.9-19.1c-14.9-20.5-41-29-65.4-36.3c-35.1-10.5-94.3-34.9-131.2-22.7
		c-9.5,3.1-15,7.3-17.7,11.9c-18.7-1.1-37.4-1.2-56.1,0.2c19.2-24.1,39.3-47.6,59.6-70.7l44.1-49.5c16.8-0.4,33.4-0.6,50-0.2
		c3,13.6,21.6,25.6,36.8,30.8c28.6,9.8,58.9,15.5,88.8,19.3c27.6,3.5,132.8,17.9,132.5-31.9c0-7.7-4.9-14.6-10.5-19.9
		c-20.8-19.6-51.5-23.6-79.9-26.6c-41-4.3-111.6-19.1-150,2.1c-7,3.9-11.7,7.9-14.6,12c-0.2,0-0.4,0-0.5,0
		c-16.1,1.6-32.1,4.3-47.6,8.7l39.3-44.1l87.9-99.6c1.3-1.5,2.6-3,3.9-4.5c15.7,2.4,31.5,4.1,47.2,5.5c5.6,13.1,25.2,23.4,40.8,27.4
		c31.1,7.9,63.8,11.3,95.8,12.8c29.6,1.3,142.2,7.5,137.7-45.2c-0.7-8.2-6.5-15-12.9-20.2c-23.7-19-56.6-20.6-87-21.3
		c-43.8-1-119.9-10.6-158.7,15.2c-9.8,6.5-14.9,12.9-16.6,19c-14.4,0.8-28.9,1.8-43.3,3.4c31.7-36.5,63.5-72.8,95.1-109.5
		c20.2-5.3,40.4-9.5,60.7-12.8c2.3-0.4,4.7-0.7,7-1.1c0.7,18.3,29,27.4,49.2,28.1c32.1,1.1,64.7-2.5,96.3-7.8
		c29.2-5,140.6-22.8,124.9-73.4c-2.4-7.8-9.5-13.3-16.8-17c-27.2-13.5-59.6-8.1-89.5-2.3c-43,8.3-119.4,15.1-151.9,48.5
		c-2.4,2.4-4.3,4.8-5.9,7c-5.5,1.3-10.9,2.6-16.3,4.2c-17.8,5-35.4,11.4-51.8,19.9c22-25.7,43.9-51.6,65.3-78
		c7.5-9.1,14.9-18.3,22.4-27.5c13.7,3.6,33.5-4.5,46.4-13.7c26.2-18.6,49.9-41.2,71.8-64.7c20.2-21.7,97.8-103.5,54.7-134.2
		c-6.7-4.8-15.6-4.8-23.7-3.3c-29.9,5.8-52.3,29.8-72.5,52.5c-29.1,32.7-85.7,84.5-91.2,130.8c-1.4,11.8,0.2,19.9,3.9,25.2
		c-7.5,8.6-14.9,17.2-22.4,25.7l-43.7,49.9l-18.8,21.1c4.8-15.3,8-31.2,10.2-47.1c0.7-5.6,1.3-11.2,1.8-16.7c2-1.9,4-4.2,6.1-6.9
		c28.6-36.8,24.6-113.4,26.9-157.2c1.5-30.4,2.4-63.2-14.8-88.3c-4.6-6.8-11.1-13-19.2-14.3c-52.3-8.4-54.4,104.4-55.3,134
		c-0.9,32,0.1,64.8,5.7,96.5c3.5,19.9,16.4,46.7,34.7,44.8c0,2.4,0,4.7-0.1,7.1c-0.4,18.9-1.5,37.7-3.6,56.7l-17.8,20l-83.2,94.2
		c-0.3-16-1.3-31.8-2.7-47.6c5.8-2.6,11.4-8.5,16.5-19.1c20.1-42,0-116.1-7.1-159.3c-4.9-30-11.1-62.3-33.2-83.2
		c-6-5.6-13.6-10.4-21.8-9.9c-52.9,2.9-31,113.5-25.6,142.6c5.9,31.5,13.9,63.3,26,93.1c6.1,14.9,19,32.9,32.8,36.6
		c3.8,16.5,8,32.8,13,49.1l-2.7,3.1c-42.1,48.3-84.2,96.5-125.8,145.2c3.6-19.3,4.5-39.1,3.6-58.8c0-0.2,0-0.4,0-0.5
		c3.6-3.4,7-8.6,9.9-16.1c15.6-40.9-8.9-108.8-18.8-148.8c-6.9-27.8-15.1-57.6-37.5-75.4c-6-4.8-13.5-8.7-21.2-7.6
		c-49.4,6.7-20.4,108.8-13.1,135.7c7.9,29.1,17.8,58.3,31.5,85.3c7.2,14.2,21.7,31,35.6,32.1c3.1,18.7,5.5,37.7,7.7,57
		c-15.2,17.8-30.3,35.6-45.3,53.6c-19.7,23.8-39,48-57.2,73c-1.2-18.9-3.9-37.5-7.6-56c4.2-3.3,7.5-9.4,9.3-19.2
		c6.9-38.3-25.5-93.5-40.8-126.7c-10.6-23.1-22.6-47.7-45-59.7c-6-3.2-13.2-5.4-19.7-3.2c-41.9,13.9,0,98.3,10.8,120.5
		c11.7,24.1,25.1,47.9,41.4,69.2c7.2,9.4,19.1,19.4,30,21.8c0.1,0.3,0.2,0.6,0.3,0.9c6.3,17.9,12.7,35.8,20.5,53.5
		c-7.7,10.6-15.2,21.2-22.5,32.1c-24.7,37-46.7,76-63.4,117.1c26.1-51.1,58.6-97.8,94.1-142.4c18.5,5.1,37,8.9,55.4,12.7
		c0.3,0.1,0.6,0.1,1,0.2c3.8,10.4,15.5,20.8,25.7,26.6c23.3,13.2,48.9,23.2,74.3,31.4C2965.5,2203.7,3054.8,2233.5,3062.7,2190z"/>
	<g>
		<path class="st4" d="M3463.7,2172.5c28-20.8,68.2-27.3,86.3-57.2c8.2-13.5,10.3-29.6,14.6-44.7c10.9-37.6,37.2-70.4,71.6-89.1
			c20.3-11.1,43.9-18,58.7-35.7c19.8-23.7,17.7-59.3,34.2-85.5c26.3-41.6,88.5-44.5,121-81.6c22.8-26,26.7-64.3,48.4-91.2
			c25.9-32.1,71.3-36.1,98.3-64.9c12.8-13.7,16.8-28.1,34.6-39.4c16.6-10.6,35.9-17.2,53.9-25c56.9-24.9,106.3-66.8,140.2-118.9
			c13.6-20.9,33.5-47,57.1-38.8c7.7,51.6-2.1,105.7-27.3,151.4c-24.7,44.8-63.7,81.7-81.3,129.7c-12.9,35.2-13.3,73.5-19.4,110.5
			c-6.1,37-20.1,75.7-51.3,96.4c-34,22.6-82.1,19.5-111.8,47.6c-37.9,35.8-27,104.1-64.9,139.9c-32.8,30.9-92.7,27.7-114.5,67.2
			c-10.6,19.3-8.1,42.8-11.8,64.5c-4,23.7-3.2,40.1-20.4,58.5c-15.2,16.2-37.4,26.1-45.7,48.2c-5.7,15.1-2.2,32-3.4,48
			c-3.7,48.9-49.5,83.1-93.7,104.4c-33,15.9-70.4,28.6-105.9,19.3c-31.2-8.2-55.4-32.1-78-55.1c-39-39.8-55.8-74.7-49.9-131.8
			C3407.9,2253.8,3425.7,2200.6,3463.7,2172.5z"/>
		<g>
			<path class="st0" d="M3513.7,2409c3-12.3,6.8-24.4,11.2-36.3c4.5-11.9,9.6-23.5,15.3-34.9c11.5-22.7,25.6-44.2,42-63.9
				c8.2-9.9,16.9-19.1,25.2-28.5c4.2-4.7,8.2-9.4,12.2-14.1c3.9-4.8,7.6-9.7,11-14.7c3.5-5,6.5-10.2,9.2-15.5c0.6-1.3,1.4-2.6,1.9-4
				l1.8-4.1c0.6-1.4,1.1-2.8,1.6-4.2c0.5-1.4,1.1-2.8,1.5-4.2c3.9-11.4,6.5-23.4,9.2-35.7c2.7-12.3,5.3-24.9,9.4-37.5
				c2.1-6.3,4.4-12.6,7.4-18.7c2.9-6.1,6.2-11.9,9.9-17.6c7.4-11.2,15.9-21.4,25-30.7c9.1-9.4,18.7-18,28.4-26.3
				c9.6-8.3,19.4-16.4,28.7-24.5c9.4-8.2,18.4-16.5,26.7-25.3c8.3-8.8,15.6-18.2,22.6-28.3c7-10.1,13.6-20.6,20.3-31.4
				c6.7-10.7,13.6-21.5,21.1-32.2c7.6-10.6,15.9-21,25.6-30.4c4.9-4.7,9.9-9.1,15.4-13.2c5.4-4.2,11.2-7.7,17-11
				c11.6-6.5,23.4-11.7,34.8-16.9c5.7-2.6,11.3-5.2,16.6-8l4-2.1l3.9-2.2c1.3-0.7,2.5-1.5,3.8-2.3c1.3-0.8,2.5-1.5,3.8-2.4
				c5-3.2,9.7-6.8,14.4-10.6c4.6-3.8,9-7.8,13.2-12.1c4.1-4.3,8.1-8.8,11.8-13.5c0.9-1.2,1.8-2.4,2.7-3.6c0.9-1.2,1.8-2.4,2.6-3.6
				l2.5-3.7l2.4-3.8c3.2-5.1,6.1-10.3,8.6-15.7c1.3-2.7,2.5-5.5,3.7-8.2l1.7-4.2c0.6-1.4,1.1-2.8,1.6-4.3c4.3-11.5,8-23.5,12.2-35.6
				c2.1-6.1,4.3-12.1,6.9-18.2c1.2-3,2.7-6,4-9c0.7-1.5,1.5-2.9,2.3-4.4l1.1-2.2l1.3-2.2l2.5-4.3l2.8-4.2c0.9-1.4,1.9-2.7,3-4.1
				c1-1.3,2-2.7,3.1-4c4.3-5.2,9.1-9.9,14.1-14.1c10-8.6,20.7-15.7,31.1-22.7c20.8-13.9,40.1-29.7,58-47.4
				c8.9-8.8,17.4-18.1,25.4-27.8c8.1-9.6,15.6-19.7,22.8-30.1c-6.1,11.1-12.9,21.7-20.2,32.1c-7.4,10.3-15.3,20.3-23.7,29.9
				c-8.4,9.6-17.3,18.7-26.7,27.3c-2.3,2.2-4.7,4.3-7.1,6.4c-2.4,2.1-4.9,4.1-7.3,6.2l-7.5,6c-2.5,2-5,3.9-7.6,5.8
				c-10.1,7.7-20.1,15-28.9,23.4c-4.4,4.2-8.5,8.5-12,13.2c-0.9,1.2-1.7,2.4-2.6,3.6c-0.9,1.2-1.7,2.4-2.4,3.7l-2.3,3.8l-2.1,3.9
				l-1,2l-1,2c-0.6,1.4-1.3,2.7-1.9,4.1c-1.1,2.8-2.4,5.5-3.4,8.4c-2.2,5.7-4.1,11.5-5.9,17.5c-3.6,11.9-6.9,24.1-11.1,36.4
				c-4.1,12.3-9.4,24.7-16.2,36.1l-2.6,4.3l-2.7,4.2c-0.9,1.4-1.9,2.8-2.8,4.1c-1,1.3-1.9,2.7-2.9,4c-4,5.3-8.3,10.4-12.8,15.3
				c-4.6,4.8-9.3,9.5-14.4,13.8c-1.2,1.1-2.6,2.1-3.8,3.2c-1.3,1-2.6,2.1-3.9,3.1l-4,3l-4.1,2.8c-1.4,1-2.8,1.9-4.2,2.7
				c-1.4,0.9-2.8,1.8-4.2,2.7l-4.3,2.5l-4.3,2.4c-5.8,3.1-11.6,5.9-17.4,8.7c-11.5,5.5-22.8,10.6-33.1,16.5
				c-5.2,3-10.1,6.1-14.7,9.7c-4.7,3.5-9,7.4-13.2,11.5c-8.4,8.3-16,17.6-23,27.6c-7.1,10-13.6,20.5-20.3,31.2
				c-6.7,10.7-13.5,21.5-20.9,32.2c-1.9,2.7-3.7,5.3-5.7,7.9c-2,2.6-3.9,5.3-6,7.8c-4.1,5.2-8.4,10.2-13,14.9
				c-9.1,9.5-18.7,18.2-28.4,26.5c-9.7,8.3-19.5,16.3-29.1,24.3c-9.6,8-18.9,16.1-27.6,24.7c-8.7,8.6-16.6,17.6-23.3,27.4
				c-3.3,4.9-6.4,10-9,15.2c-2.7,5.2-4.9,10.7-6.9,16.3c-4,11.3-7,23.3-10,35.6c-3,12.3-6.3,24.8-11,37.2c-0.6,1.5-1.2,3.1-1.9,4.6
				c-0.7,1.5-1.3,3.1-2,4.6l-2.2,4.5c-0.7,1.5-1.6,2.9-2.4,4.4c-3.2,5.8-6.9,11.4-10.8,16.7c-7.9,10.5-16.6,20-25.6,29.1
				c-8.9,9.1-17.9,17.8-26.4,27c-16.9,18.2-31.9,38.4-44.7,59.9c-6.4,10.7-12.3,21.9-17.5,33.3
				C3522.5,2385.4,3517.8,2397.1,3513.7,2409z"/>
		</g>
		<g>
			<path class="st0" d="M4026.1,1631.6c0.9,1.2,1.6,2.2,2.2,3.3c0.6,1.1,1.1,2.1,1.6,3.1c0.9,2,1.6,3.9,2,5.7
				c0.9,3.7,1,7.1,0.6,10.4c-0.5,3.3-1.5,6.6-3.4,9.8c-0.9,1.6-2.1,3.3-3.5,4.9c-0.7,0.8-1.5,1.7-2.4,2.5c-0.9,0.8-1.9,1.7-3.1,2.6
				c-2.3-1.8-3.8-3.7-5-5.6c-1.2-1.9-2.1-3.8-2.8-5.7c-1.3-3.8-1.5-7.7-1-11.4c0.5-3.7,1.8-7.4,4.1-10.7c1.1-1.7,2.6-3.3,4.2-4.8
				C4021.5,1634.1,4023.4,1632.7,4026.1,1631.6z"/>
		</g>
		<g>
			<path class="st0" d="M3928,1703.3c1.1,1.3,2,2.5,2.8,3.8c0.8,1.3,1.5,2.5,2.1,3.8c1.2,2.5,2.2,5,2.9,7.5c1.4,5,2,10,1.9,14.9
				c-0.1,5-1,9.9-2.7,14.8c-0.9,2.5-2,4.9-3.4,7.3c-0.7,1.2-1.5,2.4-2.4,3.7c-0.9,1.2-1.9,2.4-3.1,3.6c-1.2-1.3-2-2.5-2.9-3.8
				c-0.8-1.3-1.5-2.5-2.2-3.8c-1.2-2.5-2.2-5-2.9-7.5c-1.4-5-2-10-1.8-14.9c0.2-5,1-9.9,2.7-14.8c0.9-2.5,2-4.9,3.4-7.3
				c0.7-1.2,1.5-2.4,2.4-3.7C3925.9,1705.7,3926.8,1704.5,3928,1703.3z"/>
		</g>
		<g>
			<path class="st0" d="M4117.8,1662.2c-0.2-5,0.5-8.1,1.4-10.6c0.9-2.5,2.2-4.3,3.9-5.5c1.7-1.3,3.7-2,6.4-2.2
				c2.7-0.1,5.8,0.2,10.6,1.8c1.4,4.8,1,8.2,0.2,11.1c-0.9,2.8-2.5,4.9-4.5,6.4c-2,1.5-4.5,2.4-7.5,2.4
				C4125.3,1665.5,4122,1664.9,4117.8,1662.2z"/>
		</g>
		<g>
			<path class="st0" d="M4069.4,1780.3c1.5-1.1,2.9-1.9,4.4-2.6c1.4-0.7,2.9-1.3,4.3-1.9c2.9-1.1,5.7-1.9,8.5-2.4
				c5.6-1.1,11.1-1.3,16.6-0.8c5.5,0.5,10.9,1.7,16.2,3.7c2.7,1,5.3,2.3,7.9,3.9c1.3,0.8,2.6,1.6,3.9,2.6c1.3,1,2.6,2,3.8,3.3
				c-1.5,1.1-2.9,1.9-4.4,2.6c-1.4,0.7-2.9,1.3-4.3,1.9c-2.9,1.1-5.7,1.9-8.5,2.4c-5.6,1.1-11.1,1.3-16.6,0.8
				c-5.5-0.5-10.9-1.7-16.2-3.8c-2.7-1-5.3-2.3-7.9-3.9c-1.3-0.8-2.6-1.6-3.9-2.6C4072,1782.7,4070.7,1781.6,4069.4,1780.3z"/>
		</g>
		<g>
			<path class="st0" d="M3953.1,1850.2c2.8-1.8,5.4-2.8,8.1-3.7c2.6-0.8,5.2-1.3,7.8-1.5c5.1-0.4,10.1,0.1,14.8,1.4
				c4.7,1.3,9.3,3.4,13.4,6.4c2.1,1.5,4.1,3.3,5.9,5.3c1.8,2.1,3.6,4.3,5.1,7.3c-1.5,0.7-3,1.2-4.4,1.6c-1.4,0.4-2.8,0.7-4.1,1
				c-2.7,0.5-5.2,0.8-7.7,0.8c-4.9,0.1-9.5-0.6-14-1.8c-4.5-1.3-8.8-3.1-12.9-5.7c-2.1-1.3-4.1-2.8-6.2-4.6c-1-0.9-2-1.8-3-2.9
				C3955.1,1852.8,3954.1,1851.6,3953.1,1850.2z"/>
		</g>
		<g>
			<path class="st0" d="M3823.6,1825.7c2.8,0.8,4.8,1.9,6.7,3.2c1.8,1.2,3.4,2.6,4.7,4c2.6,2.9,4.3,6.2,5.3,9.7
				c1,3.5,1.2,7.2,0.5,11c-0.4,1.9-1,3.9-1.9,5.9c-1,2-2.2,4-4.1,6.2c-1.3-0.6-2.4-1.3-3.4-2c-1-0.7-1.9-1.4-2.7-2
				c-1.6-1.4-3-2.8-4.2-4.2c-2.3-2.9-3.8-5.9-4.7-9.1c-0.9-3.2-1.2-6.5-0.7-10.2c0.2-1.8,0.7-3.8,1.4-5.8c0.4-1,0.8-2.1,1.3-3.2
				C3822.2,1828,3822.8,1826.9,3823.6,1825.7z"/>
		</g>
		<g>
			<path class="st0" d="M3866.7,1980.7c1.2-1.2,2.3-2.2,3.5-3.1c1.2-0.9,2.4-1.7,3.5-2.4c2.4-1.4,4.7-2.6,7.1-3.5
				c4.8-1.8,9.6-2.7,14.5-3c4.9-0.2,9.7,0.2,14.7,1.6c2.5,0.7,4.9,1.6,7.4,2.8c1.2,0.6,2.5,1.3,3.7,2.1c1.3,0.8,2.5,1.7,3.8,2.8
				c-1.2,1.2-2.3,2.2-3.5,3.1c-1.2,0.9-2.4,1.7-3.5,2.4c-2.4,1.4-4.7,2.6-7.1,3.5c-4.8,1.8-9.6,2.7-14.5,2.9
				c-4.9,0.2-9.7-0.3-14.7-1.6c-2.5-0.7-4.9-1.6-7.4-2.8c-1.2-0.6-2.5-1.3-3.7-2.1C3869.3,1982.7,3868,1981.8,3866.7,1980.7z"/>
		</g>
		<g>
			<path class="st0" d="M3714.4,1940.6c1.2,0.6,2.3,1.2,3.2,1.8c1,0.6,1.8,1.3,2.5,1.9c1.5,1.3,2.8,2.7,3.7,4.1
				c2,2.8,3.1,5.7,3.5,8.7c0.4,3,0.1,6.1-1,9.3c-0.6,1.6-1.4,3.2-2.5,4.9c-0.6,0.8-1.2,1.7-1.9,2.6c-0.7,0.9-1.6,1.7-2.6,2.7
				c-1.2-0.6-2.3-1.2-3.3-1.8c-1-0.6-1.8-1.3-2.6-1.9c-1.5-1.3-2.8-2.7-3.7-4.1c-2-2.8-3.1-5.7-3.5-8.7c-0.4-3-0.1-6.1,1-9.3
				c0.6-1.6,1.4-3.2,2.5-4.9c0.6-0.8,1.2-1.7,1.9-2.6C3712.5,1942.4,3713.4,1941.5,3714.4,1940.6z"/>
		</g>
		<g>
			<path class="st0" d="M3759.1,2084.3c1.3-0.9,2.6-1.6,3.9-2.2c1.3-0.6,2.5-1.1,3.7-1.5c2.5-0.8,4.9-1.4,7.2-1.7
				c4.7-0.6,9.2-0.4,13.6,0.6c4.4,0.9,8.6,2.5,12.6,5c2,1.2,4,2.7,5.9,4.5c0.9,0.9,1.9,1.8,2.8,2.9c0.9,1,1.8,2.2,2.7,3.6
				c-1.3,0.9-2.6,1.6-3.9,2.2c-1.3,0.6-2.5,1.1-3.8,1.5c-2.5,0.8-4.9,1.4-7.2,1.7c-4.7,0.6-9.2,0.3-13.6-0.6
				c-4.4-1-8.6-2.6-12.6-5.1c-2-1.2-4-2.7-5.9-4.5c-0.9-0.9-1.9-1.8-2.8-2.9C3760.9,2086.9,3760,2085.7,3759.1,2084.3z"/>
		</g>
		<g>
			<path class="st0" d="M3627.6,2048.4c1.5,0.7,2.8,1.4,4,2.2c1.2,0.8,2.3,1.6,3.4,2.5c2.1,1.7,3.9,3.5,5.5,5.4
				c3.2,3.8,5.5,8,7.2,12.3c1.7,4.4,2.8,9,3,14c0.1,2.5,0,5-0.4,7.7c-0.2,1.3-0.5,2.7-0.8,4.1c-0.4,1.4-0.8,2.8-1.5,4.4
				c-1.5-0.7-2.8-1.4-4-2.2c-1.2-0.8-2.3-1.6-3.4-2.5c-2.1-1.7-3.9-3.5-5.5-5.4c-3.2-3.8-5.5-8-7.2-12.3c-1.7-4.4-2.7-9-2.9-14
				c-0.1-2.5,0-5,0.4-7.7c0.2-1.3,0.5-2.7,0.8-4.1C3626.5,2051.4,3626.9,2050,3627.6,2048.4z"/>
		</g>
		<g>
			<path class="st0" d="M3555,2157.4c1.7,0.5,3.2,1.2,4.7,1.9c1.4,0.7,2.8,1.5,4.1,2.3c2.6,1.6,4.9,3.4,7,5.3
				c4.2,3.8,7.7,8.1,10.6,12.7c2.9,4.6,5.2,9.6,6.7,15.1c0.8,2.7,1.3,5.6,1.6,8.6c0.1,1.5,0.2,3.1,0.2,4.7c0,1.6-0.1,3.3-0.4,5
				c-1.7-0.5-3.2-1.2-4.7-1.9c-1.5-0.7-2.8-1.5-4.1-2.3c-2.6-1.6-4.9-3.4-7-5.3c-4.2-3.8-7.7-8.1-10.5-12.7
				c-2.9-4.6-5.1-9.6-6.7-15.1c-0.8-2.7-1.3-5.6-1.6-8.6c-0.1-1.5-0.2-3.1-0.2-4.7C3554.6,2160.9,3554.7,2159.2,3555,2157.4z"/>
		</g>
		<g>
			<path class="st0" d="M3702.3,2199.3c1.7-2.6,3.5-4.5,5.4-6.2c1.9-1.6,3.8-3,5.8-4.1c4-2.2,8.1-3.5,12.4-4c4.2-0.5,8.6-0.4,13,0.8
				c2.2,0.6,4.4,1.4,6.7,2.5c2.2,1.2,4.5,2.5,6.8,4.7c-1,1.2-1.9,2.3-2.9,3.2c-1,1-1.9,1.8-2.9,2.5c-2,1.5-3.9,2.8-5.9,3.7
				c-4,2-8,3.2-12,3.7c-4.1,0.5-8.3,0.4-12.6-0.6c-2.2-0.5-4.4-1.2-6.6-2.2c-1.1-0.5-2.3-1-3.5-1.7
				C3704.7,2201,3703.5,2200.2,3702.3,2199.3z"/>
		</g>
		<g>
			<path class="st0" d="M3615.4,2311.5c1-1,2.1-1.9,3.1-2.6c1-0.7,2-1.3,3-1.9c2-1.1,3.9-1.9,5.8-2.4c3.8-1.1,7.4-1.3,11-0.9
				c3.6,0.5,7,1.6,10.4,3.7c1.7,1,3.3,2.3,4.9,3.8c0.8,0.8,1.6,1.6,2.4,2.6c0.8,0.9,1.5,2,2.3,3.3c-1,1-2.1,1.9-3.1,2.6
				c-1,0.7-2,1.3-3,1.9c-2,1.1-3.9,1.9-5.8,2.4c-3.8,1.1-7.4,1.3-11,0.8c-3.6-0.5-7-1.6-10.4-3.7c-1.7-1-3.3-2.3-4.9-3.8
				c-0.8-0.8-1.6-1.6-2.4-2.6C3616.9,2313.8,3616.2,2312.7,3615.4,2311.5z"/>
		</g>
		<g>
			<path class="st0" d="M3448.3,2232.7c1.3,0.9,2.5,1.9,3.5,2.8c1.1,0.9,2,1.9,2.9,2.9c1.7,1.9,3.2,3.9,4.5,5.8
				c2.6,3.9,4.3,7.9,5.6,12.1c1.2,4.2,2,8.5,2,13.2c0,2.3-0.2,4.8-0.6,7.3c-0.2,1.3-0.5,2.6-0.8,4c-0.3,1.4-0.8,2.8-1.4,4.3
				c-3-1.2-5.4-2.7-7.5-4.4c-2.1-1.7-3.9-3.5-5.5-5.5c-3.1-3.9-5.3-8.3-6.7-12.8c-1.3-4.6-1.9-9.4-1.4-14.4c0.2-2.5,0.8-5,1.6-7.6
				C3445.4,2237.9,3446.4,2235.3,3448.3,2232.7z"/>
		</g>
	</g>
	<g>
		<g>
			<path class="st3" d="M3319.5,2198.4c33.6-80,100.4-199.1,100.4-199.1s149,234.2,153.3,388.9c4.3,154.7-120.2,220.9-120.2,220.9
				S3197.6,2488.4,3319.5,2198.4z"/>
			<g>
				<path class="st8" d="M3422.7,2189.7l0,6.6c0,2.2,0,4.4,0.1,6.6c0,4.4,0.1,8.8,0.2,13.2c0.1,4.4,0.2,8.8,0.3,13.2l0.1,6.6
					l0.2,6.6l0.4,13.1l0.5,13.1c0.2,4.4,0.3,8.7,0.5,13.1c0.2,4.4,0.5,8.7,0.6,13.1c1.7,35,4.1,69.9,6.7,104.7l2.3,26.1
					c0.6,8.7,1.6,17.4,2.4,26.1l1.2,13.1l0.6,6.5c0.2,2.2,0.4,4.4,0.6,6.5l1.4,13.1l1.3,13.1l1.3,13.1l1.5,13.1
					c1,8.7,1.9,17.4,2.8,26.2c1.9,17.5,4,34.9,5.4,52.5c-1.2-4.2-2.3-8.5-3.5-12.8l-3.3-12.8c-1.1-4.3-2.1-8.6-3.2-12.8
					c-1.1-4.3-2.1-8.6-3-12.9c-1.8-8.6-3.6-17.2-5.4-25.9l-2.6-13c-0.8-4.3-1.5-8.7-2.2-13l-2.2-13l-2.1-13.1
					c-0.7-4.3-1.2-8.7-1.8-13.1l-1.7-13.1c-1.1-8.8-2.2-17.5-3-26.3l-2.5-26.4c-2.7-35.2-4-70.5-3.4-105.8
					c0.2-8.8,0.4-17.6,0.9-26.5l0.7-13.2l1-13.2l0.5-6.6l0.7-6.6c0.5-4.4,0.9-8.8,1.5-13.2
					C3419.7,2207.1,3420.9,2198.4,3422.7,2189.7z"/>
			</g>
		</g>
		<g>
			<path class="st9" d="M4018.4,2352.1c69.7,15.2,175.9,51.2,175.9,51.2s-166.7,155.5-291,182.2c-124.3,26.7-196.4-63.9-196.4-63.9
				S3765.8,2297.2,4018.4,2352.1z"/>
			<g>
				<path class="st8" d="M4065.5,2438.4c-3.2,2.3-6.5,4.4-9.8,6.5c-3.3,2.1-6.7,4.1-10,6.1c-6.7,4-13.6,7.9-20.5,11.6
					c-13.8,7.4-28,14.3-42.3,20.7c-14.4,6.4-29,12.3-43.8,17.6c-7.4,2.7-14.9,5.2-22.4,7.7c-7.5,2.3-15.1,4.6-22.7,6.7l-5.7,1.6
					c-1.9,0.5-3.8,1-5.7,1.4c-3.8,0.9-7.7,2-11.5,2.8l-11.6,2.5c-1.9,0.4-3.9,0.8-5.8,1.1l-5.8,1.1c-15.6,2.7-31.3,4.9-47.1,5.7
					c-2,0.1-3.9,0.3-5.9,0.4l-5.9,0.1l-5.9,0.1c-1,0-2,0.1-3,0l-3-0.1l-11.9-0.3l-11.9-0.9l-3-0.3c-1-0.1-2-0.3-2.9-0.4l-5.9-0.8
					l-5.9-0.8c-1.9-0.3-3.9-0.8-5.8-1.2l-5.8-1.2l-2.9-0.6c-1-0.2-1.9-0.5-2.9-0.8c-3.8-1.1-7.6-2.2-11.3-3.3
					c3.9,0.3,7.8,0.7,11.7,1c1,0.1,1.9,0.2,2.9,0.3l2.9,0.1l5.8,0.2l5.8,0.2l5.8,0l5.8,0c1,0,1.9,0,2.9,0l2.9-0.1l11.6-0.5l11.5-0.9
					l2.9-0.2l2.9-0.3l5.7-0.6l5.7-0.6c1.9-0.2,3.8-0.5,5.7-0.8c15.3-2,30.4-4.8,45.5-8c3.8-0.9,7.5-1.6,11.3-2.5l11.2-2.7
					c3.7-0.9,7.5-1.9,11.2-2.9c1.9-0.5,3.7-0.9,5.6-1.5l5.6-1.6c14.9-4,29.7-8.5,44.4-13.3c14.7-4.8,29.4-9.8,44-15
					c14.6-5.2,29.2-10.7,43.7-16.3c7.3-2.8,14.5-5.7,21.8-8.5c3.6-1.4,7.3-2.9,10.9-4.4C4058.2,2441.4,4061.8,2439.9,4065.5,2438.4z
					"/>
			</g>
		</g>
		<g>
			<path class="st9" d="M3608.2,2215.4c64.1-57.8,174.5-136.7,174.5-136.7s35.1,273.7-26.4,414.8c-61.5,141.1-201.5,148-201.5,148
				S3375.8,2424.9,3608.2,2215.4z"/>
			<g>
				<path class="st8" d="M3714,2243.2l-42.3,98.8c-14,32.9-27.8,65.8-41.3,98.8c-13.6,33-26.4,66.3-39.1,99.7l-4.7,12.6l-4.7,12.5
					c-1.7,4.2-3,8.4-4.5,12.6l-4.5,12.6l-4.6,12.6c-1.5,4.2-2.9,8.5-4.4,12.7l-4.4,12.7c-1.5,4.2-3,8.5-4.6,12.7
					c0.7-4.4,1.6-8.8,2.3-13.3l2.5-13.2l1.3-6.6c0.5-2.2,0.8-4.4,1.4-6.6l3.1-13.1c2.2-8.7,4.2-17.5,6.6-26.2l3.7-13l3.8-13
					c10.6-34.4,22.5-68.4,36.2-101.6c13.6-33.3,28.5-66.1,44.7-98.1l6.2-12c2.1-4,4.1-8,6.3-11.9c4.3-7.9,8.5-15.8,13-23.6l6.7-11.7
					c2.3-3.9,4.6-7.7,6.9-11.6c2.3-3.8,4.7-7.7,7.1-11.5c1.2-1.9,2.4-3.8,3.6-5.7C3711.5,2247,3712.8,2245.1,3714,2243.2z"/>
			</g>
		</g>
	</g>
	<g>
		<path class="st9" d="M1780.5,629.6c0,0,37.6,137.3,86.4,135.2C1866.9,764.8,1871.7,675.3,1780.5,629.6z"/>
		<path class="st9" d="M1983.3,652.1c0,0-74.8,121.1-121,105.3C1862.3,757.4,1882.9,670.2,1983.3,652.1z"/>
		<path class="st9" d="M1924.3,498.4c0,0,4.4,176-54.2,190.9C1870.1,689.2,1832.5,585,1924.3,498.4z"/>
		<path class="st9" d="M1746.1,751.8c0,0,44.8,125.5,105.7,122.9C1851.8,874.7,1859,792.4,1746.1,751.8z"/>
		<path class="st9" d="M1998.2,769.6c0,0-94.7,112.3-152.1,98.4C1846.1,868,1873,787.6,1998.2,769.6z"/>
		<path class="st9" d="M1736.7,881c0,0,72.1,120.5,126.6,105.1C1863.2,986.1,1849.2,899.6,1736.7,881z"/>
		<path class="st9" d="M1969.7,846.9c0,0-57.8,135.8-113.3,133.5C1856.4,980.4,1860.7,891.7,1969.7,846.9z"/>
		<path class="st9" d="M1752,983.4c0,0,72.1,120.5,126.6,105.1C1878.6,1088.5,1864.5,1001.9,1752,983.4z"/>
		<path class="st9" d="M1985,949.3c0,0-57.8,135.8-113.3,133.5C1871.7,1082.8,1876,994,1985,949.3z"/>
		<path class="st9" d="M1760.8,1084.8c0,0,72.1,120.5,126.6,105.1C1887.3,1189.9,1873.3,1103.4,1760.8,1084.8z"/>
		<path class="st9" d="M1993.8,1050.7c0,0-57.8,135.8-113.3,133.5C1880.5,1184.2,1884.8,1095.5,1993.8,1050.7z"/>
		<path class="st9" d="M1897.2,603.2c-7.1,25.5-12.5,51.5-17.2,77.5c-4.7,26.1-8.5,52.3-11.4,78.5c-6.1,52.5-8.8,105.4-8,158.2
			c0.9,52.8,6.4,105.3,13.6,157.5c7.1,52.2,18.6,103.7,32.3,155l-1.2,0.4c-10-24.6-19.3-49.7-26.2-75.4c-3.9-12.8-6.6-25.8-9.9-38.8
			c-1.4-6.5-2.7-13.1-4-19.6c-1.4-6.5-2.6-13.1-3.7-19.7c-4.8-26.3-7.3-52.9-9.2-79.5c-1.6-26.6-2.1-53.3-2-79.9
			c0.5-53.3,4.5-106.4,11.9-159.1c3.8-26.3,8.5-52.5,14-78.5c5.6-26,11.9-51.8,19.8-77.1L1897.2,603.2z"/>
	</g>
	<path class="st2" d="M208.3,2317.2c5.6,0,8.3,2.8,12.6,7.9c4.3,5.1,9.7,11.4,20.3,11.4c10.6,0,16-6.3,20.3-11.4
		c4.3-5,7-7.9,12.6-7.9c5.6,0,8.3,2.8,12.6,7.9c4.3,5.1,9.7,11.4,20.3,11.4c10.6,0,16-6.3,20.3-11.4c4.3-5,7-7.9,12.6-7.9
		c5.6,0,8.3,2.8,12.6,7.9c4.3,5.1,9.7,11.4,20.3,11.4c10.6,0,16-6.3,20.3-11.4c4.3-5,7-7.9,12.6-7.9c5.6,0,8.3,2.8,12.6,7.9
		c4.3,5.1,9.7,11.4,20.3,11.4c10.6,0,16-6.3,20.3-11.4c4.3-5,7-7.9,12.6-7.9c5.6,0,8.3,2.8,12.6,7.9c4.3,5.1,9.7,11.4,20.3,11.4
		c10.6,0,16-6.3,20.3-11.4c4.3-5,7-7.9,12.6-7.9c5.6,0,8.3,2.8,12.6,7.9c4.3,5.1,9.7,11.4,20.3,11.4c10.6,0,16-6.3,20.3-11.4
		c4.3-5,7-7.9,12.6-7.9c2.8,0,5.1-2.3,5.1-5.1s-2.3-5.1-5.1-5.1c-10.6,0-16,6.3-20.3,11.4c-4.3,5-7,7.9-12.6,7.9
		c-5.6,0-8.3-2.8-12.6-7.9c-4.3-5.1-9.7-11.4-20.3-11.4c-10.6,0-16,6.3-20.3,11.4c-4.3,5-7,7.9-12.6,7.9c-5.6,0-8.3-2.8-12.6-7.9
		c-4.3-5.1-9.7-11.4-20.3-11.4c-10.6,0-16,6.3-20.3,11.4c-4.3,5-7,7.9-12.6,7.9c-5.6,0-8.3-2.8-12.6-7.9
		c-4.3-5.1-9.7-11.4-20.3-11.4c-10.6,0-16,6.3-20.3,11.4c-4.3,5-7,7.9-12.6,7.9c-5.6,0-8.3-2.8-12.6-7.9
		c-4.3-5.1-9.7-11.4-20.3-11.4c-10.6,0-16,6.3-20.3,11.4c-4.3,5-7,7.9-12.6,7.9c-5.6,0-8.3-2.8-12.6-7.9
		c-4.3-5.1-9.7-11.4-20.3-11.4c-10.6,0-16,6.3-20.3,11.4c-4.3,5-7,7.9-12.6,7.9c-5.6,0-8.3-2.8-12.6-7.9
		c-4.3-5.1-9.7-11.4-20.3-11.4c-2.8,0-5.1,2.3-5.1,5.1S205.5,2317.2,208.3,2317.2z"/>
	<path class="st7" d="M592.7,1485.1c0,0-139.2,690,204.1,1092.8c6.1,7.1,13.8,12.7,22.4,16.4c99.5,42.6,751.8,295.4,1662.5,39.7
		c0,0,480.2-164.1,256.8-734.1c-223.4-569.9-437.7-305.5-547.1-453.7s-583.1-692-861.8-517.5S592.7,1485.1,592.7,1485.1z"/>
	<path class="st10" d="M1345.3,1658.4l-69-3.8c0,0-424.8,493.2-13.5,624.6s1193.3,37.2,1359.3-48.6c166-85.8,405-106.8,45-302.4
		s-926-639.2-926-639.2L1345.3,1658.4z"/>
	<path class="st10" d="M1335.2,1633.5c0,0-409.7,291,83.8,520.9c0,0,615.1,270.7,1140.1,0c0,0-724.9-519.2-909-476.7
		C1466.1,1720.2,1335.2,1633.5,1335.2,1633.5z"/>
	<g>
		<polygon class="st2" points="2043,620 2032.4,613.3 2086.6,527.6 2000.9,473.5 2007.6,462.9 2093.3,517 2147.4,431.3 
			2158.1,438.1 2103.9,523.7 2189.6,577.9 2182.9,588.5 2097.2,534.4 		"/>
	</g>
	<g>
		<polygon class="st2" points="496.8,2587.1 488.2,2590.9 451.4,2521.7 382.1,2552.8 377.5,2544.2 446.8,2513.1 410,2443.8 
			418.6,2440 455.4,2509.2 524.7,2478.1 529.3,2486.7 460,2517.8 		"/>
	</g>
	<path class="st2" d="M3524.3,1197.9c5.6,0,8.3,2.8,12.6,7.9c4.3,5.1,9.7,11.4,20.3,11.4c10.6,0,16-6.3,20.3-11.4
		c4.3-5,7-7.9,12.6-7.9c5.6,0,8.3,2.8,12.6,7.9c4.3,5.1,9.7,11.4,20.3,11.4s16-6.3,20.3-11.4c4.3-5,7-7.9,12.6-7.9
		c5.6,0,8.3,2.8,12.6,7.9c4.3,5.1,9.7,11.4,20.3,11.4c10.6,0,16-6.3,20.3-11.4c4.3-5,7-7.9,12.6-7.9c5.6,0,8.3,2.8,12.6,7.9
		c4.3,5.1,9.7,11.4,20.3,11.4c10.6,0,16-6.3,20.3-11.4c4.3-5,7-7.9,12.6-7.9c5.6,0,8.3,2.8,12.6,7.9c4.3,5.1,9.7,11.4,20.3,11.4
		c10.6,0,16-6.3,20.3-11.4c4.3-5,7-7.9,12.6-7.9c5.6,0,8.3,2.8,12.6,7.9c4.3,5.1,9.7,11.4,20.3,11.4c10.6,0,16-6.3,20.3-11.4
		c4.3-5,7-7.9,12.6-7.9c2.8,0,5.1-2.3,5.1-5.1s-2.3-5.1-5.1-5.1c-10.6,0-16,6.3-20.3,11.4c-4.3,5-7,7.9-12.6,7.9
		c-5.6,0-8.3-2.8-12.6-7.9c-4.3-5.1-9.7-11.4-20.3-11.4c-10.6,0-16,6.3-20.3,11.4c-4.3,5-7,7.9-12.6,7.9c-5.6,0-8.3-2.8-12.6-7.9
		c-4.3-5.1-9.7-11.4-20.3-11.4c-10.6,0-16,6.3-20.3,11.4c-4.3,5-7,7.9-12.6,7.9c-5.6,0-8.3-2.8-12.6-7.9
		c-4.3-5.1-9.7-11.4-20.3-11.4c-10.6,0-16,6.3-20.3,11.4c-4.3,5-7,7.9-12.6,7.9c-5.6,0-8.3-2.8-12.6-7.9
		c-4.3-5.1-9.7-11.4-20.3-11.4c-10.6,0-16,6.3-20.3,11.4c-4.3,5-7,7.9-12.6,7.9c-5.6,0-8.3-2.8-12.6-7.9
		c-4.3-5.1-9.7-11.4-20.3-11.4c-10.6,0-16,6.3-20.3,11.4c-4.3,5-7,7.9-12.6,7.9c-5.6,0-8.3-2.8-12.6-7.9
		c-4.3-5.1-9.7-11.4-20.3-11.4c-2.8,0-5.1,2.3-5.1,5.1S3521.5,1197.9,3524.3,1197.9z"/>
	<path class="st2" d="M3669.3,1279.4c5.6,0,8.3,2.8,12.6,7.9c4.3,5.1,9.7,11.4,20.3,11.4c10.6,0,16-6.3,20.3-11.4
		c4.3-5,7-7.9,12.6-7.9c5.6,0,8.3,2.8,12.6,7.9c4.3,5.1,9.7,11.4,20.3,11.4s16-6.3,20.3-11.4c4.3-5,7-7.9,12.6-7.9
		c5.6,0,8.3,2.8,12.6,7.9c4.3,5.1,9.7,11.4,20.3,11.4c10.6,0,16-6.3,20.3-11.4c4.3-5,7-7.9,12.6-7.9c5.6,0,8.3,2.8,12.6,7.9
		c4.3,5.1,9.7,11.4,20.3,11.4c10.6,0,16-6.3,20.3-11.4c4.3-5,7-7.9,12.6-7.9c5.6,0,8.3,2.8,12.6,7.9c4.3,5.1,9.7,11.4,20.3,11.4
		c10.6,0,16-6.3,20.3-11.4c4.3-5,7-7.9,12.6-7.9c5.6,0,8.3,2.8,12.6,7.9c4.3,5.1,9.7,11.4,20.3,11.4c10.6,0,16-6.3,20.3-11.4
		c4.3-5,7-7.9,12.6-7.9c2.8,0,5.1-2.3,5.1-5.1s-2.3-5.1-5.1-5.1c-10.6,0-16,6.3-20.3,11.4c-4.3,5-7,7.9-12.6,7.9
		c-5.6,0-8.3-2.8-12.6-7.9c-4.3-5.1-9.7-11.4-20.3-11.4c-10.6,0-16,6.3-20.3,11.4c-4.3,5-7,7.9-12.6,7.9c-5.6,0-8.3-2.8-12.6-7.9
		c-4.3-5.1-9.7-11.4-20.3-11.4c-10.6,0-16,6.3-20.3,11.4c-4.3,5-7,7.9-12.6,7.9c-5.6,0-8.3-2.8-12.6-7.9
		c-4.3-5.1-9.7-11.4-20.3-11.4c-10.6,0-16,6.3-20.3,11.4c-4.3,5-7,7.9-12.6,7.9c-5.6,0-8.3-2.8-12.6-7.9
		c-4.3-5.1-9.7-11.4-20.3-11.4c-10.6,0-16,6.3-20.3,11.4c-4.3,5-7,7.9-12.6,7.9c-5.6,0-8.3-2.8-12.6-7.9
		c-4.3-5.1-9.7-11.4-20.3-11.4c-10.6,0-16,6.3-20.3,11.4c-4.3,5-7,7.9-12.6,7.9c-5.6,0-8.3-2.8-12.6-7.9
		c-4.3-5.1-9.7-11.4-20.3-11.4c-2.8,0-5.1,2.3-5.1,5.1S3666.5,1279.4,3669.3,1279.4z"/>
	<path class="st2" d="M1095.7,2035.9c-6.2-3.3-13.7-2.4-20.4-0.2c-24.6,8-41,30.7-55.7,52c-21.2,30.7-63.5,80.5-63.2,120.2
		c0.1,10.2,2.3,16.9,6,20.9c-6.9,17.8-12.9,35.9-17.4,54.5c-17.3-26.2-33.8-53.1-49.9-80.1l-34.1-58.4c4.9-16.5,10-32.6,15.5-48.6
		c14.1,1.3,31.7-13,41.4-26c18.5-24.7,33.5-52.3,46.6-80.1c12.1-25.7,59.1-123.2,10.7-138.6c-7.5-2.4-15.7,0.2-22.6,4
		c-25.6,14-39.1,42.5-50.9,69.2c-17,38.4-53.6,102.3-45.1,146.2c1.6,8.1,4,13.9,7.1,17.9c0,0.2-0.1,0.4-0.1,0.5
		c-3.5,16.1-5.9,32.5-6.5,48.9l-30.4-52l-69.1-116.6c-1-1.7-2.1-3.4-3.1-5.2c7.3-14.5,13.9-29.2,20.2-44.1
		c14.5-1.3,30.6-17.1,39.4-31c17.4-27.7,31-58.3,42.5-88.9c10.6-28.3,52-135.6-0.7-147.8c-8.2-1.9-16.6,1.6-23.6,6.1
		c-25.9,17.1-37.7,48.4-48,77.7c-14.7,42.2-47.9,113-35.1,158.8c3.2,11.5,7.9,18.5,13.2,22.1c-3.8,14.3-7.3,28.6-10.3,43.1
		c-25.4-42.2-50.7-84.5-76.4-126.6c1.2-21.3,3.4-42.2,6.6-62.9c0.4-2.4,0.8-4.7,1.1-7.1c18,5.1,35.7-19.5,42.7-38.9
		c11.1-30.8,17.9-63.6,22.6-95.9c4.3-29.9,22-143.6-32-144.3c-8.4-0.1-15.9,5-21.8,11c-21.7,22.2-26.6,55.3-30.4,86.1
		c-5.5,44.4-22.9,120.6-0.6,162.6c1.6,3.1,3.3,5.7,5,8c-0.5,5.7-0.9,11.4-1.1,17.1c-0.7,18.9-0.1,38,3.1,56.6
		c-18-29.5-36.3-58.8-55.1-87.8c-6.5-10.1-13.1-20.3-19.6-30.4c7.8-12.1,6.2-34,1.3-49.3c-9.9-31.2-24.3-61.4-40.2-90
		c-14.7-26.4-69.7-127.4-113-95.2c-6.7,5-9.6,13.7-10.6,22c-3.8,30.8,12.5,60.1,28.2,86.9c22.6,38.6,55.1,109.7,98.3,129.6
		c11,5.1,19.4,6,25.6,4.2c6,9.9,12,19.9,17.9,29.8l34.7,58.1L653,1829c-13.4-9.5-27.8-17.6-42.5-24.7c-5.2-2.5-10.4-4.8-15.7-7
		c-1.2-2.6-2.8-5.2-4.7-8.1c-26.7-39.3-102.3-59.5-144.1-75.4c-29-11-60.6-22.2-90.3-13.4c-8,2.4-16.1,6.6-19.9,14.1
		c-24.6,48.1,84.2,85.6,112.6,95.7c30.8,11,62.9,20.2,95.4,24.8c20.4,2.9,50.5-1.3,54.4-19.6c2.3,0.8,4.6,1.5,6.8,2.3
		c18.2,6.3,36.1,13.3,53.9,21.3l13.8,23.5l65.3,110.3c-15.6-4.7-31.3-8.7-47-12.3c-0.7-6.4-4.7-13.8-13.3-22
		c-34.5-32.7-112.6-36.5-156.8-43.1c-30.7-4.6-63.9-8.8-91.1,6.1c-7.3,4-14.3,9.9-16.5,18c-13.8,52.2,100.4,65.8,130.4,69.6
		c32.4,4.2,65.8,6.4,98.5,4c16.4-1.2,37.9-8.1,45.8-20.3c17.2,1.5,34.4,2.6,51.7,2.8l2.1,3.6c33.7,56,67.2,112,101.4,167.7
		c-17.6-9.6-36.5-16.6-55.9-22c-0.2,0-0.4-0.1-0.5-0.1c-2.1-4.6-6.1-9.5-12.5-14.6c-34.8-28-108.4-25.6-150.3-28.5
		c-29.1-2-60.6-3.4-85,12.7c-6.6,4.3-12.7,10.4-14.1,18.1c-9,50,99.2,54,127.6,55.3c30.7,1.4,62.2,1,92.6-3.8
		c16.1-2.5,36.9-11.3,42.3-24.5c19.2,2.9,38.3,6.5,57.7,10.5c12.5,20.3,25,40.6,37.8,60.8c16.9,26.6,34.3,52.9,52.9,78.4
		c-18.7-4.8-37.6-8-56.7-10.2c-1.9-5.1-6.7-10.2-15.7-15.1c-35-18.8-98.7-4.6-135.8-0.2c-25.7,3-53.4,6.9-72,25
		c-5,4.9-9.3,11.1-9.3,18.1c0.3,45.1,95.3,30.9,120.3,27.4c27-3.8,54.4-9.3,80.2-18.5c11.3-4,24.9-12.4,30.5-22.2c0.3,0,0.7,0,1,0
		c19.3-0.5,38.8-1.1,58.4-3c7.8,10.8,15.8,21.4,24.1,31.9c28.2,35.6,59.1,69.1,93.7,98.3c-41.4-41.3-76.5-87.6-108.6-136
		c10.8-16.3,20.3-33.1,29.7-49.8c0.2-0.3,0.3-0.6,0.5-0.9c11.3-0.4,25.1-8.5,33.9-16.6c20.1-18.5,37.8-40.1,53.8-62.3
		C1078.4,2134.7,1135.4,2057.3,1095.7,2035.9z"/>
	<circle class="st11" cx="3612.4" cy="909" r="74"/>
	<circle class="st11" cx="365.2" cy="827.9" r="60"/>
	<circle class="st11" cx="3637.8" cy="1505.3" r="58"/>
	<g id="Camada_3">
	</g>
	<polygon class="st0" points="881.4,2330.4 1194.9,2330.4 1139.2,2703.3 959.3,2703.3 	"/>
	<path class="st7" d="M2361.5,2632.1c0,0,194.8,42.1,227,22.3l-24.2,51.9c0,0-27.2,24.7,14.8,59.4c42.1,34.6,118.7,96.5,118.7,96.5
		s54.4,49.5-24.7,56.9s-249.8-74.2-336.4-143.5C2336.7,2775.6,2304.6,2743.4,2361.5,2632.1z"/>
	<path class="st5" d="M2855.3,1311.5c-7.1,11.9,69.3-219.4,69.3-219.4s24.8-50.7-27.5-50.7c-52.3-0.1-543.6,54.8-543.6,54.8
		s-34.6,6.5-55,66.9c-20.4,60.4-148.1,487.9-148.1,487.9s46.5-5.3,127.4-14L2855.3,1311.5z"/>
	<path class="st2" d="M2129.2,1276.5l9,74.6c0,0,3.9,31-29.2,58.3c-27.6,22.8-49.8,70-49.8,70l-89-64.1l39.6-28.3
		c0,0,16.3-15.9,13.8-40.9c-2.5-25,9.2-116.6,9.2-116.6s25.1-26.3,52.3-26.3s59.5-5.8,59.5-5.8s43.3,7.9,58.2,30.2"/>
	<path class="st7" d="M3659.8,2483.7l108.6-108.8c-5.2,4.9,30.3-45.8,56.2,0c31.5,55.6-1.1,123.3-83.7,234.2
		c-70.5,94.6-89.9,161.9-186.4,65.9c0,0-23.5-31.2-103.6-47.8l55-173l63.7,47.1c19.4,9.8,42.7,20.1,59.4,6.1
		C3629.3,2507.2,3659.5,2483.9,3659.8,2483.7z"/>
	<path class="st9" d="M999.8,51.1c11.1-24.3,43.7-28.6,60.7-8.1c46.7,56.4,119.9,168.8,118.2,317.8
		c-2.5,218.3,246.2,1504.7,63.8,1835.3c-92.5,167.7-214.7,144.1-382.9-90.9C695.4,1876,698.5,711.8,999.8,51.1z"/>
	<path class="st3" d="M777.6,2221c0,0,270.4,234.9,404-142.4c0,0,24.7-69.8-15-129.3s-62.3-106.8-66.7-247.7
		c-4.4-140.9-124.6-170.9-168.4-362c-43.8-191.2-98.9-261.1-50.2-376.6C930,847.6,784,863.3,801,784.6s100.8-279.3-28.6-349.7
		s-130.9-20.2-155.7,6.9c-24.8,27.1-90.7,48.6-97.9,178.9s-43.6,230.3,56.8,359.6s-100,215.9-72.6,412.6s206.5,300.1,205.8,409.7
		c-0.7,109.6-75.1,148.2-38.9,252.4C706.1,2159.2,777.6,2221,777.6,2221z"/>
	<path class="st12" d="M2264.5,2078L3451,2659.4c0,0,104.8-91.6,85-215.3l-1012-623.3L2264.5,2078z"/>
	<path class="st3" d="M1131.6,1412.7c0,0,109.8,324,406.1,598.6c0,0,46.5,42.1,71.3,71.7c24.7,29.7,108.8,126.2,145.9,79.2
		c37.1-47,163.3-254.5,192.9-368.4c29.7-113.9,400.7-197.9,400.7-197.9s-206.5,73.2-304.1,20.4c-58.3-31.5-123.9-180.3-172.2-210.3
		c-11.1-6.9-34.3-26.3-65.1-46.4c-56.8-37.1-84-200.5-155.4-272c-154.5-154.6-91.6-189.6-207.6-207.1
		c-67.7-10.2-209.9-29.9-209.9-29.9l-149.7,379.1L1131.6,1412.7z"/>
	<path class="st0" d="M1728.6,2159c0,0,225.1,200.4,539.2,0s477.4-309.2,477.4-309.2s-170.7,326.5-267.1,507.1
		c-96.5,180.6-141,294.4-141,294.4s169.1,134.6,250.7,77.7c0,0,427-725.7,508.6-1025c81.6-299.3-32.2-462.6-202.8-405.7
		c-170.7,56.9-915.2,423-915.2,423s-91.5,39.6-126.2,121.2c-34.6,81.6-17.3,155.8-56.9,188c-39.6,32.2-51.9,69.3-51.9,94
		S1728.6,2159,1728.6,2159z"/>
	<path class="st2" d="M1377.4,919.2c0,0-22.8-54.1,8.6-105.3c0,0,67.7,34.9,103.1,16.5c0,0,33.8-61.4,41.7-117.3l29.4-25l-37.4-57
		c0,0,9.6-88.9,0.9-109.6c0,0-7.1-92.4-55.5-84.1c0,0-192.2-50.5-241.4,140c0,0-23.2,62.1,25.7,131.6l35.6,30.4L1178,908.4
		C1178,908.4,1277.2,1017.8,1377.4,919.2z"/>
	<polygon class="st13" points="1522.9,631.1 1529.6,717.5 1571.7,694.9 	"/>
	<path class="st14" d="M993.7,1530.1c-29.8-92.3,22.9-200.7,24.6-301.1c1.4-87.2-35.8-170.2-10.2-258.1
		c13.1-44.9,41.8-87.2,58.9-131.6c22.1-57.1,24.4-117.3,6.5-169.7c-18.5-54.2-58-101.1-59.5-160.1c-0.9-36.1,12.7-73.2,22.5-109.9
		c20.7-77,25.3-155.1,13.3-228.8"/>
	<path class="st14" d="M1069.6,1832.1"/>
	<path class="st14" d="M1121.3,2065.7"/>
	<path class="st15" d="M680.6,516.8c0,0,93.6,1593.3,354.4,1674.7"/>
	<line class="st15" x1="1035" y1="2274.4" x2="1035" y2="2369.1"/>
	<line class="st15" x1="800.4" y1="1593.9" x2="673.8" y2="1519.1"/>
	<line class="st15" x1="753.2" y1="1261.1" x2="626.6" y2="1186.4"/>
	<line class="st15" x1="703.2" y1="728.4" x2="628.9" y2="684.5"/>
	<line class="st15" x1="955" y1="1689" x2="847.8" y2="1789.6"/>
	<line class="st15" x1="781.7" y1="880.4" x2="722.1" y2="937.5"/>
	<path class="st16" d="M753.2,1972.8c0,0,19.4-0.8,109.3,46s60.1,37.8,60.1,37.8"/>
	<path class="st3" d="M1981.8,1382.1l99,88.6l-15,34.4c0,0-52.5,9-120-103.5L1981.8,1382.1z"/>
	<path class="st9" d="M1159.6,1406c0,0,285.3,578,456.3,565.4c0,0,21.3-13,100.7-67c79.4-54,295-263.5,349.2-400.3l-120-103.5
		c0,0-130,83.8-305.9,255.2c-16.6,16.1-39.7,37.2-51.7,26.3c-16.5-15-48.3-86.8-65.3-126.3c-91-212.1-179.1-432.4-333.7-414.7"/>
	<path class="st7" d="M1446.8,1857c-5.8-8-1.3-19.3,8.5-21.2c25.1-4.7,74.3-2.6,138,55.6c0,0,22,22,40,28c2.2,0.7,4.3,1.4,6.5,2.1
		c13,3.9,16.3,20.8,5.7,29.3l-15.1,12c-0.6,0.4-1.1,0.8-1.6,1.2c-3.4,3-23.5,16.2-88-22.1C1491.9,1913,1461.3,1877,1446.8,1857z"/>
	<path class="st9" d="M1380.8,813.9c0,0-18.7,71-1.5,104.7s84.4,73.7,14.3,115.6c-70.1,41.9-185.3-26.5-185.3-26.5l108.3-157.1
		L1380.8,813.9z"/>
	<path class="st2" d="M1385.4,810.5c0,0-17.9,62.4-7.3,95.7c10.7,33.3,61.2,79.9,0.7,107.8c-60.5,27.8-136.5-33.3-136.5-33.3
		l98.3-206.1L1385.4,810.5z"/>
	<path class="st7" d="M873.2,1327.5c32.4,23.8,96.1,283.8,211.2,266.4c248-37.4,250.8-336.7,184.9-439.3
		c-68.2-106.2-16.2-120.2,20.9-172.1c37.1-51.9,60-105,25.9-185.8c-8.6-20.3,17.6-33.4,22.5-37.8c1.6-1.4,11.7-23.4,12.6-25.3
		c7.2-14.9,29.8-59.1-22.7-72.6c-63.3-16.3-47.1-101.7-12.5-109.1c19.8-4.2,33.1,10.1,40.9,23.1c5.1,8.6,16.7,10.5,24.3,4
		c94.6-81,148.3-30.7,165-114.7c19.2-96.5-156.9-143-178.2-145.7c-1.1-0.1-76.7,6.9-77.9,7C1108.6,340.8,1108.5,601,958,656.6
		c-138.7,51.2,69.5,175.4-76.9,255c-49.4,26.8-88.5,69.5-109.1,121.8C740.7,1112.8,734.9,1225.9,873.2,1327.5z"/>
	<path class="st17" d="M2029.2,1944c0,0-15.6-106.6-120-109.7"/>
	<path class="st18" d="M1315.8,614.8c0,0-1.6-15.8,16.4-28"/>
	<path class="st18" d="M1450.1,717.5c0,0,15.4,20.6,66.5,31.4"/>
	<circle class="st4" cx="1416.1" cy="672.4" r="28.5"/>
	<g>
		<path class="st18" d="M1506.5,624.5c0,0-13.3-22-65.2,5.9"/>
		<line class="st18" x1="1448.7" y1="615.6" x2="1452.5" y2="625.4"/>
		<line class="st18" x1="1465.1" y1="606.5" x2="1466.9" y2="618.5"/>
		<line class="st18" x1="1485.1" y1="603" x2="1482.3" y2="618.2"/>
		<path class="st0" d="M1450.7,584l1.4-2.6l72.2,3.5l-3.1,16.2c0,0-31.9-7.2-65.2-7.8C1451.4,593.1,1448.5,588.1,1450.7,584z"/>
		<path class="st7" d="M1491.6,655.3c-26.4,1.1-44.4-13.4-51-19.9c-1.5-1.5-1.2-4,0.7-5.1c51.9-27.9,62.4-6.5,62.4-6.5L1491.6,655.3
			z"/>
		<path class="st0" d="M1501.8,640.3c-3,10.3-10,17.6-17.2,16c-7.2-1.6-12.8-11.9-8.8-21.8c6.6-16.3,13.7-15.6,20.9-14
			C1503.9,622.1,1506.5,624.5,1501.8,640.3z"/>
		<path class="st18" d="M1494.9,656.2c-26.4,1.1-47.7-14.3-54.4-20.8c-1.5-1.5-1.2-4,0.7-5.1c51.9-27.9,65.2-5.9,65.2-5.9"/>
		<path class="st0" d="M1450.7,584l1.4-2.6l72.2,3.5l-3.1,16.2c0,0-31.9-7.2-65.2-7.8C1451.4,593.1,1448.5,588.1,1450.7,584z"/>
		<path class="st7" d="M1491.6,655.3c-26.4,1.1-44.4-13.4-51-19.9c-1.5-1.5-1.2-4,0.7-5.1c51.9-27.9,62.4-6.5,62.4-6.5L1491.6,655.3
			z"/>
		<path class="st0" d="M1501.8,640.3c-3,10.3-10,17.6-17.2,16c-7.2-1.6-12.8-11.9-8.8-21.8c6.6-16.3,13.7-15.6,20.9-14
			C1503.9,622.1,1506.5,624.5,1501.8,640.3z"/>
		<path class="st18" d="M1494.9,656.2c-26.4,1.1-47.7-14.3-54.4-20.8c-1.5-1.5-1.2-4,0.7-5.1c51.9-27.9,65.2-5.9,65.2-5.9"/>
	</g>
	<g>
		<g>
			<path class="st5" d="M1307.1,728.4c-18.3,0-37.8-13.5-37.8-38.5c0-11.6,4.1-24,11.4-34c7.6-10.5,17.2-16.1,26.4-16.5
				c21.2-1,36.5,22.1,38.4,44.1c0.8,8.6-0.9,23.1-10.5,32.4C1327.1,723.6,1316.4,728.4,1307.1,728.4z M1308.3,644.5
				c-15.3,0-30.9,23.4-30.9,45.4c0,22.1,13.4,31.9,28.9,31.9c7.5,0,11.8-0.9,18.6-7.5c8.5-8.3,10.9-21.6,10.2-29.9
				C1333.4,665.3,1324.7,644.5,1308.3,644.5z"/>
		</g>
		<path class="st2" d="M1292,628.5c0,0,2.2,14.8,24.5,27.9c13.2,7.7-0.6-32.4-0.6-32.4S1285.3,616.4,1292,628.5z"/>
		<path class="st2" d="M1325.2,655.3c0,0-2.7-8.1,4-7.3c10.3,1.2,0.9-7.3,0.9-7.3s-22.5-0.7-15.8,7.3
			C1321.2,656.1,1325.2,655.3,1325.2,655.3z"/>
	</g>
	<path class="st2" d="M2040.7,1220.9l88.8-46.6c4.2-2.2,9.1-2.6,13.6-1l57.3,20c4.3,1.5,4.8,7.4,0.8,9.6l-4.7,2.6
		c-6.2,3.4-13.4,5-20.5,4.4l-37.5-3.1l-31.3,25.9L2040.7,1220.9z"/>
	<path class="st2" d="M2056.4,1246l88.8-46.6c4.2-2.2,9.1-2.6,13.6-1l57.3,20c4.3,1.5,4.8,7.4,0.8,9.6l-4.7,2.6
		c-6.2,3.4-13.4,5-20.5,4.4l-37.5-3.1l-31.3,25.9L2056.4,1246z"/>
	<path class="st2" d="M2047.4,1257.5l88.8-46.6c4.2-2.2,9.1-2.6,13.6-1l57.3,20c4.3,1.5,4.8,7.4,0.8,9.6l-4.7,2.6
		c-6.2,3.4-13.4,5-20.5,4.4l-37.5-3.1l-31.3,25.9L2047.4,1257.5z"/>
	<path class="st2" d="M2082.5,1317.4l57.9-53.1c2.7-2.5,6.4-3.8,10.1-3.5l47.5,3.7c3.6,0.3,5.1,4.6,2.5,7.1l-3,2.9
		c-4,3.9-9.1,6.4-14.6,7.4l-29,5.2l-18.5,26L2082.5,1317.4z"/>
	<g>
		<path class="st1" d="M185.2,1138.4c-14.3-72.9-23.6-189.5-23.6-189.5s217.7,95.4,294.6,203.4s20,214.4,20,214.4
			S236.9,1402.8,185.2,1138.4z"/>
		<g>
			<path class="st0" d="M502.7,1393.9c-7.4-4.7-14.5-9.7-21.4-15c-7-5.2-13.8-10.6-20.5-16.1c-13.5-11-26.4-22.7-39.1-34.7
				c-25.2-24-48.8-49.8-70.8-76.8c-2.7-3.4-5.4-6.8-8.1-10.3l-4-5.1l-4-5.2c-5.3-7-10.4-14-15.5-21.1c-2.5-3.5-5-7.2-7.4-10.8
				c-2.5-3.6-4.9-7.2-7.3-10.9l-7.1-11l-6.8-11.2l-3.4-5.6l-3.2-5.7c-2.2-3.8-4.3-7.6-6.4-11.4c-4.1-7.7-8.3-15.3-12-23.2
				c-1.9-3.9-3.8-7.8-5.7-11.8c-1.8-4-3.6-8-5.3-12c-0.9-2-1.7-4-2.6-6l-2.4-6.1c-1.6-4.1-3.1-8.1-4.6-12.2
				c19.9,28.6,39.3,57,59.8,84.5c10.1,13.8,20.5,27.5,31,41c2.7,3.4,5.3,6.8,7.9,10.1c2.6,3.4,5.3,6.7,8,10.1l4,5.1l4,5l8.1,10
				c21.6,26.6,43.7,52.8,66.3,78.7c11.3,13,22.7,25.9,34.1,38.7L502.7,1393.9z"/>
		</g>
	</g>
	<g>
		<polygon class="st2" points="2784.9,2467.5 2778,2468.2 2772.2,2412.8 2716.8,2418.6 2716.1,2411.7 2771.5,2406 2765.7,2350.6 
			2772.6,2349.9 2778.4,2405.2 2833.7,2399.5 2834.5,2406.3 2779.1,2412.1 		"/>
	</g>
	<circle class="st1" cx="-391.7" cy="98.8" r="68.9"/>
	<path class="st3" d="M2559.2,2896.8c0,0,52.2-72.5,124.9-45.8s42.7,59,15.4,58.5C2672.1,2909.1,2584.5,2915.8,2559.2,2896.8z"/>
	<path class="st3" d="M2348.6,2668.4c0,0,42.1,65.7,31.6,138.5C2380.2,2806.9,2267.5,2775.8,2348.6,2668.4z"/>
	<path class="st19" d="M3500.6,2641.5c0,0,47.2-28.4,69-140.2"/>
	<path class="st19" d="M3513.7,2649.4c0,0,47.2-28.4,69-140.2"/>
	<path class="st3" d="M3579.8,2696.9c0,0,52.1-70.5,131.2-45.4C3711,2651.4,3673.9,2799.5,3579.8,2696.9z"/>
	<path class="st3" d="M3741.2,2402.1c0,0,40.5,105.7,78.4,83.6C3853.3,2465.9,3839.7,2265.7,3741.2,2402.1z"/>
</g>
</svg>
