<?xml version="1.0" encoding="utf-8"?>
<!-- Generator: Adobe Illustrator 23.1.0, SVG Export Plug-In . SVG Version: 6.00 Build 0)  -->
<svg version="1.1" xmlns="http://www.w3.org/2000/svg" xmlns:xlink="http://www.w3.org/1999/xlink" x="0px" y="0px"
	 viewBox="0 0 1920 1396" style="enable-background:new 0 0 1920 1396;" xml:space="preserve">
<style type="text/css">
	.st0{fill:#FF7A46;}
	.st1{opacity:0.5;fill:#FECC90;}
	.st2{clip-path:url(#SVGID_2_);}
	.st3{fill:#FECC90;}
	.st4{fill:#FFFFFF;}
	.st5{fill:#FDDCBE;}
	.st6{fill:#FD387C;}
	.st7{fill:none;stroke:#573499;stroke-width:11.0247;stroke-miterlimit:10;}
	.st8{fill:#C1BAE0;}
	.st9{fill:#7455FF;}
	.st10{fill:#C1BAE0;stroke:#463277;stroke-width:14.1732;stroke-miterlimit:10;}
	.st11{fill:#573499;stroke:#463277;stroke-width:8.5039;stroke-miterlimit:10;}
	.st12{fill:#7455FF;stroke:#463277;stroke-width:14.1732;stroke-miterlimit:10;}
	.st13{fill:#463277;}
	.st14{fill:none;stroke:#000000;stroke-width:20.1189;stroke-miterlimit:10;}
	.st15{fill:#7455FF;stroke:#463277;stroke-width:8.5039;stroke-miterlimit:10;}
	.st16{fill:none;stroke:#000000;stroke-width:11.4965;stroke-miterlimit:10;}
	.st17{fill:#573499;}
	.st18{fill:none;stroke:#573499;stroke-width:9.2718;stroke-miterlimit:10;}
	.st19{fill:none;stroke:#573499;stroke-width:7.9641;stroke-miterlimit:10;}
	.st20{fill:#8B80D8;}
	.st21{fill:#2952A7;}
	.st22{fill:#AB9FFF;}
	.st23{fill:none;stroke:#573499;stroke-width:8.5039;stroke-miterlimit:10;}
	.st24{fill:#D8423A;}
	.st25{fill:none;stroke:#573499;stroke-width:8.5298;stroke-miterlimit:10;}
	.st26{fill:#D13973;}
	.st27{fill:#9DBEFF;}
	.st28{fill:none;stroke:#573499;stroke-width:17.0079;stroke-miterlimit:10;}
	.st29{fill:none;stroke:#573499;stroke-width:20.0108;stroke-miterlimit:10;}
	.st30{fill:none;stroke:#FF7A46;stroke-width:7;stroke-miterlimit:10;}
	.st31{clip-path:url(#SVGID_2_);fill:#FF7A46;}
	.st32{clip-path:url(#SVGID_2_);fill:none;stroke:#573499;stroke-width:8.5039;stroke-miterlimit:10;}
	.st33{clip-path:url(#SVGID_2_);fill:#573499;}
	.st34{clip-path:url(#SVGID_2_);fill:#FECC90;}
	.st35{clip-path:url(#SVGID_2_);fill:#FFFFFF;}
	.st36{clip-path:url(#SVGID_2_);fill:#D8423A;}
	.st37{fill:none;}
</style>
<g id="Camada_1">
</g>
<g id="Camada_2">
	<g id="Camada_3">
	</g>
	<g>
		<path class="st0" d="M95.34,1116.77c2.34,0,3.46,1.18,5.24,3.27c1.81,2.11,4.05,4.75,8.45,4.75c4.39,0,6.64-2.63,8.45-4.74
			c1.78-2.09,2.9-3.27,5.24-3.27c2.33,0,3.45,1.18,5.23,3.27c1.8,2.11,4.05,4.75,8.44,4.75c4.39,0,6.64-2.63,8.44-4.75
			c1.78-2.09,2.9-3.27,5.24-3.27c2.34,0,3.46,1.18,5.24,3.27c1.81,2.11,4.05,4.74,8.45,4.74c4.39,0,6.64-2.63,8.45-4.75
			c1.78-2.09,2.9-3.27,5.24-3.27c2.34,0,3.46,1.18,5.24,3.27c1.81,2.11,4.05,4.74,8.45,4.74c4.4,0,6.64-2.63,8.45-4.75
			c1.78-2.09,2.9-3.27,5.24-3.27c2.34,0,3.46,1.18,5.24,3.27c1.81,2.11,4.05,4.75,8.45,4.75c4.39,0,6.64-2.63,8.45-4.74
			c1.79-2.09,2.91-3.27,5.25-3.27c2.34,0,3.47,1.18,5.25,3.27c1.81,2.11,4.06,4.74,8.45,4.74c4.4,0,6.65-2.63,8.45-4.74
			c1.79-2.09,2.91-3.27,5.25-3.27c1.16,0,2.11-0.94,2.11-2.11c0-1.16-0.94-2.11-2.11-2.11c-4.4,0-6.65,2.63-8.45,4.74
			c-1.79,2.09-2.91,3.27-5.25,3.27c-2.34,0-3.47-1.18-5.25-3.27c-1.81-2.11-4.06-4.74-8.45-4.74c-4.4,0-6.64,2.63-8.45,4.75
			c-1.78,2.09-2.91,3.27-5.25,3.27c-2.34,0-3.46-1.18-5.24-3.27c-1.81-2.11-4.05-4.75-8.45-4.75c-4.39,0-6.64,2.63-8.45,4.74
			c-1.79,2.09-2.91,3.27-5.25,3.27c-2.34,0-3.46-1.18-5.24-3.27c-1.81-2.11-4.05-4.75-8.45-4.75c-4.39,0-6.64,2.63-8.45,4.74
			c-1.78,2.09-2.9,3.27-5.24,3.27c-2.34,0-3.46-1.18-5.24-3.27c-1.81-2.11-4.05-4.75-8.45-4.75c-4.39,0-6.64,2.63-8.44,4.75
			c-1.78,2.09-2.9,3.27-5.24,3.27c-2.33,0-3.46-1.18-5.24-3.27c-1.8-2.11-4.05-4.75-8.44-4.75c-4.39,0-6.64,2.63-8.45,4.75
			c-1.78,2.09-2.9,3.27-5.24,3.27c-2.34,0-3.46-1.18-5.24-3.27c-1.81-2.11-4.05-4.75-8.45-4.75c-1.16,0-2.11,0.94-2.11,2.11
			C93.24,1115.83,94.18,1116.77,95.34,1116.77z"/>
		<path class="st0" d="M70.38,1145.9c2.34,0,3.46,1.18,5.24,3.27c1.81,2.11,4.05,4.75,8.45,4.75c4.39,0,6.64-2.63,8.45-4.74
			c1.78-2.09,2.9-3.27,5.24-3.27c2.33,0,3.45,1.18,5.23,3.27c1.8,2.11,4.05,4.75,8.44,4.75c4.39,0,6.64-2.63,8.44-4.75
			c1.78-2.09,2.9-3.27,5.24-3.27c2.34,0,3.46,1.18,5.24,3.27c1.81,2.11,4.05,4.74,8.45,4.74c4.39,0,6.64-2.63,8.45-4.75
			c1.78-2.09,2.9-3.27,5.24-3.27c2.34,0,3.46,1.18,5.24,3.27c1.81,2.11,4.05,4.74,8.45,4.74c4.4,0,6.64-2.63,8.45-4.75
			c1.78-2.09,2.9-3.27,5.24-3.27c2.34,0,3.46,1.18,5.24,3.27c1.81,2.11,4.05,4.75,8.45,4.75c4.39,0,6.64-2.63,8.45-4.74
			c1.79-2.09,2.91-3.27,5.25-3.27c2.34,0,3.47,1.18,5.25,3.27c1.81,2.11,4.06,4.74,8.45,4.74c4.4,0,6.65-2.63,8.45-4.74
			c1.79-2.09,2.91-3.27,5.25-3.27c1.16,0,2.11-0.94,2.11-2.11s-0.94-2.11-2.11-2.11c-4.4,0-6.65,2.63-8.45,4.74
			c-1.79,2.09-2.91,3.27-5.25,3.27c-2.34,0-3.47-1.18-5.25-3.27c-1.81-2.11-4.06-4.74-8.45-4.74c-4.4,0-6.64,2.63-8.45,4.75
			c-1.78,2.09-2.91,3.27-5.25,3.27c-2.34,0-3.46-1.18-5.24-3.27c-1.81-2.11-4.05-4.75-8.45-4.75c-4.39,0-6.64,2.63-8.45,4.74
			c-1.79,2.09-2.91,3.27-5.25,3.27c-2.34,0-3.46-1.18-5.24-3.27c-1.81-2.11-4.05-4.75-8.45-4.75c-4.39,0-6.64,2.63-8.45,4.74
			c-1.78,2.09-2.9,3.27-5.24,3.27c-2.34,0-3.46-1.18-5.24-3.27c-1.81-2.11-4.05-4.75-8.45-4.75c-4.39,0-6.64,2.63-8.44,4.75
			c-1.78,2.09-2.9,3.27-5.24,3.27s-3.46-1.18-5.24-3.27c-1.8-2.11-4.05-4.75-8.44-4.75c-4.39,0-6.64,2.63-8.45,4.75
			c-1.78,2.09-2.9,3.27-5.24,3.27c-2.34,0-3.46-1.18-5.24-3.27c-1.81-2.11-4.05-4.75-8.45-4.75c-1.16,0-2.11,0.94-2.11,2.11
			S69.21,1145.9,70.38,1145.9z"/>
		<path class="st1" d="M180.63,1067.8c-21.28-22.68-416.06-451.44,60.09-554.99c1.04-0.23,2.11-0.33,3.18-0.31
			c13.48,0.27,113.1-2.07,152.39-127.34c0,0,59.65-187.25,240.42-145.88c0.48,0.11,0.95,0.25,1.41,0.41
			c13.83,4.76,238.4,78.97,449.64-46.08c0,0,542.55-323.4,501.52,155.61c-39.68,463.23-943.95,825.36-1003.54,848.74
			c-2.03,0.8-4.21,1.09-6.37,0.86c-35.1-3.72-340.03-38.45-397.15-128.95C181.75,1069.13,181.23,1068.44,180.63,1067.8z"/>
		<g>
			<polygon class="st0" points="387.87,260.4 383.45,257.61 405.98,221.96 370.33,199.43 373.12,195.01 408.78,217.54 
				431.31,181.89 435.73,184.68 413.2,220.33 448.85,242.86 446.06,247.28 410.4,224.75 			"/>
		</g>
		<g>
			<polygon class="st0" points="1776.49,334.93 1773.26,336.52 1760.49,310.47 1734.44,323.24 1732.86,320.01 1758.91,307.24 
				1746.13,281.19 1749.36,279.61 1762.13,305.65 1788.18,292.88 1789.77,296.11 1763.72,308.88 			"/>
		</g>
		<path class="st0" d="M102.27,407.83c2.34,0,3.46,1.18,5.24,3.27c1.81,2.11,4.05,4.75,8.45,4.75c4.39,0,6.64-2.63,8.45-4.74
			c1.78-2.09,2.9-3.27,5.24-3.27c2.33,0,3.45,1.18,5.23,3.27c1.8,2.11,4.05,4.75,8.44,4.75s6.64-2.63,8.44-4.75
			c1.78-2.09,2.9-3.27,5.24-3.27c2.34,0,3.46,1.18,5.24,3.27c1.81,2.11,4.05,4.74,8.45,4.74c4.39,0,6.64-2.63,8.45-4.75
			c1.78-2.09,2.9-3.27,5.24-3.27c2.34,0,3.46,1.18,5.24,3.27c1.81,2.11,4.05,4.74,8.45,4.74c4.4,0,6.64-2.63,8.45-4.75
			c1.78-2.09,2.9-3.27,5.24-3.27c2.34,0,3.46,1.18,5.24,3.27c1.81,2.11,4.05,4.75,8.45,4.75c4.39,0,6.64-2.63,8.45-4.74
			c1.79-2.09,2.91-3.27,5.25-3.27c2.34,0,3.47,1.18,5.25,3.27c1.81,2.11,4.06,4.74,8.45,4.74c4.4,0,6.65-2.63,8.45-4.74
			c1.79-2.09,2.91-3.27,5.25-3.27c1.16,0,2.11-0.94,2.11-2.11c0-1.16-0.94-2.11-2.11-2.11c-4.4,0-6.65,2.63-8.45,4.74
			c-1.79,2.09-2.91,3.27-5.25,3.27c-2.34,0-3.47-1.18-5.25-3.27c-1.81-2.11-4.06-4.74-8.45-4.74c-4.4,0-6.64,2.63-8.45,4.75
			c-1.78,2.09-2.91,3.27-5.25,3.27c-2.34,0-3.46-1.18-5.24-3.27c-1.81-2.11-4.05-4.75-8.45-4.75c-4.39,0-6.64,2.63-8.45,4.74
			c-1.79,2.09-2.91,3.27-5.25,3.27c-2.34,0-3.46-1.18-5.24-3.27c-1.81-2.11-4.05-4.75-8.45-4.75c-4.39,0-6.64,2.63-8.45,4.74
			c-1.78,2.09-2.9,3.27-5.24,3.27c-2.34,0-3.46-1.18-5.24-3.27c-1.81-2.11-4.05-4.75-8.45-4.75c-4.39,0-6.64,2.63-8.44,4.75
			c-1.78,2.09-2.9,3.27-5.24,3.27c-2.33,0-3.46-1.18-5.24-3.27c-1.8-2.11-4.05-4.75-8.44-4.75c-4.39,0-6.64,2.63-8.45,4.75
			c-1.78,2.09-2.9,3.27-5.24,3.27c-2.34,0-3.46-1.18-5.24-3.27c-1.81-2.11-4.05-4.75-8.45-4.75c-1.16,0-2.11,0.94-2.11,2.11
			C100.16,406.89,101.11,407.83,102.27,407.83z"/>
		<g>
			<defs>
				<path id="SVGID_1_" d="M256.47,1040.88c0,0-430.89-450.57,60.87-556.28c0,0,111.73,7.2,153.91-127.28
					c0,0,59.82-187.76,241.16-145.71c0,0,232.26,83.24,450.31-45.85c0,0,542.55-323.4,501.52,155.61
					c-8.7,101.51,164.05,223.25,156.71,472.64c-13.06,444.06-226.15,508.34-404.82,562.15c-341.69,102.9-401.08-116.35-557.85-48.27
					C675.82,1387.12,252.65,1359.56,256.47,1040.88z"/>
			</defs>
			<clipPath id="SVGID_2_">
				<use xlink:href="#SVGID_1_"  style="overflow:visible;"/>
			</clipPath>
			<g class="st2">
				<path class="st3" d="M254.93,1042.75c0,0-430.89-450.57,60.87-556.28c0,0,111.73,7.2,153.91-127.28
					c0,0,59.82-187.76,241.16-145.71c0,0,232.26,83.24,450.31-45.85c0,0,542.55-323.4,501.52,155.61
					c-8.7,101.51,164.05,223.25,156.71,472.64c-13.06,444.06-226.15,508.34-404.82,562.15c-341.69,102.9-401.08-116.35-557.85-48.27
					C674.28,1388.98,251.11,1361.42,254.93,1042.75z"/>
				<circle class="st0" cx="1164.95" cy="574.89" r="268.76"/>
				<path class="st4" d="M497.83,779.84c-2.35-1.71-5.52-1.77-8.38-1.26c-10.61,1.92-18.66,10.33-25.92,18.29
					c-10.47,11.47-30.74,29.57-32.89,45.94c-0.55,4.2,0.01,7.08,1.28,8.96c-3.87,6.93-7.35,14.05-10.27,21.49
					c-5.66-11.8-10.93-23.8-16.01-35.85l-10.76-26c2.94-6.52,5.96-12.88,9.17-19.13c5.75,1.36,13.79-3.54,18.55-8.36
					c9.01-9.12,16.8-19.65,23.77-30.38c6.44-9.91,31.35-47.43,12.27-56.54c-2.96-1.41-6.48-0.82-9.54,0.35
					c-11.35,4.33-18.52,15.31-24.91,25.64c-9.21,14.88-27.9,39.14-26.88,57.71c0.19,3.41,0.87,5.94,1.9,7.78
					c-0.03,0.07-0.06,0.14-0.09,0.21c-2.36,6.42-4.28,13.04-5.46,19.78l-9.58-23.15l-21.85-52c-0.33-0.77-0.66-1.54-0.99-2.31
					c3.82-5.57,7.38-11.26,10.81-17.02c6.07,0.27,13.6-5.31,18-10.55c8.76-10.44,16.1-22.27,22.57-34.24
					c5.97-11.06,29.13-52.96,8.13-60.96c-3.26-1.24-6.94-0.31-10.08,1.19c-11.65,5.56-18.3,17.82-24.18,29.31
					c-8.48,16.56-26.19,43.88-23.5,63.47c0.68,4.93,2.19,8.06,4.19,9.85c-2.37,5.66-4.63,11.38-6.69,17.2
					c-8.09-18.84-16.09-37.73-24.29-56.54c1.7-8.72,3.8-17.19,6.31-25.57c0.28-0.96,0.58-1.91,0.87-2.87
					c7.12,3.12,15.82-6.03,19.81-13.63c6.34-12.06,11.01-25.18,14.78-38.25c3.49-12.07,17.22-57.94-5-61.3
					c-3.44-0.52-6.85,1.18-9.6,3.31c-10.2,7.91-14.1,21.3-17.41,33.78c-4.77,17.98-16.27,48.44-9.49,67.01
					c0.49,1.35,1.03,2.53,1.59,3.57c-0.52,2.32-1,4.65-1.42,7c-1.36,7.73-2.19,15.64-1.95,23.49c-5.76-13.17-11.64-26.3-17.74-39.33
					c-2.11-4.55-4.24-9.09-6.36-13.63c3.89-4.56,4.47-13.65,3.35-20.25c-2.29-13.44-6.54-26.69-11.48-39.37
					c-4.56-11.71-21.49-56.49-41.19-45.67c-3.05,1.68-4.73,5.09-5.62,8.45c-3.31,12.48,1.73,25.49,6.68,37.41
					c7.13,17.18,16.48,48.37,33.14,59.01c4.25,2.71,7.65,3.58,10.33,3.17c1.9,4.44,3.8,8.88,5.7,13.31l11.02,25.93l4.61,11.09
					c-4.97-4.68-10.46-8.83-16.13-12.6c-1.99-1.31-4.02-2.57-6.06-3.79c-0.37-1.12-0.85-2.32-1.49-3.61
					c-8.79-17.71-38.79-30.35-55.11-39.28c-11.32-6.2-23.72-12.6-36.48-10.65c-3.44,0.52-7.01,1.82-9.01,4.68
					c-12.87,18.42,29.83,40.06,40.99,45.85c12.07,6.27,24.8,11.92,37.91,15.64c8.26,2.34,20.88,2.34,23.52-4.97
					c0.89,0.45,1.79,0.89,2.68,1.34c7.16,3.63,14.13,7.55,21.02,11.85l4.35,10.48l20.65,49.18c-6.16-2.82-12.4-5.36-18.7-7.75
					c0.08-2.69-1.14-5.93-4.25-9.82c-12.35-15.44-44.35-21.43-62.19-26.69c-12.38-3.65-25.85-7.28-37.91-2.67
					c-3.25,1.24-6.46,3.27-7.81,6.48c-8.67,20.73,37.66,32.81,49.79,36.11c13.13,3.56,26.76,6.39,40.36,7.23
					c6.83,0.43,16.06-1.19,20.05-5.78c6.99,1.59,14.03,3.01,21.17,4.1l0.67,1.61c10.7,25,21.33,49.99,32.26,74.89
					c-6.7-4.96-14.12-8.93-21.78-12.24c-0.07-0.03-0.14-0.06-0.21-0.09c-0.63-2.01-1.99-4.25-4.33-6.74
					c-12.76-13.54-43.22-16.7-60.35-20.27c-11.89-2.48-24.79-4.85-35.75,0.4c-2.95,1.41-5.81,3.56-6.83,6.68
					c-6.54,20.1,37.81,27.89,49.44,30.05c12.58,2.34,25.58,3.94,38.4,3.7c6.77-0.13,15.86-2.58,18.84-7.68
					c7.74,2.27,15.41,4.84,23.19,7.59c3.99,9.08,8.02,18.16,12.11,27.21c5.45,11.92,11.15,23.75,17.34,35.34
					c-7.45-3.04-15.06-5.44-22.8-7.42c-0.49-2.22-2.19-4.61-5.62-7.1c-13.34-9.72-40.43-7.5-55.96-7.81
					c-10.78-0.22-22.42-0.17-31.11,6.19c-2.34,1.72-4.49,4.06-4.86,6.94c-2.42,18.6,37.55,18.14,48.04,18.12
					c11.36-0.02,22.96-0.75,34.1-3.06c4.91-1.02,10.95-3.71,13.85-7.43c0.14,0.02,0.28,0.03,0.42,0.05
					c7.99,0.89,16.04,1.76,24.24,2.07c2.62,4.89,5.31,9.73,8.13,14.51c9.58,16.27,20.44,31.86,33.06,45.84
					c-14.71-19.39-26.56-40.46-37.04-62.24c5.37-6.1,10.24-12.48,15.06-18.83c0.08-0.11,0.17-0.22,0.25-0.34
					c4.7,0.46,10.81-2.07,14.93-4.92c9.35-6.48,17.87-14.39,25.71-22.61C485.11,819.55,512.98,790.9,497.83,779.84z"/>
				<g>
					<path class="st5" d="M1369.14,353.82c0,0,46,37.31,62.01,24.75C1431.16,378.58,1411.07,347.15,1369.14,353.82z"/>
					<path class="st5" d="M1443.17,312.25c0,0,4.1,59.09-15.38,64.97C1427.79,377.22,1413.62,342.72,1443.17,312.25z"/>
					<path class="st5" d="M1385.93,274.59c0,0,44.16,58.44,27.96,77.69C1413.89,352.28,1375.91,326.12,1385.93,274.59z"/>
					<path class="st5" d="M1387.16,403.48c0,0,45.6,31.56,65.53,15.93C1452.69,419.41,1435.19,389.85,1387.16,403.48z"/>
					<path class="st5" d="M1476.71,348.37c0,0-4.81,60.93-27.57,70.16C1449.14,418.54,1438.75,384.83,1476.71,348.37z"/>
					<path class="st5" d="M1415.3,449.49c0,0,53.59,23.26,68.29,4.84C1483.59,454.33,1457.85,428.46,1415.3,449.49z"/>
					<path class="st5" d="M1485.83,381.44c0,0,13.39,59.96-5.95,72.62C1479.89,454.06,1459.82,423.01,1485.83,381.44z"/>
					<path class="st5" d="M1445.3,480.38c0,0,53.59,23.26,68.29,4.84C1513.59,485.22,1487.85,459.36,1445.3,480.38z"/>
					<path class="st5" d="M1515.84,412.33c0,0,13.39,59.96-5.95,72.62C1509.89,484.95,1489.82,453.9,1515.84,412.33z"/>
					<path class="st5" d="M1472.87,512.54c0,0,53.59,23.26,68.29,4.84C1541.16,517.39,1515.42,491.52,1472.87,512.54z"/>
					<path class="st5" d="M1543.4,444.5c0,0,13.39,59.96-5.95,72.62C1537.45,517.11,1517.39,486.07,1543.4,444.5z"/>
					<path class="st5" d="M1402.23,316.6c3.8,10.34,8.26,20.43,12.98,30.38c4.73,9.95,9.8,19.73,15.18,29.33
						c10.68,19.25,22.61,37.78,35.67,55.43c13.1,17.65,27.69,34.07,42.8,49.93c15.07,15.94,31.45,30.56,48.51,44.6l-0.31,0.44
						c-9.35-5.89-18.58-12.1-27.16-19.13c-4.43-3.36-8.51-7.12-12.76-10.7c-2.07-1.85-4.07-3.77-6.11-5.65
						c-2.05-1.88-4.06-3.79-6.02-5.76c-7.99-7.72-15.29-16.12-22.4-24.64c-7-8.62-13.64-17.51-20.06-26.54
						c-12.75-18.14-24.3-37.08-34.55-56.69c-5.09-9.82-9.86-19.8-14.28-29.94c-4.41-10.14-8.55-20.39-12.02-30.88L1402.23,316.6z"/>
				</g>
				<g>
					<path class="st6" d="M1476.64,451.51c-6.18,2.8-39.71,24.67,29.7,68.13c9.45,5.91,0.46,29.03,44.99,39.1
						c4.8,1.09,9.57,2.61,14.19,4.56c16.37,6.89,58.53,20.32,76.59-14.59c2.83-5.48,6.61-10.46,11.46-14.62
						c3.8-3.27,7.57-8.99,7.01-18.69c0,0-1.76-8.6-8.24-15.15c-8.56-8.66-13-19.23-12.43-29.09c0.65-11.25,4.22-25.62-4.82-31.54
						c0,0-14.23-15.81-50.05-4.21c0,0-13.53-0.72-19.77-29.87c0,0-12.31-45.04-37.8-47.32c-6.46-0.58-12.02,1.85-14.74,6.2
						c-1.61,2.58-4.18,6.18-7.89,10.05c-6.32,6.58-7.3,16.3-2.55,25.64c6.7,13.18,4.99,32.09,1.82,41.91
						C1500.11,454.39,1488.29,446.24,1476.64,451.51z"/>
					<path class="st7" d="M1603.58,570.28c0,0-58.05-101.51-65.18-174.73"/>
					<path class="st7" d="M1558.08,466.92c0,0-25.37-5.3-37.65-15.98"/>
					<path class="st7" d="M1587.19,540.57c-1.94,5.31,34.71-12.92,36.02-30.23"/>
					<path class="st7" d="M1536.42,524.05c-6.86,0.46,38.56,20.65,57.26,15.53"/>
					<path class="st7" d="M1566.52,489.44c0,0,20.37-4.57,21.23-18.22"/>
					<path class="st7" d="M1574.17,508.21c-36.1-0.05-53.54-13.72-53.54-13.72"/>
				</g>
				<g>
					<path class="st4" d="M1366.99,889.95c3.85-2.5,130.94,17.33,192.54,39.04v-35.46c0,0-161.51-36.24-192.54-38.73V889.95z"/>
					<path class="st4" d="M969.11,890.37c0,5.41,136.91-14.98,218.62-9.99l3.42-32.46c0,0-191.24,11.24-222.05,23.72V890.37z"/>
					<path class="st8" d="M886.61,869.2l10.91-272.14l25.03-15.81l67.59,19.97c0,0,152.15-203.07,521.77-113.18l123.34-87.38
						c0,0,46.2,588.35,44.92,592.09c-1.28,3.75-191.24-67.42-729.03-77.41l-64.52-1.25V869.2z"/>
					<path class="st3" d="M969.11,837.93v33.71c0,0,286.22-64.92,577.58,17.48l21.82,7.49l0.43-46.61
						C1568.93,850,1341.32,768.01,969.11,837.93z"/>
					<path class="st9" d="M1082.06,629.43l-91.92-28.22c0,0,170.1-225.45,521.77-111.52l-121.81,92.29
						C1390.1,581.99,1202.71,544.54,1082.06,629.43z"/>
					<path class="st10" d="M942.58,797.21c0,0,247.88-123.38,662.38-33.77l4.18,53.27c0,0-332-81.15-643.89,1.25l-24.39,7.49
						L942.58,797.21z"/>
					<path class="st11" d="M964.95,859.15l-0.83,37.45v19.09c0,0,442.3,12.15,609.15,52.09l-1.25-74.25
						C1572.01,893.53,1274.01,814.7,964.95,859.15z"/>
					<path class="st12" d="M962.23,790.4c0,0,14.58-82.31,121.11-150.97c0,0,133.48-86.38,327.29-33.72
						c0,0,67.6,48.29,108.67,139.43C1519.3,745.13,1205.76,696.77,962.23,790.4z"/>
					<path class="st11" d="M1011.46,605.7c1.45,2.51,161.08-173.73,471.98-96.22l29.72-21.44c0,0-298.18-127.45-523.01,113.18
						L1011.46,605.7z"/>
					<path class="st13" d="M940.04,828.77l29.07,9.16c0,0,327.29-66.17,583.99,7.49l15.83,4.58l42.7-30.79
						C1611.63,819.2,1198.43,723.56,940.04,828.77z"/>
					<path class="st14" d="M1195,802.97"/>
					<g>
						<path class="st13" d="M1032.64,771.1l-5.85-1.22c0.16-0.78,4.19-19.53,21.29-48.95c9.99-17.19,22.41-34.48,36.92-51.39
							c18.1-21.1,39.52-41.68,63.67-61.16l3.75,4.65c-53.85,43.44-83.55,84.11-98.99,110.58
							C1036.72,752.28,1032.68,770.91,1032.64,771.1z"/>
					</g>
					<g>
						<path class="st13" d="M1159.83,745.7l-5.71-1.77c0.18-0.59,0.38-2.13,0.6-3.93c1.95-15.62,7.9-63.15,73.53-148.47l4.74,3.65
							c-64.63,84.04-70.43,130.35-72.33,145.57C1160.36,743.07,1160.16,744.61,1159.83,745.7z"/>
					</g>
					<g>
						<path class="st13" d="M1341.54,731.59C1341.54,731.59,1341.54,731.59,1341.54,731.59L1341.54,731.59
							c-0.01-0.21-0.93-15.35-6.75-39.96c-5.39-22.74-16.19-58.46-37.07-99.44l5.33-2.71c21.19,41.59,32.15,77.86,37.61,100.97
							c5.93,25.11,6.83,40.18,6.86,40.81L1341.54,731.59z"/>
					</g>
					<polygon class="st9" points="925.47,585.82 917.81,914.69 882.34,914.09 897.52,597.06 922.55,581.24 					"/>
					<g>
						<path class="st13" d="M1090.74,627.83c-27.01-2.56-62.47-33.44-63.97-34.75l3.94-4.49c0.35,0.31,35.51,30.92,60.59,33.29
							L1090.74,627.83z"/>
					</g>
					<g>
						<path class="st13" d="M1111.04,616.49c-32-9.2-59.01-41.22-60.14-42.57l4.59-3.83c0.27,0.32,26.99,31.97,57.21,40.66
							L1111.04,616.49z"/>
					</g>
					<g>
						<path class="st13" d="M1136.86,604.04c-23.23-9.34-40.72-30.53-50.11-41.92c-2.36-2.86-4.8-5.82-5.59-6.34
							c0.34,0.23,1.39,0.5,2.42-0.11l-3.05-5.14c2.58-1.53,4.92,0.97,6.05,2.18c1.24,1.32,2.8,3.22,4.78,5.61
							c9.06,10.98,25.92,31.41,47.73,40.18L1136.86,604.04z"/>
					</g>
					<g>
						<path class="st13" d="M1163.15,594.04c-28.91-21.71-43.55-62.31-44.16-64.02l5.64-2c0,0,0,0,0,0l0,0
							c0.16,0.45,14.68,40.64,42.11,61.24L1163.15,594.04z"/>
					</g>
					<g>
						<path class="st13" d="M1196.13,585.52c-17.99-21.57-29.72-69.63-30.21-71.66l5.81-1.4c0.12,0.48,11.89,48.74,28.99,69.23
							L1196.13,585.52z"/>
					</g>
					<g>
						<path class="st13" d="M1233.29,577.98c-17.69-32.59-23.88-76.05-24.14-77.88l5.92-0.82c0.06,0.44,6.3,44.24,23.47,75.85
							L1233.29,577.98z"/>
					</g>
					<g>
						<path class="st13" d="M1265.73,575.71c-10.68-37.44-11.25-83.12-11.25-83.58l5.98-0.06c0,0.45,0.56,45.35,11.02,82
							L1265.73,575.71z"/>
					</g>
					<g>
						<path class="st13" d="M1303.28,573.11l-5.82-1.38c6.36-26.74,0-83.34-0.06-83.91l5.94-0.68
							C1303.61,489.51,1309.89,545.36,1303.28,573.11z"/>
					</g>
					<g>
						<path class="st13" d="M1331.31,574.66l-5.64-1.98c8.48-24.13,9.44-84.63,9.45-85.24l5.98,0.09
							C1341.06,490.05,1340.11,549.61,1331.31,574.66z"/>
					</g>
					<g>
						<path class="st13" d="M1351.84,578.69l-4.18-4.28c25.64-25.07,27.03-81.8,27.05-82.37l5.98,0.11
							c-0.01,0.61-0.32,15.03-3.97,32.92C1371.77,549.35,1363.4,567.38,1351.84,578.69z"/>
					</g>
					<g>
						<path class="st13" d="M1374.56,582.1l-4.08-4.37c29.83-27.81,44.85-83.54,45-84.1l5.78,1.53c-0.16,0.59-3.9,14.62-11.51,32.4
							C1399.48,551.55,1387.64,569.9,1374.56,582.1z"/>
					</g>
					<g>
						<path class="st13" d="M1389.52,584.22l-3.98-4.46c46.45-41.52,63.24-80.84,63.41-81.23l5.52,2.31
							c-0.17,0.42-4.4,10.4-14.54,25.73C1430.6,540.65,1414.29,562.08,1389.52,584.22z"/>
					</g>
					<polygon class="st9" points="1635.25,400.65 1680.19,415.63 1736.21,999.86 1680.17,992.74 					"/>
					<polygon class="st15" points="1072.98,918.81 1079.56,809.63 1094.89,809.21 1089.76,918.81 					"/>
					<polygon class="st15" points="1500.27,818.37 1500.27,956.57 1479.69,953.2 1479.69,814.31 					"/>
					<line class="st16" x1="1250.66" y1="874.55" x2="1217.01" y2="849.05"/>
					<path class="st8" d="M1205.76,847.43v-38.7l146.64,3.68v41.9C1352.39,854.31,1269.5,842.44,1205.76,847.43z"/>
					<path class="st11" d="M1230.05,838.35l0.43-20.81c0,0,58.28-1.66,91.65,2.08l-0.43,24.14L1230.05,838.35z"/>
					<polygon class="st15" points="1335.97,936.22 1335.97,798.81 1361.86,800.89 1361.86,938.3 					"/>
					<path class="st13" d="M1205.76,847.43v78.64c0,0,42.3,1.92,51.71,3.7l-3.85-57.73l-42.36-28.3L1205.76,847.43z"/>
					<polygon class="st15" points="1187.73,924.6 1211.64,926.08 1216.82,797.98 1195,800.06 1188.59,918.81 					"/>
					<path class="st3" d="M1246.39,928.58l2.14-55.69l87.44,4.99v58.34C1335.97,936.22,1292.21,933.08,1246.39,928.58z"/>
					<path class="st11" d="M1083.34,639.42c0,0,135.37-79.16,309.93-39.21l-3.17-18.22c0,0-177.12-42.45-308.04,47.44
						L1083.34,639.42z"/>
					<path class="st17" d="M1390.1,581.99"/>
				</g>
				<g>
					<path class="st3" d="M113.26,948.28c0,0-24.81-28.79,6.38-55.59c0,0,20.81-18.44,52.34,6.01c0,0,31.2,31.63,37.15,9.22
						c0,0,8.39-35.92,39.98-20.57c6.57,3.19,13.83,17.33,18.14,22.91c10.64,13.74,35.38,44.52,39.28,38.74
						c0,0,47.36,27.42,24.56,56.68c-34.84,44.71-46.46,57.33-91.47,51.31c-28.44-3.8-59.9-1.18-72.82-28.58
						c-5.46-11.59-2.61-25.56,6.81-35.79c7.43-8.07-10.72-21.2-33.36-24.31C140.27,968.32,120.75,962.27,113.26,948.28z"/>
					<path class="st18" d="M148.83,922.78c0,0,131.38,91.24,155.19,79.79"/>
					<path class="st18" d="M267.13,993.22c-4.35,1.95-21.82,33.92-58.74,30.73"/>
					<path class="st19" d="M221.64,967.1c0,0-2.07-2.91-3.86-21.41c-1.79-18.5-4.53-12.61-4.53-12.61"/>
					<line class="st18" x1="179.88" y1="945.46" x2="152.52" y2="945.09"/>
				</g>
				<path class="st9" d="M786.97,998.42c0,0,324.89-187.42,987.47,13.11c515.47,156.01-97.24,321.03-97.24,321.03
					S901.58,1165.05,786.97,998.42z"/>
				<path class="st20" d="M271.63,1249.09c-15.44-22.27-124.56-180.66-44.8-268.43s622.37-226.08,1176.64,72.77
					c365.29,196.96,144.24,304.94-48.97,355.67c-94.93,24.93-195.8,4.49-274.23-54.52c-56.12-42.22-141.36-74.63-256.41-32.72
					C513.25,1435.02,322.6,1322.63,271.63,1249.09z"/>
				<path class="st17" d="M295.61,1242.87c4.99,0,19.97,3.33,13.32-33.29c0,0-34.93-44.41,1.68-101.27c0,0,20.7-17.03,16.63-56.86
					c0,0-26.63-42.51,23.3-83.67c0,0-9.99-53.76,21.64-119.86c0,0,8.69-62.2,102.55-39.19c0,0,48.5,2.97,103.43-13.85
					c0,0,48.69-35.52,78.65,14.82c0,0,11.65,36.52,23.3,45.09c0,0,24.97,21.94,26.63,51.88c0,0,1.66,25,8.32,31.63
					c0,0,51.6,33.26,51.6,64.88c4.73,4.82,10.66,47.42,21.64,51.6c0,0,49.93,39.95,43.28,93.21c-6.66,53.26,9.15,212.21,9.15,212.21
					l-385.12,33.58l-76.77-132.61L295.61,1242.87z"/>
				<g>
					<g>
						<path class="st5" d="M1057.41,921.08c10.43-18.96,30.1-46.75,30.1-46.75s30.84,61.96,27.87,100.44
							c-2.96,38.48-35.56,51.65-35.56,51.65S1019.59,989.83,1057.41,921.08z"/>
						<g>
							<path class="st21" d="M1083.21,921.62c0.22,8.95,0.19,17.66,0.11,26.37c-0.09,8.7-0.22,17.36-0.46,26.02l-0.15,6.5
								c-0.12,2.17-0.12,4.34-0.19,6.51l-0.26,6.51c-0.06,2.17-0.15,4.35-0.27,6.53c-0.04,1.09-0.13,2.18-0.19,3.27
								c-0.05,1.09-0.09,2.18-0.16,3.27c-0.12,2.18-0.27,4.37-0.45,6.57c-0.34,4.39-0.66,8.79-1.38,13.25
								c-0.67-2.14-1.26-4.3-1.78-6.46c-0.52-2.16-1.04-4.33-1.45-6.51c-0.4-2.18-0.77-4.37-1.11-6.56
								c-0.35-2.19-0.65-4.39-0.86-6.59c-0.5-4.4-0.84-8.82-1-13.24c-0.1-2.21-0.16-4.42-0.17-6.64l0.04-6.64
								c0.25-8.85,1.03-17.7,2.51-26.46c0.76-4.38,1.65-8.73,2.83-13.03C1080.01,929.99,1081.34,925.71,1083.21,921.62z"/>
						</g>
					</g>
					<g>
						<path class="st5" d="M1226.72,977.44c16.88,5.58,42.28,17.29,42.28,17.29s-45.41,34.21-76.94,37.6
							c-31.52,3.39-47.05-20.97-47.05-20.97S1165.51,957.22,1226.72,977.44z"/>
						<g>
							<path class="st21" d="M1236.15,1000.08c-3.22,2.42-6.69,4.39-10.22,6.22c-3.54,1.82-7.17,3.41-10.88,4.84
								c-7.42,2.81-15.12,4.97-23.01,6.26c-7.88,1.31-15.98,1.8-24.04,1.04c-8.01-0.77-16.15-2.8-22.99-7.09
								c4.02,0.23,7.87,0.36,11.7,0.3c3.81-0.02,7.6-0.29,11.35-0.59c7.52-0.63,14.97-1.69,22.45-2.92
								c7.48-1.21,14.96-2.66,22.53-4.08C1220.62,1002.67,1228.22,1001.18,1236.15,1000.08z"/>
						</g>
					</g>
					<g>
						<path class="st5" d="M1128.55,932.84c17.4-12.66,46.85-29.36,46.85-29.36s1.56,68.8-17.37,102.18
							c-18.93,33.38-53.84,31.45-53.84,31.45S1065.46,978.74,1128.55,932.84z"/>
						<g>
							<path class="st21" d="M1154.08,942.49c-3.39,8.48-7.29,16.51-11.24,24.5c-3.98,7.96-8.07,15.82-12.25,23.63
								c-4.21,7.79-8.39,15.57-12.75,23.31c-4.41,7.72-8.64,15.52-13.64,23.19c0.32-2.26,0.72-4.5,1.19-6.73
								c0.23-1.12,0.46-2.23,0.73-3.33l0.87-3.29c0.62-2.18,1.21-4.37,1.92-6.52c0.72-2.14,1.46-4.28,2.23-6.41
								c3.18-8.46,6.89-16.72,11.18-24.65c4.27-7.94,8.99-15.63,14.21-22.99c2.63-3.66,5.35-7.26,8.26-10.74
								C1147.71,949,1150.73,945.61,1154.08,942.49z"/>
						</g>
					</g>
				</g>
				<g>
					<g>
						<path class="st5" d="M1273.35,1307.43c-27.67-38.56-64.07-103.74-64.07-103.74s151.74-2.46,225.09,39.76
							c73.34,42.22,68.58,119.18,68.58,119.18S1373.65,1447.23,1273.35,1307.43z"/>
						<g>
							<path class="st21" d="M1298.8,1256.89c17.92,8.03,35.11,16.32,52.28,24.68c17.14,8.38,34.13,16.86,51.06,25.51
								c8.53,4.19,16.91,8.68,25.41,12.97c4.24,2.16,8.42,4.45,12.65,6.65c4.24,2.19,8.46,4.41,12.66,6.7
								c2.11,1.13,4.19,2.32,6.29,3.48c2.11,1.13,4.23,2.23,6.33,3.41c4.21,2.3,8.4,4.68,12.57,7.1
								c8.36,4.83,16.77,9.61,24.91,15.24c-4.88-0.67-9.68-1.59-14.47-2.58c-4.78-1.01-9.56-2.03-14.26-3.3
								c-4.69-1.28-9.37-2.6-14.02-4.01c-2.34-0.68-4.65-1.42-6.97-2.15c-2.3-0.77-4.6-1.54-6.89-2.36
								c-4.58-1.61-9.14-3.28-13.68-4.99c-2.28-0.84-4.51-1.79-6.75-2.72l-6.71-2.82c-8.97-3.72-17.69-8-26.39-12.3
								c-17.27-8.87-34.07-18.74-49.98-29.97c-1.99-1.4-3.95-2.85-5.92-4.28c-1.98-1.41-3.91-2.9-5.83-4.41
								c-1.92-1.51-3.85-2.98-5.75-4.52l-5.61-4.71c-1.85-1.59-3.7-3.18-5.5-4.85c-1.79-1.67-3.62-3.28-5.35-5.03
								C1305.37,1264.22,1301.93,1260.71,1298.8,1256.89z"/>
						</g>
					</g>
					<g>
						<path class="st5" d="M1544.86,1025.68c26.99-28.14,74.17-67.33,74.17-67.33s24.78,122.19,1.7,187.77
							c-23.09,65.58-85.95,73.29-85.95,73.29S1447.02,1127.68,1544.86,1025.68z"/>
						<g>
							<path class="st21" d="M1598.59,1028.41c0.91,4.33,1.45,8.68,1.87,13.03c0.42,4.35,0.65,8.71,0.79,13.07
								c0.25,8.71-0.04,17.42-0.7,26.1c-0.69,8.68-1.84,17.32-3.39,25.91c-0.75,4.3-1.69,8.57-2.64,12.83l-1.58,6.37
								c-0.52,2.12-1.17,4.22-1.75,6.34c-2.43,8.42-5.28,16.75-8.73,24.88c-3.44,8.12-7.29,16.1-11.92,23.69
								c-0.57,0.95-1.1,1.92-1.72,2.84l-1.84,2.78c-1.25,1.84-2.39,3.73-3.77,5.49c-1.34,1.78-2.65,3.57-4.01,5.32l-4.34,5.07
								c-0.73,0.84-1.47,1.66-2.26,2.45c-0.78,0.8-1.54,1.6-2.34,2.38l-2.36,2.33c-0.81,0.76-1.67,1.47-2.51,2.2
								c-0.85,0.72-1.67,1.45-2.53,2.15l-1.27,1.05c-0.44,0.34-0.89,0.66-1.34,0.99c-1.81,1.28-3.61,2.56-5.47,3.73
								c1-1.99,2.07-3.89,3.12-5.77c0.26-0.47,0.54-0.92,0.79-1.4l0.73-1.45c0.48-0.97,0.99-1.9,1.47-2.85l1.47-2.81l1.36-2.88
								c0.89-1.92,1.91-3.73,2.7-5.69l2.59-5.7c0.78-1.94,1.62-3.85,2.42-5.76c0.83-1.89,1.54-3.86,2.33-5.77l1.15-2.88l1.08-2.91
								c2.96-7.71,5.6-15.55,8.17-23.41c2.59-7.85,4.95-15.8,7.27-23.77c4.67-15.95,8.84-32.13,13.21-48.43
								C1589.02,1061.59,1593.26,1045.16,1598.59,1028.41z"/>
						</g>
					</g>
					<g>
						<path class="st5" d="M1363.86,1177.78c-8.6-46.4-13.81-120.45-13.81-120.45s137.61,61.92,185.78,130.92
							c48.16,69,11.35,136.25,11.35,136.25S1395.04,1345.99,1363.86,1177.78z"/>
						<g>
							<path class="st21" d="M1407.08,1136.38c13.58,14.73,25.78,30.03,37.87,45.38c12.02,15.38,23.68,30.92,35.17,46.56
								c11.43,15.69,22.91,31.3,34.07,47.25c11.1,16.03,22.53,31.77,32.99,48.92c-4.19-2.75-8.22-5.7-12.2-8.71
								c-2-1.5-3.98-3.02-5.91-4.59c-1.91-1.59-3.78-3.22-5.68-4.83c-3.73-3.28-7.51-6.53-11.09-9.97c-1.8-1.71-3.55-3.46-5.31-5.21
								c-1.76-1.75-3.53-3.49-5.27-5.26c-13.76-14.27-26.56-29.44-38.19-45.42c-11.68-15.95-22.46-32.55-32.06-49.84
								c-1.2-2.16-2.35-4.36-3.52-6.53c-1.16-2.18-2.35-4.35-3.44-6.57c-2.22-4.43-4.41-8.87-6.48-13.38
								c-1.01-2.27-2.05-4.52-3.03-6.8c-0.97-2.29-1.94-4.58-2.86-6.89C1410.29,1145.87,1408.54,1141.19,1407.08,1136.38z"/>
						</g>
					</g>
				</g>
				<path class="st22" d="M451.24,830.91c0,0,62.01,31.62,124.02-39.11l-27.08-21.31c0,0-25.13,38.81-43.97,39.22
					c-18.84,0.4-52.97,1.29-52.97,1.29V830.91z"/>
				<path class="st0" d="M486.09,690.6c0,0-39.53-2.54-22.4-33.98c2.63-4.83,8.08-7.5,13.48-6.46c4.8,0.93,10.77,3.99,16.65,12.06
					C493.82,662.21,505.95,680.11,486.09,690.6z"/>
				<path class="st23" d="M579.4,619.53c0,0-11.1-6.48-27.19,18.16"/>
				<line class="st23" x1="551.95" y1="629.43" x2="555.96" y2="632.86"/>
				<line class="st23" x1="556.94" y1="621.52" x2="560.64" y2="626.36"/>
				<line class="st23" x1="564.87" y1="615.24" x2="567.32" y2="622.57"/>
				<g>
					<path class="st22" d="M460.92,1285.36l-3.07-1.76c0.08-0.14,4.46-7.94,6.62-20.17c1.99-11.28,2.45-28.78-6.66-48.06
						c-1.17-2.2-22.4-42.42-16.96-60.16c0.19-0.62,0.45-1.26,0.81-1.99c2.84-5.76,16.77-36.18,11.77-69.44
						c-1.18-7.84-3.85-15.49-7.95-22.75c-4.6-8.14-11.21-20.2-16.57-31.4c-9.11-19.03-9.3-24.46-8.66-26.89l3.42,0.91
						c-1.29,4.86,8.25,26.19,24.89,55.65c4.31,7.64,7.13,15.7,8.37,23.97c5.15,34.3-9.17,65.6-12.1,71.53
						c-0.28,0.56-0.47,1.03-0.6,1.46c-5.05,16.46,16.5,57.09,16.71,57.49l0.04,0.08c9.57,20.2,9.06,38.54,6.94,50.38
						C465.63,1277.04,461.11,1285.03,460.92,1285.36z M459.38,1284.48l-1.54-0.88c0,0,0,0,0,0L459.38,1284.48z"/>
				</g>
				<path class="st6" d="M809.43,1243.68c-0.6-3.7-33.99-167.3,18.59-224.73c0,0,32.35-42.98,113.36-68.45
					c1.74-0.55,3.51-1.09,5.3-1.62c84.9-25.22,176.23,8.89,265.44,71.32c0,0,73.9,121.1,79.06,228.47c0,0-247.36,36.68-408.84,20.82
					C882.34,1269.5,812.12,1260.28,809.43,1243.68z"/>
				<path class="st6" d="M755.84,1276.2c-3.84-4.58-66.31-106.57-103.2-132.37c-30.33-21.21,67.83-74.9,81.14-63.25
					c0,0,73.57,137.32,111.06,140.65c0,0,76.6,48.27,52.05,76.57C872.35,1326.09,813.64,1345.23,755.84,1276.2z"/>
				<path class="st13" d="M726.89,1116.07c7.8-10.52,14.58-23.91,7.71-32.9c0,0-4.05-23.06-56.32,7.98c0,0-54.84,41.86-21.73,53.52
					c0,0,11.36,6.09,32.86-1.06C704.47,1138.59,717.44,1128.81,726.89,1116.07z"/>
				<path class="st3" d="M683.49,893.54c0.92-1.46-32.37,2.67-50.57,30.12c0,0-1.46,36.69,13.21,64.12l25.87-2.82
					C672,984.95,669.4,915.93,683.49,893.54z"/>
				<path class="st0" d="M656.64,989.06c-2.61-9.99,0.16-20.01,0.16-20.01c5.46-15.81,18.31-15.81,18.31-15.81
					c-0.83,43.52,20.02,44.54,20.02,44.54c11.73,8.06,18.61,22.7,20.45,32.86c1.09,6.05-0.14,12.29,0.48,18.41
					c1.54,15.26-5.16,28.29-5.16,28.29l11.66,22.41c1.69,3.25,1.85,7.09,0.39,10.46c-1.78,4.11-5.42,9.29-12.88,12.82
					c-6.74,3.19-13.19,4.37-17.59,4.8c-3.35,0.32-6.54-1.46-8.05-4.47l-6.95-13.86c-8.95-3.09-44.35-32.23-48.81-48.3
					c-8.02-28.88-5.57-52.6-5.57-52.6s-14.24-13.02-15.4-24.94c-0.54-5.54,7.22-10.74,12.79-10.74l17.6,7.91l19.82,12.06
					L656.64,989.06z"/>
				<g>
					<path class="st17" d="M689.39,1057.11l-0.53-0.03c-6.72-0.36-20.69-1.1-41.91-12.24l2.66-5.07
						c20.11,10.56,33.24,11.26,39.55,11.6l0.54,0.03L689.39,1057.11z"/>
				</g>
				<g>
					<path class="st17" d="M666.26,1069.24c-5.17,0-11.44-1.47-19.57-6.91l3.18-4.76c11.33,7.58,17.76,6.22,23.99,4.91
						c2.78-0.59,5.66-1.19,8.79-0.97l-0.41,5.71c-2.32-0.17-4.58,0.31-7.2,0.86C672.43,1068.63,669.57,1069.24,666.26,1069.24z"/>
				</g>
				<g>
					<path class="st17" d="M663.09,1080.91c-3.73,0-8.09-0.62-11.77-2.85l2.97-4.89c4.8,2.92,12.28,2.02,15.29,1.33
						c4.36-2.9,5.64-5.51,6.67-7.61c0.38-0.77,0.73-1.49,1.2-2.15c1.14-1.61,2.24-2.58,3.12-3.36c1.02-0.9,1.7-1.49,2.39-2.99
						l0.21-0.44l0.34-0.35c1.7-1.75,5.96-7.18,5.2-10.83c-0.21-0.09-0.44-0.18-0.68-0.28c-8.75-3.61-35.38-14.58-40.15-29.72
						l5.46-1.72c2.64,8.35,15.04,17.15,36.88,26.15c0.8,0.33,1.45,0.6,1.9,0.79l0.95,0.41l0.46,0.93c3.64,7.27-3.7,15.87-5.59,17.91
						c-1.15,2.29-2.44,3.43-3.59,4.43c-0.79,0.69-1.47,1.29-2.22,2.36c-0.2,0.29-0.45,0.79-0.73,1.37
						c-1.16,2.36-3.09,6.3-9.11,10.16l-0.38,0.24l-0.44,0.11C671.2,1079.99,667.62,1080.91,663.09,1080.91z"/>
				</g>
				<g>
					<path class="st17" d="M697.36,1086.49c-0.04,0-0.08,0-0.13,0c-4.47-0.13-16.16-4.71-16.59-24.18l5.72-0.13
						c0.36,16.36,9.65,18.37,10.89,18.56l0.03-0.2c3.19,0.41,3.27,2.59,3.22,3.25C700.4,1085.11,699.37,1086.49,697.36,1086.49z
						 M697.26,1080.77c-0.93,0.05-2.25,0.9-2.45,2.45c-0.19,1.52,0.86,2.67,1.75,2.98L697.26,1080.77z"/>
				</g>
				<g>
					<path class="st17" d="M672.67,1023.78l-0.38-0.05c-4.35-0.57-6.43-0.41-8.1-0.29c-4.49,0.33-5.97,0.12-21.19-8.17l-0.15-0.09
						l-7.96-4.99l3.04-4.85l7.88,4.95c14.21,7.73,15.01,7.67,17.96,7.45c1.77-0.13,4.18-0.31,8.84,0.27
						c1.66-0.31,4.01-1.23,4.43-2.29c0.26-0.64-0.21-1.85-1.27-3.24c-2.24-1.92-20.68-17.67-26.73-21.63l3.13-4.79
						c6.73,4.4,26.71,21.54,27.55,22.27l0.21,0.18l0.17,0.22c2.6,3.3,3.35,6.38,2.23,9.14c-1.91,4.72-8.54,5.77-9.29,5.87
						L672.67,1023.78z"/>
				</g>
				<g>
					<path class="st17" d="M677.19,1032.96c-0.57-2.48-0.95-6.23-1.11-8.92c-0.29-4.89-0.33-7.7,2.33-8.41l1.47,5.53
						c1.18-0.31,1.78-1.27,1.88-1.8c-0.24,1.26,0.15,8.6,1.01,12.31L677.19,1032.96z"/>
				</g>
				<g>
					<path class="st17" d="M677.12,1029.3l-5.69-0.63c0.11-0.98,0.18-1.72,0.24-2.3c0.22-2.24,0.28-2.59,1.07-4.22
						c0.35-0.73,0.88-1.82,1.78-4.01l5.29,2.18c-0.96,2.35-1.56,3.58-1.91,4.32c-0.38,0.79-0.38,0.79-0.53,2.31
						C677.31,1027.53,677.23,1028.29,677.12,1029.3z"/>
				</g>
				<g>
					<path class="st17" d="M667.59,1087.79l-4.45-3.6c0.15-0.19,0.37-0.44,0.63-0.74c0.99-1.15,4-4.66,4.12-6.49l5.71,0.37
						c-0.21,3.29-2.77,6.68-5.5,9.85C667.89,1087.43,667.71,1087.64,667.59,1087.79z"/>
				</g>
				<path class="st9" d="M638.9,880.09c-7.78,7.93-29.86,31.65-38.21,53.47c-0.14,0.37-0.13,0.78,0.02,1.15
					c2.17,5.11,19.12,42.78,54.39,58.81c1.2,0.54,2.48-0.56,2.13-1.82c-2.01-7.18-3.35-19.28,3.85-32c0.22-0.38-2.23-6.67-2.36-7.09
					c-1.99-5.96-16.75-50.91-17.17-71.47C641.52,879.78,639.86,879.12,638.9,880.09z"/>
				<path class="st0" d="M940.87,904.55c0,0-32.76,5.37-65.66-3.85c-1.33-0.37-2.69-0.63-4.07-0.79c-6.58-0.73-29.53-7.88,1.2-74.47
					c0,0,4.52-82.39,26.4-94.63c0,0-0.73-36.86,45.58-34.04c0,0,87.97,17.92,85.4,67.3c0,0,20.96,56.39-0.98,90.73l-7.84,19.76
					c0,0,7.82,53.79,17.85,63.75c0,0-30.71,44.89-91.07,18.27L940.87,904.55z"/>
				<path class="st4" d="M961.71,847.57L961.71,847.57c3.91,1.28,8.07-1.02,9.08-5.01c2.88-11.42,9.44-32.06,19.36-32.86
					c0,0,27.18-2.5,22.7,20.28c-0.07,0.33-0.16,0.66-0.27,0.97c-1.04,2.92-6.58,18.08-11.66,22.59c-1.63,1.45-2.45,3.62-2.32,5.8
					c0.51,8.44,3.79,25.7,22.04,26.09c0.18,0,0.35,0.01,0.53,0.03c2.7,0.27,26.21,2.24,31.24-9.03c1.39-3.11,0.23-6.77-2.61-8.65
					c-4.92-3.25-12.97-11.28-8.37-27.56c0.37-1.3,1.11-2.46,2.12-3.37c3.5-3.15,12.17-13.63,9.97-38.99
					c-0.1-1.13,0.08-2.27,0.52-3.32c2.38-5.74,9.89-26.56,4.52-50.13c2.47-1.84-11.58-27.62-37.64-25.86c0,0-20.26-2.48-30.28-18.98
					c-0.06-0.1-0.12-0.2-0.18-0.31c-1.53-2.79-25.08-44.51-50.23-26.47c-0.11,0.08-0.22,0.16-0.32,0.24
					c-1.91,1.52-22.62,17.3-29.13-8.09c-0.1-0.39-0.23-0.77-0.39-1.13c-2.03-4.55-16.35-33.45-41.71-6.63
					c-0.84,0.89-1.9,1.53-3.07,1.88c-6.65,1.97-30.26,11.55-37.28,49.44c-0.21,1.14-0.15,2.32,0.2,3.43
					c2.8,9.03,17.63,50.15,51.65,36.92c1.42-0.55,2.98-0.63,4.45-0.21c3.92,1.1,11.94,1.73,16.49,0.18
					c2.26-0.77,4.76-1.56,6.64-0.08c8.05,6.34,27.93,21.7,51.49,16.61c3.1-0.67,6.27,0.77,7.78,3.57c2.74,5.1,6.04,12.82,3.08,16.29
					c-0.76,0.89-1.24,1.99-1.5,3.13L957,839.27C956.19,842.83,958.23,846.43,961.71,847.57z"/>
				<polygon class="st24" points="880.09,778.14 840.72,817.59 874.85,834.02 				"/>
				<g>
					<path class="st4" d="M900.19,794.63c11.44,3.38,20.91-0.96,24.56-3.05c0.84-0.48,0.97-1.63,0.26-2.28
						c-19.59-17.85-26.58-9.66-26.58-9.66L900.19,794.63z"/>
					<path class="st17" d="M892.11,785.72c0.04,5.3,2.43,9.73,6.15,9.9c3.72,0.17,7.31-3.98,7.33-9.28
						c0.05-10.69-4.49-10.5-8.21-10.68C893.66,775.49,892.04,777.53,892.11,785.72z"/>
					<g>
						<path class="st17" d="M903.93,797.52c-3.61,0-7.4-0.47-11.2-1.66l1.06-3.39c11.32,3.53,22.96-0.06,27.77-2.56
							c-14.32-15.52-29.14-13.97-29.29-13.95l-0.43-3.52c0.68-0.08,16.81-1.88,32.47,15.21c0.74,0.8,1.06,1.86,0.88,2.91
							c-0.17,1.01-0.79,1.87-1.71,2.36C919.63,794.98,912.3,797.52,903.93,797.52z"/>
					</g>
				</g>
				<g>
					<path class="st17" d="M878.36,853.86c-4.96,0-9.26-0.65-12.87-1.94c-0.19-0.07-0.42-0.15-0.49-0.17c0,0,0.08,0.02,0.2,0.03
						l0.16-3.55c0.41,0.02,0.75,0.14,1.32,0.35c11.88,4.26,30.88-0.21,44.72-4.7l1.1,3.38
						C898.94,851.65,887.52,853.86,878.36,853.86z"/>
				</g>
				<path class="st17" d="M889.71,765.41l1.6-13.91c0,0,27.91,5.17,41.22,15.57v5.06c0,2.29-2.4,3.8-4.46,2.79
					C922.97,772.41,912.18,768.75,889.71,765.41z"/>
				<g>
					<path class="st17" d="M987.67,834.46l-3.44-0.86c0.08-0.35,2.23-8.56,16.12-9.92l0.35,3.53
						C989.47,828.32,987.74,834.21,987.67,834.46z"/>
				</g>
				<path class="st25" d="M889.71,1259.25c-2.36-2.77-17.85-89.91-16.6-148.25"/>
				<path class="st26" d="M874.27,1111.01c0,0,141.48,44.44,276.27,18.17c2.14-0.42,4.29-0.85,6.43-1.31
					c136.87-29.01,94.68-41.87,94.68-41.87l-35.82-58.25c-2.56-5.2-6.27-9.74-10.86-13.28c-19.91-15.41-79.13-57.21-148.14-68.15
					c0,0-38.22,21.49-62.91,21.48s-46.24-11.21-46.24-11.21l-6.3-6.06c0,0-81.45,21.42-117.52,71.36c0,0,26.66,15.05,40.87,64.12
					L874.27,1111.01z"/>
				<path class="st4" d="M947.05,945.37c46.12,27.35,92.85-10.42,92.85-10.42c2.5,4.16,16.92,11.36,16.92,11.36
					c-3.61,13.18-25.44,25.1-40.33,31.29c-14.52,6.03-30.47,7.97-45.94,5.18c-33.34-6.02-39.54-28.82-39.54-28.82l14.22-8.59
					C945.8,945.03,946.49,945.03,947.05,945.37z"/>
				<path class="st26" d="M883.42,1206.29c0,0,254.55,93.18,332.02,0c44.68-53.74,53.16,166.69,53.16,166.69l-356.65,12.49
					C911.95,1385.47,889.8,1270.95,883.42,1206.29z"/>
				<path class="st27" d="M1352.39,1306.12"/>
				<path class="st28" d="M1633.03,1071.53c0,0,8.38,46.21-2.03,120.92"/>
				<path class="st6" d="M718.53,727.19c-1.95-4.68-8.58-4.7-10.54-0.02c-10.41,24.84-32.2,81.42-23.57,100.76
					c0.16,0.35,0.31,0.69,0.48,1.03c13.4,28.32,56.22,16.71,53.93-14.53C737.32,793.79,732.62,760.97,718.53,727.19z"/>
				<g>
					<rect x="707.14" y="844.01" class="st17" width="7.08" height="31.88"/>
				</g>
				<g>
					<rect x="792.25" y="846.54" class="st17" width="7.08" height="31.88"/>
				</g>
				<circle class="st9" cx="798.43" cy="821.43" r="34.81"/>
				<circle class="st9" cx="799.17" cy="789.12" r="28.67"/>
				<g>
					<path class="st3" d="M1125.7,1225.38c-10.42,6.97-67.3,58.52,45.41,133.16c15.34,10.16-0.89,59.24,72.42,70.73
						c7.91,1.24,15.73,3.39,23.29,6.42c26.78,10.74,95.97,29.59,127.91-45.44c5.01-11.77,11.57-22.72,19.84-32.22
						c6.49-7.45,13.07-19.91,12.69-39.62c0,0-2.43-17.21-12.81-29.27c-13.71-15.94-20.48-36.65-18.98-56.91
						c1.72-23.13,8.46-53.22-6.2-63.46c0,0-22.71-29.4-82.81,1.62c0,0-22.4,1.29-31.11-57c0,0-17.86-89.54-60.03-88.99
						c-10.69,0.14-20.05,6.23-24.8,15.67c-2.82,5.6-7.28,13.48-13.67,22.15c-10.86,14.73-13.03,34.79-5.68,52.91
						c10.37,25.56,6.46,64.55,0.64,85.28C1164.49,1226.46,1145.33,1212.24,1125.7,1225.38z"/>
					<g>
						<path class="st17" d="M1325.76,1443.96c-0.23-0.49-22.99-49.86-46.39-116.7c-13.75-39.27-25.02-76.83-33.52-111.62
							c-10.64-43.58-16.94-82.94-18.7-117l8.42-0.44c3.94,76.04,30.32,165.02,51.76,226.27c23.26,66.46,45.86,115.46,46.08,115.94
							L1325.76,1443.96z"/>
					</g>
					<g>
						<path class="st17" d="M1259.4,1244.43c-1.76-0.24-43.42-6.07-63.94-26.14l5.9-6.03c18.55,18.13,58.77,23.76,59.18,23.81
							L1259.4,1244.43z"/>
					</g>
					<g>
						<path class="st17" d="M1305.03,1390.81c-1.25,0-2.59-0.34-3.73-1.41c-0.71-0.67-2.26-2.58-1.25-5.83l8.05,2.51
							c0.12-0.41,0.08-1.57-0.77-2.56c-0.86-0.99-2-1.2-2.42-1.14c2.88-0.4,16.1-8.86,30.06-22.97c9.22-9.31,24.9-27.42,26.38-44.09
							l8.4,0.75c-1.55,17.48-15.36,35.25-26.66,47.09c-13.44,14.06-27.74,24.33-34.38,26.86
							C1308.05,1390.26,1306.62,1390.81,1305.03,1390.81z"/>
					</g>
					<g>
						<path class="st17" d="M1294.38,1389.36c-11.58,0-23.82-2.3-33.79-4.83c-19.65-4.99-36.93-12.59-42.28-17.05
							c-2.4-2-3.34-4.13-2.78-6.34c0.23-0.93,1.13-3.18,4.4-3.85l1.69,8.26c0,0,0,0,0,0l0,0c0.45-0.1,1.53-0.73,1.99-2.06
							c0.46-1.33,0-2.5-0.3-2.85c1.9,2.28,16.75,9.7,37.16,15.15c23.08,6.16,41.78,6.81,52.67,1.85l3.5,7.67
							C1310.21,1388.24,1302.45,1389.36,1294.38,1389.36z"/>
					</g>
					<g>
						<path class="st17" d="M1274.23,1288.47l-3.11-7.84c0.32-0.13,31.65-12.9,33.62-37.98l8.41,0.66
							C1310.77,1273.66,1275.72,1287.88,1274.23,1288.47z"/>
					</g>
					<g>
						<path class="st17" d="M1262.79,1326.9c-20.56,0-36.1-3.75-46.38-7.42c-15.1-5.39-22.6-11.8-22.91-12.07l5.52-6.38
							c0.06,0.05,6.92,5.82,20.71,10.67c12.76,4.48,34.23,9.07,64.08,5.45l1.02,8.37C1276.93,1326.49,1269.59,1326.9,1262.79,1326.9
							z"/>
					</g>
				</g>
				<g>
					<path class="st3" d="M314.98,1471.97c-1.21-14.49,5.34-30.1-1.25-43.06c-2.97-5.84-8.21-10.12-12.59-14.99
						c-10.88-12.09-16.69-28.61-15.78-44.85c0.54-9.59,3.28-19.48,0.27-28.6c-4.03-12.21-17.09-19.29-22.7-30.86
						c-8.94-18.44,3.7-41.08-2.28-60.67c-4.2-13.76-16.88-23.55-21.61-37.14c-5.64-16.2,2.88-33.13-1.37-48.98
						c-2.02-7.53-6.23-12.12-6.35-20.88c-0.11-8.22,1.81-16.45,2.98-24.55c3.68-25.6-0.28-52.24-11.23-75.67
						c-4.4-9.41-9.27-22.17-1.2-28.7c19.94,8.62,36.91,23.93,47.52,42.89c10.4,18.58,14.87,40.45,27.98,57.23
						c9.6,12.29,23.08,20.83,34.8,31.1c11.73,10.28,22.34,23.71,22.82,39.3c0.52,16.99-11.11,33.3-7.73,49.96
						c4.32,21.26,30.85,32.4,35.18,53.66c3.74,18.39-10.56,38.87-1.39,55.24c4.48,7.99,13.34,12.27,20.19,18.34
						c7.5,6.64,13.46,9.95,16.19,20.05c2.41,8.92,1.02,18.97,6.98,26.74c4.09,5.33,10.82,7.78,16.24,11.75
						c16.47,12.06,18.52,35.76,16.32,56.05c-1.64,15.17-5.35,31.18-16.44,41.66c-9.75,9.22-23.5,12.55-36.6,15.47
						c-22.63,5.03-38.66,3.34-57.54-11.32C331.49,1509.53,316.62,1491.57,314.98,1471.97z"/>
					<g>
						<path class="st17" d="M409.59,1506.24c-7.85-7.07-14.88-15.21-20.85-24.15c-6-8.92-10.95-18.63-14.76-28.85
							c-3.77-10.23-6.3-20.43-10.46-28.99c-1.02-2.15-2.19-4.14-3.41-6.04c-1.21-1.9-2.61-3.66-4.13-5.43
							c-3.04-3.53-6.71-6.86-10.51-10.43c-3.83-3.57-7.9-7.3-11.78-11.73c-1.92-2.21-3.84-4.6-5.45-7.2l-1.23-1.93
							c-0.41-0.64-0.83-1.29-1.17-1.96l-2.12-4.01c-5.19-10.89-7.48-22.24-9.26-32.78c-0.93-5.29-1.65-10.49-2.51-15.47
							c-0.86-4.98-1.84-9.8-3.08-14.37c-0.69-2.23-1.31-4.48-2.13-6.67c-0.36-1.1-0.84-2.21-1.27-3.32
							c-0.42-1.11-0.92-2.23-1.4-3.35c-1.95-4.48-4.21-9.03-6.55-13.75c-2.31-4.73-4.68-9.64-6.86-14.87
							c-2.16-5.23-4.13-10.8-5.41-16.76c-0.62-2.98-1.1-6.03-1.33-9.15c-0.3-3.11-0.27-6.23-0.13-9.19
							c0.32-5.94,1.12-11.39,1.85-16.46c0.36-2.54,0.68-4.98,0.9-7.34c0.23-2.36,0.32-4.59,0.3-6.85
							c-0.04-4.52-0.56-9.06-1.54-13.53c-1.02-4.46-2.5-8.82-4.44-12.99c-1.93-4.21-4.25-8.04-7.2-11.99
							c-2.91-3.93-6.22-7.95-9.56-12.26c-3.31-4.32-6.72-8.95-9.38-14.3c-1.38-2.63-2.48-5.5-3.41-8.39
							c-0.88-2.93-1.47-5.85-1.82-8.72c-0.71-5.74-0.68-11.19-0.72-16.41c0.01-2.62-0.04-5.14-0.13-7.69l-0.2-3.83l-0.29-3.83
							c-0.42-5.11-1.14-10.21-2.03-15.3c-1.85-10.17-4.57-20.28-8.21-30.2c11.44,17.77,18.68,38.66,21.31,60.13
							c0.69,5.26,1.26,10.32,2.42,14.93c0.58,2.3,1.25,4.49,2.11,6.52c0.92,2.02,1.89,4,3.17,5.9c0.58,0.97,1.31,1.9,1.96,2.85
							c0.73,0.93,1.41,1.87,2.19,2.8c1.49,1.86,3.16,3.71,4.86,5.57c3.43,3.72,7.18,7.49,10.82,11.77
							c3.65,4.22,7.22,9.15,10.04,14.32c2.84,5.19,5.05,10.71,6.7,16.41c1.6,5.71,2.65,11.61,2.92,17.6
							c0.15,2.99,0.13,6.02-0.03,8.89c-0.15,2.88-0.41,5.66-0.68,8.33c-0.52,5.35-1.17,10.31-1.27,14.88
							c-0.04,2.29-0.02,4.43,0.25,6.54c0.2,2.12,0.6,4.25,1.09,6.4c0.99,4.3,2.52,8.68,4.41,13.14c1.9,4.46,4.14,8.99,6.45,13.69
							c2.28,4.71,4.66,9.59,6.87,14.75c2.2,5.14,4.22,10.71,5.67,16.35c2.75,11.21,3.9,22.05,5.21,32.2
							c1.27,10.19,3.02,19.68,6.38,28.05l1.4,3.03c0.21,0.52,0.49,0.99,0.77,1.47l0.81,1.44c1.02,1.95,2.34,3.71,3.72,5.59
							c2.79,3.7,6.2,7.36,9.8,11.21c3.62,3.86,7.38,7.99,10.83,12.73c1.71,2.37,3.36,4.89,4.75,7.56c1.4,2.64,2.58,5.36,3.55,8.07
							c3.95,10.88,5.21,21.5,7.57,31.34c2.29,9.88,5.65,19.59,9.94,28.98C398.22,1488.57,403.45,1497.64,409.59,1506.24z"/>
					</g>
					<g>
						<path class="st17" d="M247.3,1154.41c4.22-1.98,6.77-2.67,8.88-2.97c2.05-0.26,3.45,0.06,4.45,0.86
							c0.99,0.82,1.55,2.13,1.67,4.19c0.08,2.13-0.14,4.76-1.34,9.29c-3.68,2.91-6.34,3.85-8.65,4.21c-2.27,0.3-4.04-0.22-5.33-1.31
							c-1.29-1.09-2.11-2.74-2.23-5.03C244.69,1161.31,245.13,1158.54,247.3,1154.41z"/>
					</g>
					<g>
						<path class="st17" d="M251.11,1204.81c4.16-2.54,7.14-3.3,9.78-3.55c2.6-0.19,4.7,0.38,6.43,1.51
							c1.72,1.14,3.06,2.85,3.91,5.31c0.8,2.53,1.26,5.57,0.52,10.42c-4.18,2.57-7.16,3.33-9.8,3.58c-2.6,0.18-4.69-0.39-6.41-1.53
							c-1.71-1.16-3.05-2.87-3.89-5.34C250.85,1212.68,250.38,1209.64,251.11,1204.81z"/>
					</g>
					<g>
						<path class="st17" d="M278.25,1128.7c-4.4-1.12-6.61-1.94-8.33-2.71c-1.58-0.76-2.37-1.45-2.42-2.2
							c-0.09-0.75,0.57-1.55,2-2.56c1.56-1.03,3.62-2.2,7.81-4.03c4.57,0.05,6.97,0.79,8.8,1.66c1.71,0.9,2.58,2.01,2.65,3.18
							c0.1,1.17-0.58,2.41-2.12,3.57C284.95,1126.79,282.73,1127.9,278.25,1128.7z"/>
					</g>
					<g>
						<path class="st17" d="M309.39,1171.76c-2.16-4.48-2.6-7.68-2.56-10.5c0.1-2.78,0.93-5.02,2.29-6.85
							c1.37-1.82,3.29-3.23,5.93-4.1c2.7-0.82,5.9-1.27,10.83-0.41c2.18,4.5,2.63,7.7,2.58,10.52c-0.11,2.78-0.93,5.01-2.31,6.83
							c-1.39,1.81-3.31,3.22-5.96,4.08C317.49,1172.15,314.3,1172.6,309.39,1171.76z"/>
					</g>
					<g>
						<path class="st17" d="M308.57,1228.21c-1.9-4.46-2.08-7.55-1.78-10.21c0.36-2.61,1.43-4.59,2.98-6.04
							c1.56-1.44,3.62-2.35,6.24-2.5c2.67-0.09,5.74,0.35,10.05,2.62c1.19,4.72,1.19,7.68,0.84,10.16c-0.4,2.42-1.31,4.15-2.67,5.4
							c-1.37,1.24-3.16,2.01-5.61,2.21C316.1,1229.99,313.16,1229.76,308.57,1228.21z"/>
					</g>
					<g>
						<path class="st17" d="M271.44,1268.6c2.28-4.05,4.3-5.94,6.21-7.19c1.9-1.17,3.63-1.42,5.17-0.99
							c1.53,0.44,2.86,1.58,3.83,3.59c0.94,2.08,1.62,4.76,1.35,9.43c-2.95,3.62-4.97,5.32-6.76,6.47c-1.76,1.08-3.17,1.35-4.4,0.98
							c-1.23-0.38-2.27-1.37-3.17-3.23C272.77,1275.73,271.98,1273.21,271.44,1268.6z"/>
					</g>
					<g>
						<path class="st17" d="M335.69,1287.39c-2.87-3.92-3.87-6.8-4.34-9.38c-0.4-2.54-0.02-4.64,0.96-6.41
							c0.98-1.77,2.57-3.2,4.94-4.18c2.44-0.95,5.42-1.6,10.29-1.19c2.9,3.94,3.9,6.82,4.37,9.39c0.4,2.54,0.01,4.64-0.98,6.4
							c-1,1.76-2.59,3.18-4.97,4.17C343.51,1287.13,340.54,1287.78,335.69,1287.39z"/>
					</g>
					<g>
						<path class="st17" d="M288.08,1332.43c2.95-3.52,5.03-5.09,6.86-6.1c1.8-0.94,3.23-1.05,4.39-0.56
							c1.15,0.51,2.02,1.65,2.52,3.61c0.47,2.03,0.69,4.63,0.02,9.21c-2.97,3.55-5.05,5.12-6.87,6.13c-1.8,0.94-3.23,1.05-4.37,0.53
							c-1.14-0.53-2.01-1.67-2.51-3.64C287.64,1339.57,287.42,1336.98,288.08,1332.43z"/>
					</g>
					<g>
						<path class="st17" d="M348.72,1348.19c-1.89-4.41-2.25-7.32-2.16-9.82c0.14-2.44,0.94-4.26,2.21-5.61
							c1.29-1.34,3.07-2.2,5.5-2.44c2.49-0.18,5.42,0.06,9.91,1.81c1.91,4.43,2.27,7.35,2.18,9.84c-0.15,2.44-0.94,4.25-2.24,5.59
							c-1.3,1.33-3.09,2.19-5.52,2.42C356.12,1350.16,353.19,1349.92,348.72,1348.19z"/>
					</g>
					<g>
						<path class="st17" d="M307.14,1386.79c2.75-3.98,5.09-5.85,7.33-7.13c2.22-1.2,4.27-1.51,6.2-1.16
							c1.92,0.36,3.72,1.4,5.35,3.32c1.61,2,3.11,4.61,4.2,9.34c-2.75,4.01-5.1,5.89-7.33,7.16c-2.22,1.19-4.27,1.5-6.19,1.13
							c-1.92-0.38-3.71-1.42-5.34-3.35C309.74,1394.1,308.24,1391.5,307.14,1386.79z"/>
					</g>
					<g>
						<path class="st17" d="M329.72,1436.4c2.27-4.42,4.54-6.7,6.81-8.36c2.27-1.59,4.54-2.28,6.81-2.29c2.27,0,4.53,0.68,6.8,2.27
							c2.27,1.67,4.53,3.95,6.79,8.4c-2.27,4.45-4.54,6.73-6.81,8.39c-2.27,1.58-4.54,2.27-6.81,2.26c-2.27-0.02-4.53-0.71-6.8-2.3
							C334.25,1443.1,331.98,1440.82,329.72,1436.4z"/>
					</g>
					<g>
						<path class="st17" d="M376.86,1393.51c-3.44-3.28-4.84-5.83-5.66-8.15c-0.74-2.29-0.63-4.25,0.12-5.92
							c0.76-1.66,2.16-3.03,4.38-3.97c2.29-0.9,5.14-1.49,9.9-1.01c3.16,3.59,4.45,6.12,5.2,8.36c0.69,2.21,0.6,4-0.1,5.51
							c-0.71,1.51-2.01,2.74-4.14,3.66C384.36,1392.88,381.61,1393.55,376.86,1393.51z"/>
					</g>
					<g>
						<path class="st17" d="M397.44,1448.85c-2.47-3.96-3.28-6.56-3.61-8.77c-0.28-2.16,0.14-3.75,1.07-4.92
							c0.95-1.15,2.42-1.87,4.6-2.02c2.23-0.1,4.94,0.2,9.33,1.88c2.49,3.98,3.3,6.58,3.64,8.79c0.28,2.16-0.14,3.75-1.09,4.9
							c-0.96,1.14-2.44,1.86-4.62,2C404.51,1450.8,401.8,1450.51,397.44,1448.85z"/>
					</g>
					<g>
						<path class="st17" d="M332.9,1490.61c3.43-3.38,5.85-4.91,8.03-5.93c2.15-0.95,3.94-1.13,5.56-0.7
							c1.63,0.44,3.08,1.49,4.45,3.39c1.36,1.98,2.67,4.53,3.91,9.21c-2.52,4.13-4.96,6.03-7.32,7.24c-2.35,1.13-4.6,1.3-6.64,0.74
							c-2.04-0.57-3.89-1.86-5.34-4.03C334.13,1498.29,332.99,1495.42,332.9,1490.61z"/>
					</g>
				</g>
				<g>
					<path class="st3" d="M1605.13,1221.39c-0.73-14.52,6.32-29.91,0.16-43.07c-2.78-5.93-7.87-10.38-12.09-15.39
						c-10.48-12.44-15.75-29.14-14.3-45.35c0.86-9.57,3.92-19.36,1.21-28.58c-3.62-12.34-16.45-19.84-21.68-31.58
						c-8.33-18.72,5.05-40.93-0.29-60.71c-3.75-13.89-16.1-24.09-20.38-37.83c-5.11-16.37,3.96-33.01,0.24-49
						c-1.77-7.59-5.83-12.32-5.66-21.08c0.16-8.22,2.35-16.38,3.78-24.44c4.52-25.46,1.43-52.22-8.75-75.99
						c-4.09-9.54-8.54-22.46-0.26-28.72c19.65,9.27,36.11,25.13,46.09,44.42c9.79,18.91,13.54,40.92,26.1,58.11
						c9.19,12.59,22.38,21.57,33.77,32.23c11.39,10.65,21.55,24.43,21.53,40.03c-0.03,16.99-12.2,32.92-9.36,49.68
						c3.62,21.39,29.78,33.39,33.4,54.78c3.13,18.5-11.83,38.5-3.2,55.16c4.21,8.13,12.93,12.7,19.58,18.99
						c7.28,6.88,13.12,10.38,15.52,20.57c2.12,9,0.39,18.99,6.1,26.95c3.91,5.46,10.56,8.13,15.85,12.27
						c16.06,12.59,17.34,36.34,14.47,56.55c-2.14,15.1-6.37,30.99-17.79,41.1c-10.05,8.89-23.9,11.78-37.09,14.26
						c-22.79,4.29-38.75,2.08-57.14-13.2C1620.39,1259.47,1606.12,1241.04,1605.13,1221.39z"/>
					<g>
						<path class="st17" d="M1698.56,1258.74c-7.62-7.32-14.37-15.69-20.04-24.82c-5.7-9.11-10.33-18.98-13.81-29.32
							c-3.44-10.35-5.63-20.62-9.51-29.32c-0.94-2.19-2.06-4.21-3.21-6.15c-1.15-1.94-2.49-3.75-3.95-5.57
							c-2.93-3.62-6.48-7.08-10.16-10.77c-3.71-3.69-7.66-7.56-11.39-12.11c-1.84-2.27-3.69-4.72-5.21-7.37l-1.17-1.97
							c-0.39-0.66-0.79-1.31-1.1-2l-1.99-4.08c-4.83-11.05-6.75-22.48-8.18-33.07c-0.75-5.32-1.3-10.54-2-15.54
							c-0.7-5.01-1.51-9.86-2.61-14.47c-0.62-2.25-1.16-4.52-1.91-6.74c-0.32-1.11-0.76-2.24-1.16-3.36
							c-0.38-1.12-0.84-2.26-1.29-3.39c-1.8-4.54-3.91-9.17-6.09-13.96c-2.15-4.81-4.36-9.79-6.37-15.08
							c-1.99-5.3-3.77-10.93-4.86-16.92c-0.52-3-0.91-6.07-1.03-9.19c-0.19-3.12-0.06-6.24,0.17-9.19
							c0.51-5.92,1.5-11.35,2.39-16.39c0.44-2.52,0.84-4.96,1.14-7.31c0.31-2.36,0.47-4.58,0.53-6.84c0.1-4.52-0.27-9.07-1.1-13.57
							c-0.87-4.49-2.21-8.9-4.02-13.13c-1.79-4.27-3.99-8.17-6.8-12.22c-2.78-4.02-5.95-8.15-9.15-12.57
							c-3.17-4.43-6.42-9.17-8.91-14.6c-1.29-2.67-2.3-5.57-3.13-8.49c-0.79-2.95-1.28-5.9-1.53-8.77
							c-0.52-5.76-0.32-11.21-0.18-16.42c0.1-2.61,0.13-5.14,0.13-7.69l-0.08-3.83l-0.16-3.84c-0.25-5.12-0.8-10.24-1.53-15.36
							c-1.51-10.22-3.91-20.42-7.21-30.45c10.85,18.13,17.4,39.25,19.33,60.8c0.52,5.28,0.93,10.36,1.93,15
							c0.51,2.32,1.1,4.52,1.9,6.58c0.85,2.05,1.75,4.06,2.97,6c0.55,0.98,1.24,1.94,1.87,2.91c0.7,0.95,1.35,1.92,2.1,2.87
							c1.43,1.91,3.03,3.81,4.68,5.72c3.3,3.83,6.93,7.72,10.43,12.11c3.51,4.33,6.92,9.38,9.56,14.64
							c2.67,5.28,4.7,10.87,6.16,16.63c1.42,5.76,2.27,11.69,2.34,17.68c0.05,2.99-0.06,6.02-0.32,8.88
							c-0.25,2.87-0.59,5.64-0.95,8.31c-0.69,5.33-1.5,10.27-1.76,14.83c-0.12,2.29-0.16,4.43,0.04,6.55
							c0.13,2.12,0.46,4.27,0.88,6.43c0.85,4.33,2.23,8.76,3.98,13.27c1.75,4.52,3.84,9.12,5.99,13.89
							c2.13,4.78,4.35,9.73,6.38,14.97c2.03,5.2,3.87,10.84,5.13,16.53c2.38,11.29,3.18,22.17,4.16,32.36
							c0.93,10.23,2.38,19.77,5.46,28.24l1.29,3.08c0.2,0.53,0.46,1.01,0.72,1.49l0.76,1.46c0.96,1.98,2.22,3.79,3.53,5.71
							c2.66,3.79,5.96,7.56,9.43,11.53c3.49,3.98,7.11,8.23,10.4,13.07c1.63,2.42,3.2,5,4.5,7.71c1.32,2.69,2.41,5.44,3.29,8.18
							c3.59,11,4.5,21.66,6.54,31.57c1.96,9.95,5,19.77,8.98,29.29C1687.78,1240.71,1692.71,1249.94,1698.56,1258.74z"/>
					</g>
					<g>
						<path class="st17" d="M1547.88,901.78c4.28-1.84,6.85-2.44,8.97-2.68c2.06-0.19,3.45,0.17,4.42,1.01
							c0.96,0.85,1.48,2.18,1.53,4.25c0.01,2.13-0.3,4.75-1.64,9.24c-3.78,2.79-6.46,3.64-8.78,3.92c-2.28,0.22-4.03-0.35-5.29-1.48
							c-1.25-1.14-2.02-2.81-2.06-5.1C1545.04,908.6,1545.57,905.84,1547.88,901.78z"/>
					</g>
					<g>
						<path class="st17" d="M1550.03,952.29c4.25-2.41,7.25-3.07,9.9-3.23c2.6-0.1,4.69,0.53,6.38,1.72
							c1.68,1.19,2.97,2.95,3.73,5.44c0.72,2.55,1.08,5.61,0.18,10.43c-4.26,2.43-7.27,3.09-9.91,3.25c-2.6,0.1-4.68-0.54-6.36-1.74
							c-1.67-1.21-2.95-2.97-3.71-5.46C1549.51,960.14,1549.15,957.09,1550.03,952.29z"/>
					</g>
					<g>
						<path class="st17" d="M1579.66,877.1c-4.36-1.27-6.55-2.16-8.24-2.98c-1.56-0.81-2.32-1.52-2.35-2.27
							c-0.06-0.75,0.62-1.53,2.09-2.49c1.59-0.98,3.69-2.08,7.94-3.78c4.57,0.2,6.94,1.01,8.74,1.95c1.68,0.95,2.51,2.09,2.54,3.27
							c0.06,1.17-0.66,2.39-2.24,3.5C1586.42,875.41,1584.16,876.45,1579.66,877.1z"/>
					</g>
					<g>
						<path class="st17" d="M1609.37,921.16c-2.01-4.55-2.35-7.76-2.21-10.58c0.19-2.78,1.09-4.98,2.51-6.77
							c1.43-1.78,3.4-3.12,6.06-3.9c2.73-0.73,5.94-1.07,10.83-0.06c2.03,4.57,2.37,7.78,2.24,10.6c-0.2,2.77-1.1,4.98-2.53,6.75
							c-1.45,1.76-3.42,3.11-6.09,3.89C1617.45,921.81,1614.25,922.16,1609.37,921.16z"/>
					</g>
					<g>
						<path class="st17" d="M1606.7,977.55c-1.75-4.52-1.84-7.62-1.45-10.26c0.44-2.59,1.58-4.54,3.17-5.94
							c1.6-1.39,3.69-2.23,6.32-2.3c2.67,0,5.73,0.54,9.96,2.95c1.04,4.76,0.94,7.71,0.5,10.18c-0.48,2.41-1.45,4.1-2.84,5.31
							c-1.41,1.19-3.23,1.9-5.68,2.02C1614.17,979.57,1611.24,979.25,1606.7,977.55z"/>
					</g>
					<g>
						<path class="st17" d="M1568.27,1016.7c2.41-3.98,4.49-5.79,6.44-6.98c1.93-1.11,3.68-1.3,5.2-0.82
							c1.52,0.49,2.81,1.68,3.71,3.71c0.87,2.11,1.46,4.81,1.04,9.47c-3.07,3.53-5.15,5.15-6.97,6.24
							c-1.79,1.02-3.21,1.24-4.43,0.84c-1.21-0.42-2.23-1.45-3.06-3.33C1569.36,1023.87,1568.65,1021.34,1568.27,1016.7z"/>
					</g>
					<g>
						<path class="st17" d="M1631.87,1037.58c-2.74-4.01-3.65-6.92-4.03-9.51c-0.32-2.55,0.14-4.64,1.16-6.38
							c1.04-1.73,2.67-3.11,5.07-4.02c2.47-0.87,5.47-1.42,10.32-0.85c2.77,4.03,3.68,6.94,4.06,9.53c0.31,2.55-0.14,4.63-1.19,6.36
							c-1.06,1.72-2.69,3.1-5.1,4.01C1639.7,1037.58,1636.7,1038.14,1631.87,1037.58z"/>
					</g>
					<g>
						<path class="st17" d="M1582.8,1081.05c3.07-3.43,5.2-4.92,7.06-5.87c1.83-0.88,3.26-0.95,4.4-0.41
							c1.13,0.55,1.97,1.71,2.4,3.69c0.4,2.05,0.54,4.65-0.28,9.2c-3.08,3.45-5.21,4.95-7.07,5.9c-1.83,0.88-3.26,0.94-4.39,0.39
							c-1.12-0.57-1.96-1.74-2.39-3.72C1582.14,1088.17,1582,1085.57,1582.8,1081.05z"/>
					</g>
					<g>
						<path class="st17" d="M1642.9,1098.78c-1.75-4.47-2-7.39-1.83-9.89c0.22-2.44,1.08-4.23,2.4-5.53c1.33-1.3,3.14-2.1,5.58-2.26
							c2.49-0.1,5.42,0.24,9.85,2.14c1.77,4.49,2.03,7.42,1.85,9.91c-0.23,2.43-1.08,4.22-2.42,5.51c-1.34,1.28-3.16,2.08-5.6,2.24
							C1650.23,1101,1647.31,1100.66,1642.9,1098.78z"/>
					</g>
					<g>
						<path class="st17" d="M1600.08,1136c2.88-3.89,5.28-5.68,7.56-6.88c2.26-1.13,4.32-1.37,6.23-0.96
							c1.91,0.42,3.67,1.52,5.23,3.49c1.55,2.05,2.96,4.71,3.9,9.48c-2.88,3.92-5.29,5.72-7.56,6.91c-2.26,1.12-4.32,1.36-6.23,0.93
							c-1.91-0.44-3.67-1.54-5.23-3.52C1602.44,1143.4,1601.02,1140.75,1600.08,1136z"/>
					</g>
					<g>
						<path class="st17" d="M1621.02,1186.32c2.42-4.34,4.76-6.54,7.08-8.13c2.32-1.51,4.61-2.13,6.88-2.07
							c2.27,0.07,4.51,0.83,6.72,2.5c2.21,1.74,4.4,4.1,6.52,8.62c-2.42,4.37-4.76,6.58-7.08,8.16c-2.32,1.51-4.61,2.12-6.88,2.04
							c-2.27-0.09-4.51-0.86-6.72-2.53C1625.33,1193.17,1623.14,1190.82,1621.02,1186.32z"/>
					</g>
					<g>
						<path class="st17" d="M1669.54,1145c-3.33-3.39-4.65-5.99-5.39-8.33c-0.67-2.32-0.49-4.27,0.31-5.91
							c0.81-1.64,2.26-2.96,4.51-3.82c2.32-0.82,5.19-1.33,9.93-0.69c3.04,3.69,4.24,6.26,4.93,8.53c0.62,2.23,0.47,4.02-0.28,5.51
							c-0.76,1.48-2.1,2.67-4.26,3.52C1677.06,1144.61,1674.29,1145.2,1669.54,1145z"/>
					</g>
					<g>
						<path class="st17" d="M1688.3,1200.98c-2.33-4.04-3.06-6.67-3.33-8.89c-0.21-2.17,0.26-3.75,1.23-4.88
							c0.98-1.12,2.48-1.79,4.66-1.87c2.24-0.02,4.94,0.36,9.26,2.18c2.36,4.06,3.08,6.69,3.35,8.91c0.21,2.17-0.27,3.74-1.25,4.86
							c-1,1.11-2.5,1.78-4.68,1.85C1695.3,1203.17,1692.61,1202.78,1688.3,1200.98z"/>
					</g>
					<g>
						<path class="st17" d="M1622.42,1240.61c3.54-3.26,6-4.71,8.22-5.66c2.18-0.88,3.97-1,5.58-0.52c1.61,0.49,3.03,1.59,4.33,3.54
							c1.3,2.02,2.52,4.62,3.61,9.33c-2.65,4.05-5.15,5.86-7.55,7c-2.39,1.06-4.64,1.15-6.66,0.52c-2.02-0.64-3.83-1.98-5.21-4.2
							C1623.4,1248.32,1622.36,1245.42,1622.42,1240.61z"/>
					</g>
				</g>
				<g>
					<path class="st5" d="M159.07,1675.4c13.06-16.76,37.59-28.78,41.93-48.01c1.96-8.66-0.68-17.37-1.58-26.06
						c-2.25-21.58,6.75-44.11,24.42-61.15c10.44-10.07,24.09-18.75,29.32-31.04c7.01-16.44-3.22-34.22,1.03-51.18
						c6.77-27.02,46.52-42.03,58.4-68.05c8.34-18.27,1.38-38.72,8.84-57.2c8.89-22.04,37.38-33.98,47.78-54.57
						c4.94-9.78,3.98-18.04,12.7-27.7c8.18-9.07,19.07-16.58,28.82-24.53c30.82-25.14,52.53-57.3,61.66-91.32
						c3.67-13.66,10.11-31.36,27.46-32.28c17.81,24.75,24.9,54.55,19.83,83.42c-4.96,28.3-21.16,55.64-20.7,84.06
						c0.34,20.81,9.63,40.51,14.84,60.76c5.21,20.25,5.73,43.1-9.41,60.5c-16.5,18.96-48.51,27.84-60.88,48.64
						c-15.78,26.56,8.27,59.13-7.51,85.69c-13.64,22.96-53.41,34.35-57.78,59.29c-2.13,12.17,5.33,23.67,8.31,35.57
						c3.26,13.02,7.84,21.22,1.25,34.36c-5.82,11.61-17.85,21.5-17.78,34.59c0.05,8.97,6.52,16.82,9.72,25.33
						c9.71,25.84-11.56,53.31-35.03,73.79c-17.54,15.31-38.7,29.95-64.06,32.87c-22.31,2.57-44-4.36-64.38-11.25
						c-35.22-11.91-54.84-26.08-65.12-56.63C143.01,1729.13,141.4,1698.07,159.07,1675.4z"/>
					<g>
						<path class="st17" d="M245.83,1786.06c-2.87-28.94,2.41-58.81,15.26-86.39c2.05-4.39,4.31-8.79,6.49-13.04
							c6.48-12.59,12.59-24.48,14.06-37.01c1.11-9.5-0.52-18.96-2.25-28.97c-1.64-9.49-3.34-19.3-2.55-29.33
							c1.76-22.44,15.44-42.39,28.66-61.68c7.97-11.62,16.21-23.64,21.58-35.9c4.63-10.57,7.43-22.04,10.14-33.12
							c4.55-18.63,9.26-37.89,22.72-54.48c6.36-7.83,14.35-14.61,22.08-21.16c5.55-4.71,11.29-9.57,16.22-14.68
							c14.57-15.1,23.23-33.68,24.38-52.3c0.43-7-0.15-14.33-0.72-21.42c-1.07-13.37-2.18-27.2,3.08-40.76
							c3.99-10.28,11.26-19.27,18.29-27.97c1.7-2.11,3.47-4.29,5.13-6.43c17.11-21.99,29.31-46.89,35.28-72.03l8.75,2.08
							c-6.27,26.38-19.04,52.48-36.93,75.48c-1.72,2.21-3.51,4.42-5.24,6.56c-6.9,8.54-13.42,16.6-16.9,25.57
							c-4.51,11.63-3.54,23.85-2.5,36.78c0.59,7.4,1.21,15.06,0.73,22.7c-1.29,20.76-10.84,41.35-26.89,57.99
							c-5.24,5.43-11.15,10.45-16.87,15.3c-7.76,6.58-15.09,12.79-20.91,19.97c-12.19,15.02-16.46,32.47-20.97,50.94
							c-2.8,11.46-5.69,23.31-10.64,34.6c-5.71,13.03-14.19,25.4-22.4,37.37c-13.13,19.16-25.54,37.26-27.11,57.3
							c-0.7,8.9,0.83,17.74,2.45,27.1c1.76,10.2,3.59,20.75,2.32,31.55c-1.66,14.15-8.44,27.33-14.99,40.08
							c-2.15,4.17-4.37,8.49-6.34,12.72c-12.17,26.12-17.17,54.37-14.46,81.7L245.83,1786.06z"/>
					</g>
					<path class="st29" d="M390.52,1276.35c1.09,7.85,3.33,15.56,6.66,22.93"/>
					<path class="st29" d="M344.55,1334.35c4.54,10.28,9.08,20.55,13.61,30.83"/>
					<g>
						<path class="st17" d="M460.69,1275.01l-5.89-5.89c3.85-3.85,7.12-8.04,9.74-12.46l7.17,4.24
							C468.74,1265.92,465.03,1270.67,460.69,1275.01z"/>
					</g>
					<path class="st29" d="M455.6,1343.07c14.69-3.74,29.39-7.47,44.08-11.21"/>
					<path class="st29" d="M397.35,1404.12c13.08-2.22,26.34-3.62,39.61-4.18"/>
					<path class="st29" d="M307.03,1419.68c6.37,5.58,12.11,11.61,17.12,18.02"/>
					<path class="st29" d="M373.54,1489.64c12.4-4.67,24.8-9.35,37.2-14.02"/>
					<path class="st29" d="M264.54,1502.23c4.04,5.78,8.08,11.57,12.12,17.35"/>
					<path class="st29" d="M329.31,1566.09c12.28-1.88,24.57-3.76,36.85-5.64"/>
					<path class="st29" d="M234.88,1576.29c8.76,7.51,17.52,15.02,26.29,22.53"/>
					<path class="st29" d="M214.71,1647.86c12.07,6.99,24.13,13.97,36.2,20.96"/>
					<path class="st29" d="M320.88,1637.26c10.05-5.06,20.38-9.76,30.93-14.09"/>
					<path class="st29" d="M292.24,1713.57c9.72-2.12,19.44-4.24,29.15-6.36"/>
					<path class="st29" d="M164.05,1709.54c6.45,8.56,14.25,16.44,23.18,23.41"/>
				</g>
				<circle class="st30" cx="414.78" cy="443.11" r="30.78"/>
				<circle class="st30" cx="1320.4" cy="1019.69" r="24.12"/>
				<circle class="st30" cx="579.17" cy="1168.77" r="30.78"/>
				<circle class="st3" cx="931.02" cy="809.21" r="14.24"/>
				<g>
					<g>
						<path class="st6" d="M1616.84,1168.06c6.98-35.43,24.18-89.58,24.18-89.58s80.41,82.89,95.19,145.57
							c14.78,62.68-30.39,100.12-30.39,100.12S1591.54,1296.51,1616.84,1168.06z"/>
						<g>
							<path class="st21" d="M1658.14,1155.84c4.88,14.12,9.24,27.97,13.54,41.86c4.26,13.88,8.44,27.71,12.45,41.61l3.05,10.41
								c0.91,3.5,2.01,6.95,2.99,10.44l2.89,10.49l1.48,5.24l1.4,5.27c0.48,1.75,0.9,3.53,1.35,5.3c0.48,1.76,0.97,3.51,1.41,5.28
								c0.92,3.53,1.78,7.09,2.61,10.67c1.68,7.15,3.4,14.31,4.52,21.75c-2.14-3.07-4.18-6.19-6.11-9.37
								c-1.93-3.17-3.85-6.36-5.6-9.63c-1.73-3.27-3.44-6.55-5.08-9.87c-1.67-3.3-3.25-6.65-4.71-10.04l-2.21-5.08l-2.14-5.11
								c-1.43-3.41-2.64-6.9-3.95-10.35c-1.28-3.47-2.5-6.95-3.64-10.46l-3.29-10.58c-4.08-14.2-7.32-28.66-9.4-43.33
								c-0.49-3.67-1-7.34-1.31-11.04c-0.16-1.85-0.35-3.69-0.49-5.54l-0.31-5.57c-0.19-3.71-0.23-7.44-0.17-11.17
								C1657.47,1163.31,1657.67,1159.57,1658.14,1155.84z"/>
						</g>
					</g>
					<g>
						<path class="st6" d="M1914.56,1171.91c29.67,0.32,75.98,6.07,75.98,6.07s-54.87,77.39-103.27,98.74s-85.43-9.5-85.43-9.5
							S1807.01,1170.76,1914.56,1171.91z"/>
						<g>
							<path class="st21" d="M1941.03,1203.13c-3.9,5.48-8.42,10.37-13.09,15.07c-4.7,4.68-9.68,9.06-14.85,13.2
								c-5.17,4.14-10.57,8-16.14,11.62c-2.77,1.84-5.65,3.5-8.49,5.23c-2.9,1.63-5.82,3.24-8.78,4.77c-1.48,0.76-2.98,1.5-4.5,2.2
								c-1.51,0.71-3.01,1.45-4.54,2.12c-3.09,1.3-6.15,2.64-9.31,3.78c-6.3,2.31-12.73,4.35-19.35,5.73
								c-1.63,0.41-3.31,0.68-4.97,0.96c-1.67,0.27-3.31,0.62-5.01,0.76c-1.69,0.18-3.36,0.39-5.04,0.54l-5.07,0.24
								c-6.76,0.11-13.55-0.4-20.04-2.14c6.51-1.68,12.7-3.41,18.75-5.44l4.51-1.54c1.49-0.58,2.98-1.11,4.45-1.66
								c1.48-0.53,2.94-1.15,4.41-1.72c1.47-0.57,2.92-1.16,4.38-1.78c5.82-2.39,11.55-4.98,17.24-7.66
								c1.41-0.71,2.86-1.31,4.27-2.01l4.24-2.09c2.83-1.4,5.67-2.77,8.46-4.26c2.84-1.38,5.62-2.9,8.44-4.35l8.42-4.47l16.89-9.08
								C1917.64,1215.11,1928.96,1208.9,1941.03,1203.13z"/>
						</g>
					</g>
					<g>
						<path class="st5" d="M1735.91,1150.73c21.26-28.94,59.62-70.4,59.62-70.4s37.33,108.59,24.14,171.25s-69.66,77.27-69.66,77.27
							S1658.84,1255.64,1735.91,1150.73z"/>
						<g>
							<path class="st21" d="M1781.38,1153.14c-1.1,15.21-3.22,29.94-5.46,44.64c-2.29,14.68-4.81,29.24-7.5,43.76
								c-2.74,14.52-5.46,29.01-8.47,43.51c-3.09,14.51-5.88,29.05-9.94,43.79c-0.63-3.76-1.13-7.53-1.52-11.3
								c-0.21-1.89-0.4-3.78-0.53-5.67l-0.28-5.67c-0.12-3.78-0.29-7.57-0.25-11.34c0.01-1.89,0.07-3.77,0.12-5.66
								c0.05-1.89,0.09-3.78,0.18-5.66c0.77-15.06,2.48-30.07,5.3-44.85c2.76-14.79,6.38-29.4,10.95-43.74
								c0.56-1.79,1.19-3.57,1.79-5.36c0.61-1.78,1.19-3.57,1.85-5.33c1.3-3.54,2.62-7.07,4.05-10.56c1.44-3.49,2.91-6.97,4.53-10.4
								C1777.78,1159.86,1779.5,1156.46,1781.38,1153.14z"/>
						</g>
					</g>
				</g>
				<g>
					<path class="st6" d="M1428.67,1042.21c0,0-20.19-66.73,52.05-88.46c0,0,48.61-15.44,83.3,49.02c0,0,28.8,76.25,55.44,43.1
						c0,0,40.78-54,82.34-4.76c8.64,10.23,10.29,39.35,13.38,51.91c7.62,30.96,26.21,100.98,37.05,94.19c0,0,59.03,81.2-0.99,113.31
						c-91.68,49.05-120.54,61.58-191.54,18c-44.86-27.54-99.56-46.54-100.84-102.09c-0.54-23.49,14.64-44.81,38.05-54.95
						c18.46-8-2.21-43.53-37.86-65.58C1459.04,1095.91,1430.82,1071.25,1428.67,1042.21z"/>
					<g>
						<path class="st17" d="M1707.72,1278.69c-12.28,0-29.96-12.92-54.02-39.48c-18.76-20.72-41.32-49.68-67.04-86.08
							c-43.73-61.88-82.02-124.75-82.4-125.38l6.05-3.68c0.38,0.63,38.57,63.32,82.15,125c75.12,106.29,104.39,122.54,115.25,122.54
							c0.11,0,0.22,0,0.33-0.01l0.22,7.07C1708.08,1278.69,1707.9,1278.69,1707.72,1278.69z"/>
					</g>
					<g>
						<path class="st17" d="M1580.83,1256.18c-17.71,0-34.68-4.42-50.66-13.23l3.42-6.2c45.72,25.19,87.42,5.63,107.46-3.77
							c6.65-3.12,9.7-4.5,12.17-4.51l0.03,7.08l0.02,0c-1.18,0.07-5.45,2.07-9.21,3.84c-10.5,4.93-26.38,12.37-46.12,15.44
							C1592.17,1255.74,1586.46,1256.18,1580.83,1256.18z"/>
					</g>
					<g>
						<path class="st17" d="M1593.41,1154.99c-0.25-1.2-0.94-8.8,9.54-40.33c6.11-18.38,5.14-21.89,5.01-22.23
							c0.04,0.12,0.29,0.5,0.81,0.73c0.3,0.13,0.56,0.16,0.76,0.15l-3.93-4.49c1.51-1.32,4.05-2.34,6.24-0.88
							c2.61,1.74,2.49,5.57,2.09,8.72c-0.57,4.48-2.33,11.19-5.23,19.92c-9.99,30.06-9.36,37.07-9.33,37.35
							c-0.01-0.1-0.03-0.15-0.03-0.15L1593.41,1154.99z"/>
					</g>
					<g>
						
							<rect x="1516.13" y="1051.46" transform="matrix(0.4178 -0.9085 0.9085 0.4178 -93.3248 2007.4813)" class="st17" width="7.08" height="50.19"/>
					</g>
				</g>
				<g>
					<polygon class="st0" points="504.77,1069.05 501.91,1069.35 499.51,1046.3 476.46,1048.71 476.16,1045.85 499.21,1043.44 
						496.8,1020.4 499.66,1020.1 502.07,1043.15 525.11,1040.74 525.41,1043.6 502.36,1046 					"/>
				</g>
			</g>
			<path class="st31" d="M549.44,776.03c0,0-9.99-26.33,0-55.22c0,0,31.62,11.47,48.27-1.84c0,0,9.99-34.12,6.66-62.42l12.48-15.81
				l-27.88-23.3c0,0-6.24-38.51-13.73-47.55c0,0-33.29-45.66-58.26-35.67c0,0-94.04-5.98-94.87,93.13c0,0-4.16,33.2,31.62,61.16
				l23.3,10.49l-36.62,96.12C440.42,795.12,508.66,836.43,549.44,776.03z"/>
			<path class="st32" d="M563.59,667c0,0,16.23,13.69,41.2,6.2"/>
			<path class="st33" d="M545.28,613.01v-1.48l32.46-15.73l2.5,7.84c0,0-15.71,4.5-30.42,12.15
				C547.75,616.85,545.28,615.34,545.28,613.01z"/>
			<circle class="st34" cx="548.18" cy="656.84" r="14.24"/>
			<path class="st35" d="M580.24,634.5c-11.32,6.79-22.65,4.73-27.13,3.48c-1.03-0.29-1.48-1.49-0.9-2.38
				c16.09-24.64,25.8-17.74,25.8-17.74L580.24,634.5z"/>
			<path class="st33" d="M581.14,625.5c1.12,5.23-0.19,10.13-3.72,11.14c-3.53,1.02-8.45-2.15-9.07-7.46
				c-1.02-8.7,2.27-10.13,5.81-11.14C577.68,617.02,579.4,617.43,581.14,625.5z"/>
			<path class="st32" d="M581.9,634.08c-11.32,6.79-24.31,5.15-28.79,3.9c-1.03-0.29-1.48-1.49-0.9-2.38
				c16.09-24.64,27.19-18.16,27.19-18.16"/>
			<path class="st35" d="M269.7,915.79c0,0-71.1-47.98-14.49-110.1c2.68-2.94,4.83-6.3,6.52-9.9c3.58-7.61,13.17-21.56,36.48-26.22
				c3.76-0.75,5.64-5,3.73-8.32c-8.47-14.76-22.79-47.59,14.47-51.44c0,0,68.24,9.97,71.57-50.78c0,0-7.72-91.21,54.22-119.63
				c4.06-1.86,8.47-2.86,12.94-2.96c9.61-0.22,29.68-2.03,44.36-9.52c0,0,43.28-34.11,74.9,4.48c0,0,18.31,23.4,29.96,26.83
				c0,0-3.33,12.42-11.65,19.58c0,0-3.61-7.15-5.87-11.37c-0.13-0.25-0.51-0.12-0.46,0.16c0.51,2.55,1.5,7.6,2,11.25
				c0.33,2.43-0.81,4.82-2.88,6.12l-13.59,8.5c0,0-1.74-10.46-8.1-20.84c-0.35-0.57-1.23-0.22-1.08,0.43
				c0.93,4.28,2.24,12.02,1.43,18.97c-0.42,3.61-2.59,6.79-5.76,8.58c-6,3.38-16.65,8.84-21.86,8.26c0,0,0.72-12.16-4.15-21.55
				c-0.36-0.7-1.41-0.49-1.49,0.29c-0.62,6.27-2.42,22.66-4.76,26.67c0,0-2.96,7.11-7.39,12.83c-2.27,2.93-3.45,6.58-3.09,10.27
				c0.26,2.62,1.13,5.23,3.4,6.45c0,0,0.58,0.6,1.44,1.69c7.83,9.93,7.59,23.89-0.22,33.83c-3.4,4.32-4.14,12.86-2.09,18.65
				c0.73,2.05,1.34,4.14,1.71,6.28c0.87,4.96,3.1,13.07,8.31,12.78c0,0,5.96,1.88,8.89-0.07c0.36-0.24,0.82,0.1,0.71,0.52
				c-0.02,0.06-0.03,0.12-0.05,0.18c-4.03,14.49-21.94,19.73-33.19,9.75c-3.62-3.22-7.24-7.66-9.65-13.7
				c-0.83-2.08-10.97-27.3-3.48-37.29c0,0,2.04-2.83,2.88-11.11c0.31-3.04-0.84-6.05-3.11-8.09c-4.94-4.43-15.33-12.05-24.17-7.17
				c0,0-20.43,16.67,1.25,35.79l12.07,8.74c0,0,6.66,8.32,1.66,32.46c0,0-2.75,13.15,6.16,23.45c2.17,2.51,4.91,4.47,7.92,5.89
				c6.51,3.08,23.95,13.2,24.62,33.49c0,0,2.97,26.82-34.26,49.66c-4.58,2.81-8.24,6.95-10.34,11.9
				c-2.34,5.49-3.19,12.59,2.57,19.17c0,0,24.97,18.73-9.57,78.65c0,0-8.85,29-36.33,28.71c-5.91-0.06-11.67-1.83-16.74-4.87
				c-0.04-0.02-0.07-0.04-0.11-0.07c-5.68-3.36-12.98-1.76-16.84,3.6c-7.33,10.21-27.43,34.3-53.98,34.62c0,0-27.75,4.35-46.09-8.84
				c-4.9-3.52-8.36-8.78-9.31-14.74c-0.73-4.55-0.02-9.63,5.36-12.46c4.38-2.3,8.35-5.32,11.48-9.14
				c6.11-7.45,12.49-19.18,4.85-30.14c0,0-8.63-11.04-17.71-11.44c-2.79-0.12-5.56-0.47-8.25-1.22
				C280.39,920.84,273.18,918.48,269.7,915.79z"/>
			<polygon class="st36" points="588.56,616.6 604.37,656.55 621.01,639.69 			"/>
			<path class="st32" d="M471.21,662.38c0,0,9.15-1.25,16.64,8.95"/>
			<g class="st2">
				<g>
					<path class="st6" d="M87.48,883.92c-22.97-27.87-53.91-75.51-53.91-75.51s115.09-9.58,172.92,18.75
						c57.83,28.33,58.13,87,58.13,87S170.73,984.96,87.48,883.92z"/>
					<g>
						<path class="st17" d="M104.23,844.25c14.68,4.13,28.37,8.96,42.01,13.99c13.59,5.07,26.93,10.44,40.17,16.11
							c6.67,2.74,13.21,5.75,19.82,8.67c3.3,1.47,6.55,3.05,9.84,4.58c3.29,1.52,6.56,3.07,9.82,4.7c1.63,0.8,3.25,1.66,4.87,2.49
							c1.63,0.81,3.28,1.59,4.9,2.45c3.26,1.66,6.5,3.41,9.72,5.21c6.46,3.6,12.95,7.21,19.23,11.69
							c-3.84,0.06-7.61-0.15-11.37-0.43c-3.76-0.29-7.51-0.64-11.2-1.18c-3.69-0.56-7.37-1.17-11.03-1.87
							c-3.67-0.66-7.3-1.46-10.91-2.36c-3.61-0.88-7.2-1.84-10.77-2.84c-3.57-1.02-7.09-2.18-10.61-3.35
							c-7.06-2.28-13.95-5.05-20.8-7.89c-13.62-5.89-26.85-12.73-39.35-20.87c-1.57-1.01-3.1-2.08-4.65-3.12
							c-1.55-1.03-3.07-2.12-4.57-3.24c-1.5-1.12-3.02-2.2-4.5-3.35c-1.47-1.17-2.94-2.33-4.39-3.53c-2.9-2.38-5.72-4.89-8.45-7.51
							C109.28,849.99,106.62,847.27,104.23,844.25z"/>
					</g>
				</g>
				<g>
					<path class="st6" d="M279.3,656.21c19.06-22.73,52.89-54.88,52.89-54.88s25.02,91.51,10.83,142.47
						c-14.2,50.96-61.53,60.01-61.53,60.01S210.2,738.62,279.3,656.21z"/>
					<g>
						<path class="st17" d="M320.23,655.55c1.24,3.24,2.13,6.53,2.91,9.82c0.78,3.3,1.38,6.61,1.9,9.94
							c1.01,6.65,1.5,13.32,1.67,20.01c0.14,6.69-0.14,13.37-0.79,20.04c-0.64,6.67-1.67,13.31-3.11,19.9
							c-1.43,6.58-3.24,13.11-5.57,19.51c-2.32,6.39-5.01,12.68-8.38,18.67c-3.39,5.97-7.13,11.77-11.72,16.96
							c-1.1,1.32-2.34,2.55-3.53,3.79l-1.82,1.82c-0.62,0.6-1.3,1.15-1.95,1.72c-1.32,1.12-2.58,2.26-4.02,3.24
							c-1.43,0.99-2.84,1.96-4.32,2.84c0.53-1.68,1.13-3.25,1.71-4.81c0.31-0.76,0.59-1.55,0.84-2.35c0.26-0.79,0.55-1.56,0.81-2.33
							l0.82-2.29l0.74-2.32c0.48-1.55,1.07-3,1.48-4.57l1.41-4.53c0.41-1.54,0.88-3.04,1.31-4.54c0.45-1.49,0.83-3.03,1.26-4.53
							c0.42-1.5,0.82-3.01,1.2-4.52c1.61-6.01,3.05-12.06,4.48-18.11c1.44-6.04,2.77-12.14,4.11-18.24
							c2.72-12.21,5.23-24.57,8.15-37.04C312.79,681.11,315.78,668.53,320.23,655.55z"/>
					</g>
				</g>
				<g>
					<path class="st5" d="M149.6,780.88c-8.89-34.79-16.61-90.75-16.61-90.75s107.63,40.02,147.7,89.96s15.54,102.87,15.54,102.87
						S181.82,907.01,149.6,780.88z"/>
					<g>
						<path class="st17" d="M180.31,747.26c12.09,9.79,22.61,20.38,32.92,31.11c10.24,10.77,20,21.81,29.49,33.06
							c9.44,11.3,18.76,22.64,27.69,34.45c8.87,11.9,17.86,23.66,25.83,37.09c-3.54-1.63-6.93-3.47-10.27-5.38
							c-1.68-0.95-3.33-1.93-4.96-2.95c-1.61-1.04-3.18-2.11-4.77-3.17c-3.13-2.18-6.3-4.34-9.3-6.68
							c-1.52-1.15-2.98-2.36-4.46-3.55c-1.48-1.2-2.96-2.38-4.41-3.61c-11.53-9.87-22.21-20.66-31.88-32.24
							c-9.7-11.56-18.62-23.77-26.45-36.72c-0.98-1.61-1.91-3.27-2.86-4.9c-0.94-1.64-1.91-3.27-2.79-4.95
							c-1.8-3.34-3.56-6.7-5.21-10.14c-1.64-3.44-3.23-6.91-4.67-10.48C182.75,754.63,181.4,751.02,180.31,747.26z"/>
					</g>
				</g>
			</g>
			<g class="st2">
				<path class="st5" d="M973.3,1214.49c0,0,83.3,66.59,111.96,43.78C1085.26,1258.26,1048.69,1201.94,973.3,1214.49z"/>
				<path class="st5" d="M1106.06,1138.7c0,0,8.13,106.33-26.87,117.17C1079.19,1255.87,1053.23,1193.94,1106.06,1138.7z"/>
				<path class="st5" d="M1002.52,1071.62c0,0,80.25,104.65,51.33,139.52C1053.85,1211.14,985.12,1164.52,1002.52,1071.62z"/>
				<path class="st5" d="M1006.37,1303.66c0,0,82.49,56.25,118.18,27.85C1124.55,1331.51,1092.66,1278.52,1006.37,1303.66z"/>
				<path class="st5" d="M1166.88,1203.31c0,0-7.89,109.76-48.74,126.67C1118.14,1329.98,1099.01,1269.43,1166.88,1203.31z"/>
				<path class="st5" d="M1057.61,1386.13c0,0,96.78,41.2,123.01,7.85C1180.62,1393.98,1133.94,1347.74,1057.61,1386.13z"/>
				<path class="st5" d="M1183.73,1262.72c0,0,24.87,107.78-9.79,130.81C1173.94,1393.54,1137.42,1337.89,1183.73,1262.72z"/>
				<path class="st5" d="M1112.02,1441.37c0,0,96.78,41.2,123.01,7.85C1235.03,1449.22,1188.35,1402.98,1112.02,1441.37z"/>
				<path class="st5" d="M1238.14,1317.97c0,0,24.87,107.78-9.79,130.81C1228.35,1448.78,1191.83,1393.14,1238.14,1317.97z"/>
				<path class="st5" d="M1162.05,1498.93c0,0,96.78,41.2,123.01,7.85C1285.06,1506.78,1238.39,1460.54,1162.05,1498.93z"/>
				<path class="st5" d="M1288.17,1375.52c0,0,24.87,107.78-9.79,130.81C1278.38,1506.34,1241.86,1450.69,1288.17,1375.52z"/>
				<path class="st5" d="M1032.39,1147.05c6.97,18.56,15.14,36.68,23.76,54.53c8.64,17.85,17.9,35.39,27.71,52.61
					c19.46,34.52,41.18,67.73,64.93,99.35c23.81,31.61,50.29,60.99,77.69,89.35c27.33,28.51,57,54.63,87.9,79.67l-0.55,0.8
					c-16.91-10.49-33.6-21.56-49.14-34.11c-8.01-5.99-15.41-12.71-23.11-19.1c-3.75-3.31-7.38-6.74-11.08-10.1
					c-3.71-3.35-7.36-6.77-10.9-10.3c-14.49-13.8-27.73-28.84-40.63-44.08c-12.71-15.43-24.78-31.35-36.45-47.54
					c-23.18-32.49-44.21-66.45-62.92-101.62c-9.29-17.62-18.01-35.53-26.09-53.72c-8.06-18.19-15.65-36.6-22.03-55.45
					L1032.39,1147.05z"/>
			</g>
		</g>
		<g>
			<path class="st6" d="M422.94,549.92c0,0-13.32-56.11,48.27-95.41l98.22-57.9c6.1-3.59,13.93-1.9,18,3.9l22.44,32
				c4.31,6.15,2.81,14.63-3.35,18.92l-46.7,32.56l62.72,91.23c3.91,5.68,2.61,13.44-2.94,17.54l-32.75,24.21
				c-5.87,4.34-14.18,2.9-18.24-3.17l-60.01-89.66c-2.25-3.36-6.86-4.15-10.1-1.73c-7.04,5.28-19.69,15.04-34.78,27.94
				c-3.36,2.87-7.66,9.79-11.5,16.79c-4.3,7.86-15.6,7.84-19.89-0.02L422.94,549.92z"/>
			<path class="st6" d="M850.97,551.81c5.02,14.14,18.75,39.77,52.66,41.19c0,0,47.3-67.79,19.35-129.52l-40.63-77.44
				c-2.19-4.41-0.95-9.75,2.95-12.76l44.2-34.03c6.2-4.77,7.57-13.57,3.11-20l-20.09-27.76c-4.82-6.95-14.51-8.4-21.15-3.16
				l-45.09,35.58c-1.27,1-3.15,0.36-3.53-1.22c-3.22-13.3-11.74-63.8,33.99-96.02c3.95-2.78,5.17-8.08,2.9-12.34l-19.05-35.69
				c-2.52-4.71-8.4-6.47-13.08-3.91c-18.02,9.88-57.69,38.41-64.45,99.19c-3.57,32.14,3.34,64.58,19.24,92.74l54.65,96.8
				c0,0,24.1,49.91-2.53,74.58C850.64,541.57,849.25,546.94,850.97,551.81z"/>
			<path class="st6" d="M798.71,475.66c-2.09-2.98-1.51-7.06,1.31-9.35l14.71-11.9c6.11-4.95,7.39-13.77,2.94-20.25l-21.49-31.26
				c-4.78-6.95-14.35-8.62-21.2-3.7l-12.6,9.05c-3.97,2.85-9.47,2.11-12.54-1.7l-35.66-44.19c-6.71-8.31-18.62-10.18-27.55-4.33
				l-26.43,17.33c-4.74,3.11-8.01,8.02-9.04,13.6L628.9,509.52c-2.77,15.01,0.87,30.49,10.05,42.69l2.76,3.67
				c4.56,6.07,13.1,7.47,19.36,3.18l77.62-53.15c4.68-3.2,11.06-2.11,14.4,2.48l17.78,24.39c4.32,5.92,12.58,7.28,18.57,3.06
				l23.5-16.58c6.04-4.26,7.49-12.6,3.25-18.65L798.71,475.66z M716.1,442.82l-27.46,21.33c-1.66,1.29-4.01-0.28-3.45-2.31
				l11.74-42.61c0.49-1.76,2.79-2.19,3.87-0.72l15.72,21.28C717.23,440.75,717.04,442.09,716.1,442.82z"/>
		</g>
		<g>
			<path class="st5" d="M1636.65,1087.42c5.48-8.83,11.25-17.13,17.06-25.23c5.39-8.53,10.95-16.75,16.49-24.88
				c5.2-8.44,10.46-16.72,15.78-24.88c4.9-8.51,10.01-16.77,15.01-25.06c19.55-33.53,37.23-67.69,53.4-102.74
				c16.19-35.03,30.9-70.87,45.08-107.42c1.67-4.6,3.46-9.17,5.22-13.77c1.77-4.59,3.51-9.19,5.38-13.78
				c3.33-9.27,6.88-18.53,10.52-27.82c3.41-9.34,6.92-18.72,10.74-28.09c3.48-9.44,7.16-18.89,11.42-28.34
				c0.97,10.24,1.35,20.47,1.54,30.71c-0.08,10.2-0.49,20.4-0.99,30.63c-0.88,10.15-1.89,20.32-3.09,30.48
				c-0.67,5.07-1.57,10.09-2.39,15.13c-0.84,5.04-1.65,10.1-2.58,15.14c-7.9,40.16-20.63,79.54-37.95,116.98
				c-17.34,37.39-39.31,72.92-66.11,104.42c-3.37,3.92-6.96,7.67-10.43,11.48c-3.5,3.8-6.97,7.6-10.56,11.29
				c-7.44,7.18-15.09,14.13-22.72,20.97c-8.09,6.45-16.22,12.75-24.49,18.77C1654.36,1077.07,1645.64,1082.5,1636.65,1087.42z"/>
			<path class="st5" d="M1643.81,1078.37c2.38-8.2,5.15-15.94,8.01-23.51c2.45-7.83,5.13-15.39,7.81-22.87
				c2.37-7.65,4.84-15.16,7.4-22.56c2.16-7.6,4.57-15.02,6.88-22.43c8.88-29.84,16.53-59.6,23.15-89.76
				c6.65-30.15,12.29-60.64,17.82-91.68c0.59-3.89,1.32-7.78,2.01-11.67c0.7-3.9,1.37-7.81,2.17-11.72
				c1.24-7.84,2.7-15.72,4.24-23.65c1.37-7.93,2.82-15.91,4.58-23.95c1.48-8.04,3.14-16.14,5.37-24.35
				c3.04,7.87,5.51,15.85,7.8,23.89c2.07,8.05,3.82,16.17,5.49,24.34c1.34,8.17,2.56,16.39,3.59,24.65
				c0.47,4.13,0.72,8.26,1.05,12.4c0.31,4.14,0.65,8.29,0.86,12.45c1.39,33.22-1.57,66.75-8.81,99.49
				c-7.26,32.71-18.8,64.72-35.2,94.13c-2.06,3.67-4.35,7.23-6.53,10.82c-2.2,3.58-4.38,7.16-6.68,10.66
				c-4.84,6.9-9.92,13.62-15.01,20.23c-5.53,6.37-11.13,12.62-16.93,18.61C1656.73,1067.66,1650.46,1073.24,1643.81,1078.37z"/>
			<path class="st5" d="M1639.99,1080.46c6.07-6.01,12.25-11.43,18.43-16.66c5.95-5.65,11.96-10.96,17.94-16.19
				c5.79-5.53,11.59-10.9,17.43-16.12c5.58-5.6,11.29-10.91,16.91-16.26c22.26-21.77,43.4-44.06,63.85-67.21
				c20.46-23.13,40.21-47.03,60.12-71.47c2.41-3.11,4.93-6.15,7.43-9.23c2.5-3.07,4.99-6.16,7.59-9.19
				c4.89-6.25,10-12.43,15.19-18.61c5.05-6.27,10.19-12.53,15.64-18.71c5.2-6.31,10.58-12.58,16.53-18.67
				c-1.16,8.35-2.88,16.53-4.79,24.67c-2.1,8.04-4.52,15.99-7.03,23.94c-2.8,7.8-5.72,15.57-8.84,23.29
				c-1.6,3.84-3.38,7.57-5.11,11.35c-1.74,3.77-3.46,7.57-5.29,11.3c-14.93,29.71-33.8,57.58-56.04,82.67
				c-22.24,25.06-47.88,47.43-76.5,65.17c-3.58,2.2-7.32,4.2-10.96,6.29c-3.66,2.06-7.31,4.13-11.02,6.07
				c-7.59,3.68-15.28,7.08-22.95,10.39c-7.93,2.88-15.86,5.62-23.84,8.04C1656.49,1077.37,1648.3,1079.2,1639.99,1080.46z"/>
			<path class="st5" d="M1640.33,1085.19c6.15-4.12,12.27-7.65,18.34-10.98c5.97-3.74,11.92-7.13,17.81-10.44
				c5.79-3.64,11.59-7.03,17.35-10.33c5.65-3.62,11.32-7.02,16.97-10.36c22.4-13.88,44.05-28.09,65.46-42.96
				c21.42-14.85,42.56-30.29,64.23-45.98c5.33-4.02,10.8-7.94,16.38-11.8c5.43-4.02,10.99-7.97,16.71-11.83
				c5.59-3.99,11.28-7.95,17.24-11.76c5.78-3.97,11.73-7.85,18.18-11.43c-2.35,6.91-5.19,13.52-8.21,20.05
				c-3.16,6.41-6.59,12.66-10.12,18.89c-3.71,6.07-7.61,12.02-11.62,17.91c-4.17,5.75-8.5,11.4-12.94,16.97
				c-18.07,21.99-39.32,41.49-62.93,57.84c-23.61,16.31-49.64,29.52-77.27,37.97c-6.96,1.99-13.96,3.77-20.95,5.41
				c-7.12,1.33-14.25,2.46-21.36,3.4c-7.24,0.57-14.43,1-21.6,1.12C1654.73,1086.66,1647.52,1086.22,1640.33,1085.19z"/>
			<path class="st5" d="M1649.65,1076.14c-0.11-6.83,0.26-13.29,0.76-19.6c0.14-6.44,0.55-12.68,1-18.82
				c0.15-6.24,0.51-12.33,0.93-18.35c0.11-6.1,0.42-12.09,0.78-18.04c0.92-23.88,1.38-47.29,1.37-70.88
				c0.02-23.58-0.4-47.28-0.56-71.58c-0.16-6.06-0.15-12.17-0.04-18.35c-0.08-6.15-0.03-12.36,0.19-18.65
				c0.06-6.27,0.19-12.59,0.61-19.06c0.2-6.41,0.57-12.92,1.47-19.66c4.18,5.27,7.82,10.78,11.3,16.38
				c3.32,5.65,6.35,11.43,9.31,17.28c2.74,5.9,5.29,11.89,7.71,17.94c2.24,6.09,4.31,12.26,6.25,18.48
				c7.38,24.94,11.08,51.03,11.04,77.27c-0.07,26.21-3.85,52.66-12.2,77.73c-2.2,6.24-4.6,12.41-7.12,18.48
				c-2.81,6.01-5.78,11.92-8.9,17.69c-3.46,5.68-7.02,11.25-10.81,16.62C1658.61,1066.29,1654.37,1071.39,1649.65,1076.14z"/>
		</g>
		<path class="st0" d="M549.44,776.03c0,0-9.99-26.33,0-55.22c0,0,31.62,11.47,48.27-1.84c0,0,9.99-34.12,6.66-62.42l12.48-15.81
			l-27.88-23.3c0,0-6.24-38.51-13.73-47.55c0,0-33.29-45.66-58.26-35.67c0,0-94.04-5.98-94.87,93.13c0,0-4.16,33.2,31.62,61.16
			l23.3,10.49l-36.62,96.12C440.42,795.12,508.66,836.43,549.44,776.03z"/>
		<g>
			<path class="st17" d="M589.87,677.23c-16.66,0-26.88-8.42-27.42-8.88l2.28-2.7l-1.14,1.35l1.14-1.35
				c0.16,0.13,15.86,12.97,39.55,5.86l1.02,3.39C599.7,676.57,594.53,677.23,589.87,677.23z"/>
		</g>
		<path class="st17" d="M545.28,613.01v-1.48l32.46-15.73l2.5,7.84c0,0-15.71,4.5-30.42,12.15
			C547.75,616.85,545.28,615.34,545.28,613.01z"/>
		<circle class="st3" cx="548.18" cy="656.84" r="14.24"/>
		<path class="st4" d="M580.24,634.5c-11.32,6.79-22.65,4.73-27.13,3.48c-1.03-0.29-1.48-1.49-0.9-2.38
			c16.09-24.64,25.8-17.74,25.8-17.74L580.24,634.5z"/>
		<path class="st17" d="M581.14,625.5c1.12,5.23-0.19,10.13-3.72,11.14c-3.53,1.02-8.45-2.15-9.07-7.46
			c-1.02-8.7,2.27-10.13,5.81-11.14C577.68,617.02,579.4,617.43,581.14,625.5z"/>
		<g>
			<path class="st17" d="M562.56,640.9c-4.07,0-7.57-0.56-9.93-1.22c-1.02-0.29-1.86-1.05-2.23-2.05c-0.37-0.99-0.25-2.12,0.33-3.01
				c16.82-25.75,29.05-19.02,29.57-18.72l-1.78,3.06c-0.07-0.04-9.96-5.03-24.67,17.38c5.15,1.36,17.09,2.25,27.15-3.78l1.82,3.03
				C576.06,639.64,568.67,640.9,562.56,640.9z"/>
		</g>
		<path class="st4" d="M269.7,915.79c0,0-71.1-47.98-14.49-110.1c2.68-2.94,4.83-6.3,6.52-9.9c3.58-7.61,13.17-21.56,36.48-26.22
			c3.76-0.75,5.64-5,3.73-8.32c-8.47-14.76-22.79-47.59,14.47-51.44c0,0,68.24,9.97,71.57-50.78c0,0-7.72-91.21,54.22-119.63
			c4.06-1.86,8.47-2.86,12.94-2.96c9.61-0.22,29.68-2.03,44.36-9.52c0,0,43.28-34.11,74.9,4.48c0,0,18.31,23.4,29.96,26.83
			c0,0-3.33,12.42-11.65,19.58c0,0-3.61-7.15-5.87-11.37c-0.13-0.25-0.51-0.12-0.46,0.16c0.51,2.55,1.5,7.6,2,11.25
			c0.33,2.43-0.81,4.82-2.88,6.12l-13.59,8.5c0,0-1.74-10.46-8.1-20.84c-0.35-0.57-1.23-0.22-1.08,0.43
			c0.93,4.28,2.24,12.02,1.43,18.97c-0.42,3.61-2.59,6.79-5.76,8.58c-6,3.38-16.65,8.84-21.86,8.26c0,0,0.72-12.16-4.15-21.55
			c-0.36-0.7-1.41-0.49-1.49,0.29c-0.62,6.27-2.42,22.66-4.76,26.67c0,0-2.96,7.11-7.39,12.83c-2.27,2.93-3.45,6.58-3.09,10.27
			c0.26,2.62,1.13,5.23,3.4,6.45c0,0,0.58,0.6,1.44,1.69c7.83,9.93,7.59,23.89-0.22,33.83c-3.4,4.32-4.14,12.86-2.09,18.65
			c0.73,2.05,1.34,4.14,1.71,6.28c0.87,4.96,3.1,13.07,8.31,12.78c0,0,5.96,1.88,8.89-0.07c0.36-0.24,0.82,0.1,0.71,0.52
			c-0.02,0.06-0.03,0.12-0.05,0.18c-4.03,14.49-21.94,19.73-33.19,9.75c-3.62-3.22-7.24-7.66-9.65-13.7
			c-0.83-2.08-10.97-27.3-3.48-37.29c0,0,2.04-2.83,2.88-11.11c0.31-3.04-0.84-6.05-3.11-8.09c-4.94-4.43-15.33-12.05-24.17-7.17
			c0,0-20.43,16.67,1.25,35.79l12.07,8.74c0,0,6.66,8.32,1.66,32.46c0,0-2.75,13.15,6.16,23.45c2.17,2.51,4.91,4.47,7.92,5.89
			c6.51,3.08,23.95,13.2,24.62,33.49c0,0,2.97,26.82-34.26,49.66c-4.58,2.81-8.24,6.95-10.34,11.9c-2.34,5.49-3.19,12.59,2.57,19.17
			c0,0,24.97,18.73-9.57,78.65c0,0-8.85,29-36.33,28.71c-5.91-0.06-11.67-1.83-16.74-4.87c-0.04-0.02-0.07-0.04-0.11-0.07
			c-5.68-3.36-12.98-1.76-16.84,3.6c-7.33,10.21-27.43,34.3-53.98,34.62c0,0-27.75,4.35-46.09-8.84c-4.9-3.52-8.36-8.78-9.31-14.74
			c-0.73-4.55-0.02-9.63,5.36-12.46c4.38-2.3,8.35-5.32,11.48-9.14c6.11-7.45,12.49-19.18,4.85-30.14c0,0-8.63-11.04-17.71-11.44
			c-2.79-0.12-5.56-0.47-8.25-1.22C280.39,920.84,273.18,918.48,269.7,915.79z"/>
		<polygon class="st24" points="588.56,616.6 604.37,656.55 621.01,639.69 		"/>
		<g>
			<path class="st17" d="M486.43,672.37c-6.72-9.15-14.65-8.28-14.99-8.24l-0.47-3.51c0.42-0.06,10.29-1.27,18.31,9.65
				L486.43,672.37z"/>
		</g>
		<path class="st37" d="M256.47,1040.88c0,0-430.89-450.57,60.87-556.28c0,0,111.73,7.2,153.91-127.28
			c0,0,59.82-187.76,241.16-145.71c0,0,232.26,83.24,450.31-45.85c0,0,542.55-323.4,501.52,155.61
			c-8.7,101.51,164.05,223.25,156.71,472.64c-13.06,444.06-226.15,508.34-404.82,562.15c-341.69,102.9-401.08-116.35-557.85-48.27
			C675.82,1387.12,252.65,1359.56,256.47,1040.88z"/>
		<circle class="st30" cx="1377.69" cy="85.45" r="69.77"/>
		<g>
			<path class="st3" d="M1653.85,1016.82c19.61-41.34,57.58-102.47,57.58-102.47s72.93,126.83,71.56,208.4
				c-1.37,81.57-68.49,113.48-68.49,113.48S1582.77,1166.68,1653.85,1016.82z"/>
			<g>
				<path class="st17" d="M1717.72,1259.43c-2.38-4.9-4.41-9.94-6.26-15.02c-0.94-2.54-1.85-5.09-2.69-7.66
					c-0.85-2.56-1.64-5.14-2.46-7.72c-1.55-5.17-2.97-10.38-4.31-15.6c-0.66-2.61-1.25-5.24-1.85-7.87
					c-0.58-2.63-1.25-5.25-1.74-7.9c-4.34-21.12-6.87-42.59-7.85-64.15c-0.19-5.39-0.53-10.78-0.45-16.18
					c0.03-5.4,0.06-10.8,0.2-16.19c0.05-2.7,0.28-5.4,0.42-8.09c0.14-2.7,0.35-5.39,0.55-8.09l0.61-8.07l1-8.05
					c0.32-2.68,0.72-5.36,1.1-8.03c0.39-2.67,0.74-5.35,1.19-8.01c1.03-5.32,2.14-10.62,3.31-15.9c0.62-2.63,1.18-5.27,1.84-7.89
					c0.77-2.61,1.5-5.22,2.32-7.8c1.59-5.18,3.26-10.33,5.19-15.41c0.46,5.46,0.66,10.85,0.78,16.2c0.08,2.68,0.08,5.34,0.12,8
					l0.32,7.99c0.16,5.31,0.27,10.6,0.3,15.87c0.14,2.64,0.21,5.28,0.3,7.92c0.09,2.64,0.19,5.27,0.22,7.9l0.16,7.88l0.31,7.88
					c0.26,5.25,0.24,10.48,0.48,15.72c0.28,5.24,0.47,10.48,0.64,15.71l0.11,3.93l0.21,3.93l0.37,7.85
					c0.95,20.94,1.92,41.9,3.06,62.97C1716.22,1216.61,1717.4,1237.72,1717.72,1259.43z"/>
			</g>
		</g>
		<g>
			<path class="st5" d="M1754.06,561.22c22.29-16.62,60.08-38.64,60.08-38.64s3.07,88.86-20.88,132.27
				c-23.95,43.41-69.07,41.45-69.07,41.45S1673.25,621.47,1754.06,561.22z"/>
			<g>
				<path class="st21" d="M1719.32,709.68c0.19-3.29,0.55-6.57,1.05-9.81c0.46-3.25,1.08-6.47,1.71-9.69
					c0.67-3.21,1.42-6.39,2.2-9.57c0.83-3.16,1.7-6.32,2.62-9.46c3.74-12.54,8.53-24.76,14.13-36.61l2.14-4.42
					c0.7-1.48,1.44-2.94,2.22-4.39c1.57-2.88,3.1-5.78,4.69-8.64c1.64-2.84,3.35-5.64,5.09-8.42l2.6-4.17l2.8-4.05
					c1.88-2.69,3.79-5.36,5.73-7.99c2.04-2.58,4.13-5.12,6.22-7.64c1.07-1.25,2.11-2.51,3.19-3.74c1.14-1.19,2.26-2.39,3.42-3.56
					c2.29-2.36,4.64-4.66,7.06-6.88c-1.37,3.02-2.8,5.96-4.3,8.84c-0.74,1.45-1.51,2.87-2.26,4.3l-2.15,4.36
					c-1.45,2.88-2.92,5.74-4.43,8.57c-1.4,2.89-2.82,5.77-4.28,8.61l-2.18,4.27l-2.1,4.31c-1.37,2.89-2.88,5.69-4.25,8.57
					c-2.71,5.78-5.61,11.45-8.26,17.26c-5.46,11.52-10.87,23.09-16.19,34.76C1730.4,686.16,1725.12,697.87,1719.32,709.68z"/>
			</g>
		</g>
		<g>
			<path class="st3" d="M107.67,1023.51c-14.86-17.64-34.96-47.86-34.96-47.86s73.44-6.91,110.57,10.78
				c37.13,17.7,37.73,55.16,37.73,55.16S161.55,1087.48,107.67,1023.51z"/>
			<g>
				<path class="st21" d="M232.33,1044.98c-5.48,0-10.9-0.58-16.28-1.32c-2.69-0.4-5.36-0.86-8.04-1.35
					c-2.66-0.53-5.32-1.09-7.96-1.7c-10.57-2.48-20.93-5.84-31.01-9.9c-2.5-1.05-5.04-2.02-7.51-3.17
					c-2.46-1.16-4.94-2.28-7.38-3.46c-2.43-1.22-4.84-2.5-7.22-3.8l-3.58-1.95l-3.49-2.12c-2.32-1.43-4.62-2.87-6.9-4.35
					c-2.23-1.56-4.44-3.16-6.63-4.78c-1.09-0.82-2.18-1.62-3.25-2.46c-1.04-0.88-2.09-1.75-3.12-2.65c-2.07-1.78-4.08-3.61-6.04-5.5
					c2.57,0.99,5.07,2.03,7.53,3.13c1.24,0.54,2.45,1.11,3.67,1.66l3.71,1.56c2.46,1.06,4.9,2.14,7.31,3.25
					c2.47,1.02,4.92,2.05,7.35,3.12l3.64,1.6l3.67,1.52c2.46,0.99,4.86,2.1,7.31,3.1c4.92,1.96,9.76,4.08,14.7,5.99
					c9.81,3.95,19.66,7.87,29.59,11.69C212.3,1036.96,222.27,1040.76,232.33,1044.98z"/>
			</g>
		</g>
	</g>
</g>
</svg>
