<?xml version="1.0" encoding="utf-8"?>
<!-- Generator: Adobe Illustrator 21.0.0, SVG Export Plug-In . SVG Version: 6.00 Build 0)  -->
<svg version="1.1" id="Capa_1" xmlns="http://www.w3.org/2000/svg" xmlns:xlink="http://www.w3.org/1999/xlink" x="0px" y="0px"
	 viewBox="0 0 49.7 49.7" style="enable-background:new 0 0 49.7 49.7;" xml:space="preserve">
<style type="text/css">
	.st0{fill:#FFFFFF;}
</style>
<g>
	<g>
		<g>
			<path class="st0" d="M29.4,21.3c-2.1,0-3.1,1.2-3.6,2v-1.7h-4c0.1,1.1,0,12,0,12h4v-6.7c0-0.4,0-0.7,0.1-1
				c0.3-0.7,0.9-1.5,2.1-1.5c1.4,0,2,1.1,2,2.7v6.4h4h0v-6.9C34,23,32,21.3,29.4,21.3z M25.7,23.3L25.7,23.3
				C25.7,23.3,25.7,23.3,25.7,23.3L25.7,23.3z"/>
			<rect x="15.5" y="21.6" class="st0" width="4" height="12"/>
			<path class="st0" d="M24.8,0C11.1,0,0,11.1,0,24.8c0,13.7,11.1,24.8,24.8,24.8c13.7,0,24.8-11.1,24.8-24.8
				C49.7,11.1,38.5,0,24.8,0z M38,36.1c0,1.1-0.9,1.9-2,1.9H13.5c-1.1,0-2-0.9-2-1.9V13.2c0-1.1,0.9-1.9,2-1.9H36c1.1,0,2,0.9,2,1.9
				C38,13.2,38,36.1,38,36.1z"/>
			<path class="st0" d="M17.6,15.8c-1.4,0-2.3,0.9-2.3,2.1c0,1.2,0.9,2.1,2.2,2.1h0c1.4,0,2.3-0.9,2.3-2.1
				C19.8,16.7,18.9,15.8,17.6,15.8z"/>
		</g>
	</g>
</g>
</svg>
